M48
; DRILL file {KiCad 9.0.8-9.0.8~ubuntu24.04.1} date 2026-03-31T16:09:07-0400
; FORMAT={-:-/ absolute / metric / decimal}
; #@! TF.CreationDate,2026-03-31T16:09:07-04:00
; #@! TF.GenerationSoftware,Kicad,Pcbnew,9.0.8-9.0.8~ubuntu24.04.1
; #@! TF.FileFunction,Plated,1,2,PTH
FMAT,2
METRIC
; #@! TA.AperFunction,Plated,PTH,ViaDrill
T1C0.300
; #@! TA.AperFunction,Plated,PTH,ComponentDrill
T2C0.650
; #@! TA.AperFunction,Plated,PTH,ComponentDrill
T3C0.700
; #@! TA.AperFunction,Plated,PTH,ComponentDrill
T4C0.750
; #@! TA.AperFunction,Plated,PTH,ComponentDrill
T5C0.762
; #@! TA.AperFunction,Plated,PTH,ComponentDrill
T6C0.800
; #@! TA.AperFunction,Plated,PTH,ComponentDrill
T7C0.950
; #@! TA.AperFunction,Plated,PTH,ComponentDrill
T8C1.000
; #@! TA.AperFunction,Plated,PTH,ComponentDrill
T9C1.900
; #@! TA.AperFunction,Plated,PTH,ComponentDrill
T10C3.200
%
G90
G05
T1
X72.1Y-73.9
X75.2Y-74.3
X77.2Y-31.6
X77.2Y-51.6
X77.4Y-34.5
X79.1Y-31.6
X79.1Y-57.7
X79.4Y-34.7
X79.4Y-56.9
X79.4Y-58.4
X79.6Y-51.6
X79.6Y-60.4
X80.4Y-62.6
X80.5Y-60.4
X81.5Y-56.9
X81.5Y-57.8
X81.5Y-62.6
X82.2Y-54.8
X82.2Y-57.3
X83.0Y-57.3
X83.9Y-34.7
X84.0Y-31.7
X84.7Y-57.3
X85.7Y-57.4
X86.5Y-66.1
X87.4Y-57.1
X87.9Y-57.8
X88.0Y-39.4
X89.1Y-55.8
X89.2Y-59.1
X90.4Y-72.1
X90.7Y-45.9
X91.6Y-63.4
X91.9Y-66.3
X93.1Y-49.8
X93.1Y-55.5
X93.2Y-57.4
X93.2Y-59.6
X93.3Y-38.5
X94.0Y-44.8
X94.0Y-53.0
X94.0Y-61.6
X94.128Y-57.475
X94.8Y-39.7
X95.1Y-55.5
X95.2Y-57.4
X95.2Y-59.6
X96.8Y-49.8
X98.7Y-63.0
X99.4Y-36.6
X99.7Y-51.0
X99.8Y-54.9
X100.1Y-56.8
X100.458Y-57.516
X100.7Y-73.9
X100.725Y-58.27
X101.9Y-30.9
X103.1Y-44.9
X103.5Y-64.9
X103.6Y-48.0
X107.5Y-32.0
X107.9Y-72.9
X110.3Y-34.2
X110.5Y-66.5
X111.129Y-54.371
X111.8Y-45.7
X112.5Y-28.5
X112.693Y-49.593
X113.5Y-69.2
X114.6Y-43.5
X115.5Y-52.1
X116.5Y-52.6
X118.0Y-60.9
X118.1Y-62.825
X118.9Y-59.2
X119.301Y-57.626
X120.2Y-51.6
X120.4Y-52.4
X120.476Y-53.196
X121.2Y-50.1
X122.0Y-56.0
X122.4Y-46.5
X122.4Y-61.7
X122.4Y-63.4
X122.9Y-65.8
X123.4Y-61.7
X123.4Y-63.4
X123.5Y-54.6
X123.6Y-59.6
X123.8Y-65.8
X123.95Y-50.676
X124.044Y-51.471
X124.8Y-52.0
X125.5Y-57.2
X125.7Y-52.7
X126.7Y-55.2
X127.6Y-29.1
X128.2Y-56.9
X129.8Y-49.0
X130.2Y-59.5
X130.8Y-68.1
X131.0Y-41.2
X131.1Y-43.8
X131.2Y-60.4
X131.5Y-49.0
X133.1Y-35.9
X133.5Y-55.1
X134.1Y-49.0
X134.9Y-50.7
X135.2Y-55.4
X135.295Y-47.549
X135.381Y-46.753
X135.4Y-38.1
X135.65Y-46.0
X135.65Y-51.4
X136.8Y-59.7
X137.0Y-42.7
X137.1Y-37.8
X137.3Y-46.1
X137.413Y-46.892
X137.5Y-38.9
X138.9Y-43.7
X139.0Y-32.7
X139.0Y-56.6
X139.2Y-49.8
X139.2Y-54.9
X139.3Y-47.5
X139.3Y-58.5
X139.3Y-67.9
X139.425Y-41.3
X140.3Y-44.8
X140.3Y-49.7
X140.4Y-30.4
X141.0Y-38.0
X141.1Y-39.6
X141.2Y-46.892
X141.6Y-44.0
X141.7Y-50.8
X142.6Y-46.0
X142.6Y-58.1
X142.9Y-63.3
X143.6Y-47.2
X144.4Y-54.8
X144.5Y-49.8
X144.615Y-48.165
X144.8Y-31.65
X145.0Y-56.5
X145.25Y-34.1
X145.3Y-36.4
X145.3Y-48.9
X145.9Y-44.0
X146.0Y-49.8
X146.2Y-54.9
X146.6Y-50.65
X146.9Y-62.1
X146.9Y-63.9
X147.1Y-59.3
X147.4Y-66.7
X147.6Y-37.05
X147.6Y-41.6
X148.0Y-46.6
X148.1Y-58.6
X148.1Y-62.1
X148.176Y-55.076
X148.2Y-63.9
X148.5Y-66.2
X148.8Y-44.2
X148.9Y-55.5
X149.4Y-57.8
X149.5Y-46.238
X149.947Y-53.221
X150.3Y-41.5
X150.4Y-58.9
X151.0Y-45.2
X151.2Y-47.5
X151.3Y-49.4
X151.5Y-50.3
X151.637Y-54.863
X151.9Y-36.4
X152.5Y-31.5
X152.6Y-37.9
X152.613Y-55.887
X152.816Y-44.358
X153.3Y-26.6
X153.4Y-41.0
X153.463Y-56.737
X153.8Y-38.3
X154.1Y-34.6
X154.3Y-50.3
X154.6Y-39.1
X154.663Y-57.937
X154.8Y-37.3
X155.066Y-45.998
X155.08Y-45.188
X155.107Y-44.388
X155.145Y-53.955
X155.3Y-35.5
X155.3Y-46.8
X155.819Y-53.524
X155.9Y-48.2
X156.1Y-36.9
X156.1Y-49.0
X156.299Y-54.164
X156.7Y-31.9
X156.711Y-46.225
X157.0Y-42.8
X157.095Y-54.091
X157.414Y-44.062
X157.5Y-46.462
X157.6Y-53.4
X157.926Y-50.226
X158.0Y-40.3
X158.2Y-52.8
X158.6Y-33.6
X159.8Y-50.9
X160.1Y-45.6
X160.3Y-35.6
X160.4Y-47.0
X160.5Y-44.5
X160.8Y-51.9
X161.7Y-37.2
X161.9Y-46.0
X161.9Y-46.8
X162.0Y-32.9
X162.075Y-55.975
X162.7Y-48.8
X162.8Y-41.8
X162.8Y-46.0
X162.8Y-46.8
X163.1Y-50.9
X163.7Y-34.5
X164.1Y-52.1
X164.6Y-51.1
X164.7Y-64.6
X164.724Y-48.724
X164.9Y-62.3
X165.174Y-41.974
X165.4Y-57.8
X165.6Y-36.6
X165.6Y-52.0
X165.6Y-55.9
X166.3Y-37.5
X166.5Y-42.4
X166.8Y-34.8
X167.2Y-52.1
X167.3Y-50.2
X167.8Y-55.1
X168.4Y-52.1
X168.8Y-34.3
X169.0Y-47.1
X172.1Y-61.6
X172.5Y-59.0
T4
X132.5Y-73.25
X134.5Y-73.25
X136.5Y-73.25
X168.65Y-61.6
X168.65Y-63.6
X168.65Y-65.6
X168.65Y-67.6
X168.65Y-69.6
T5
X148.3Y-28.9
T6
X170.9Y-36.2
X170.9Y-38.2
X170.9Y-40.2
X170.9Y-42.2
X170.9Y-44.2
X170.9Y-46.2
X170.9Y-48.2
X170.9Y-50.2
X170.9Y-52.2
X170.9Y-54.2
X170.9Y-56.2
X172.9Y-36.2
X172.9Y-38.2
X172.9Y-40.2
X172.9Y-42.2
X172.9Y-44.2
X172.9Y-46.2
X172.9Y-48.2
X172.9Y-50.2
X172.9Y-52.2
X172.9Y-54.2
X172.9Y-56.2
T7
X77.689Y-53.95
X77.689Y-56.45
X77.689Y-58.95
X77.689Y-61.45
X92.1Y-29.7
X94.6Y-29.7
X97.1Y-29.7
X104.4Y-29.5
X106.9Y-29.5
X109.4Y-29.5
X118.9Y-70.2
X121.4Y-70.2
X123.9Y-70.2
X126.4Y-70.2
X131.9Y-29.8
X134.4Y-29.8
X136.9Y-29.8
X143.25Y-70.255
X145.75Y-70.255
X148.25Y-70.255
X150.75Y-70.255
T8
X115.7Y-23.475
X126.7Y-23.475
T9
X118.7Y-33.475
X123.7Y-33.475
T10
X84.9Y-24.7
X84.9Y-74.7
X159.9Y-24.7
X159.9Y-74.7
T2
G00X149.405Y-24.285
M15
G01X149.405Y-24.685
M16
G05
G00X154.245Y-24.285
M15
G01X154.245Y-24.685
M16
G05
T3
G00X149.095Y-21.235
M15
G01X149.095Y-21.735
M16
G05
G00X154.555Y-21.235
M15
G01X154.555Y-21.735
M16
G05
M30
