%TF.GenerationSoftware,KiCad,Pcbnew,9.0.8-9.0.8~ubuntu24.04.1*%
%TF.CreationDate,2026-03-31T16:09:33-04:00*%
%TF.ProjectId,Bucket_universel_v2,4275636b-6574-45f7-956e-697665727365,rev?*%
%TF.SameCoordinates,Original*%
%TF.FileFunction,Paste,Top*%
%TF.FilePolarity,Positive*%
%FSLAX46Y46*%
G04 Gerber Fmt 4.6, Leading zero omitted, Abs format (unit mm)*
G04 Created by KiCad (PCBNEW 9.0.8-9.0.8~ubuntu24.04.1) date 2026-03-31 16:09:33*
%MOMM*%
%LPD*%
G01*
G04 APERTURE LIST*
G04 Aperture macros list*
%AMRoundRect*
0 Rectangle with rounded corners*
0 $1 Rounding radius*
0 $2 $3 $4 $5 $6 $7 $8 $9 X,Y pos of 4 corners*
0 Add a 4 corners polygon primitive as box body*
4,1,4,$2,$3,$4,$5,$6,$7,$8,$9,$2,$3,0*
0 Add four circle primitives for the rounded corners*
1,1,$1+$1,$2,$3*
1,1,$1+$1,$4,$5*
1,1,$1+$1,$6,$7*
1,1,$1+$1,$8,$9*
0 Add four rect primitives between the rounded corners*
20,1,$1+$1,$2,$3,$4,$5,0*
20,1,$1+$1,$4,$5,$6,$7,0*
20,1,$1+$1,$6,$7,$8,$9,0*
20,1,$1+$1,$8,$9,$2,$3,0*%
G04 Aperture macros list end*
%ADD10C,0.000000*%
%ADD11C,0.010000*%
%ADD12RoundRect,0.200000X-0.200000X-0.275000X0.200000X-0.275000X0.200000X0.275000X-0.200000X0.275000X0*%
%ADD13RoundRect,0.375000X0.625000X0.375000X-0.625000X0.375000X-0.625000X-0.375000X0.625000X-0.375000X0*%
%ADD14RoundRect,0.500000X0.500000X1.400000X-0.500000X1.400000X-0.500000X-1.400000X0.500000X-1.400000X0*%
%ADD15RoundRect,0.140000X0.140000X0.170000X-0.140000X0.170000X-0.140000X-0.170000X0.140000X-0.170000X0*%
%ADD16RoundRect,0.200000X0.275000X-0.200000X0.275000X0.200000X-0.275000X0.200000X-0.275000X-0.200000X0*%
%ADD17RoundRect,0.200000X-0.275000X0.200000X-0.275000X-0.200000X0.275000X-0.200000X0.275000X0.200000X0*%
%ADD18RoundRect,0.225000X0.225000X0.250000X-0.225000X0.250000X-0.225000X-0.250000X0.225000X-0.250000X0*%
%ADD19RoundRect,0.225000X0.250000X-0.225000X0.250000X0.225000X-0.250000X0.225000X-0.250000X-0.225000X0*%
%ADD20RoundRect,0.140000X-0.140000X-0.170000X0.140000X-0.170000X0.140000X0.170000X-0.140000X0.170000X0*%
%ADD21RoundRect,0.250000X-1.250000X-0.550000X1.250000X-0.550000X1.250000X0.550000X-1.250000X0.550000X0*%
%ADD22RoundRect,0.135000X-0.185000X0.135000X-0.185000X-0.135000X0.185000X-0.135000X0.185000X0.135000X0*%
%ADD23RoundRect,0.250000X-0.550000X1.500000X-0.550000X-1.500000X0.550000X-1.500000X0.550000X1.500000X0*%
%ADD24RoundRect,0.200000X0.200000X0.275000X-0.200000X0.275000X-0.200000X-0.275000X0.200000X-0.275000X0*%
%ADD25RoundRect,0.250000X1.500000X0.550000X-1.500000X0.550000X-1.500000X-0.550000X1.500000X-0.550000X0*%
%ADD26RoundRect,0.250001X0.462499X0.624999X-0.462499X0.624999X-0.462499X-0.624999X0.462499X-0.624999X0*%
%ADD27RoundRect,0.150000X0.150000X-0.512500X0.150000X0.512500X-0.150000X0.512500X-0.150000X-0.512500X0*%
%ADD28RoundRect,0.225000X-0.225000X-0.250000X0.225000X-0.250000X0.225000X0.250000X-0.225000X0.250000X0*%
%ADD29R,0.254000X0.457200*%
%ADD30R,0.330200X0.254000*%
%ADD31R,0.457200X0.254000*%
%ADD32RoundRect,0.250000X-0.475000X0.250000X-0.475000X-0.250000X0.475000X-0.250000X0.475000X0.250000X0*%
%ADD33RoundRect,0.250001X0.624999X-0.462499X0.624999X0.462499X-0.624999X0.462499X-0.624999X-0.462499X0*%
%ADD34RoundRect,0.218750X-0.218750X-0.256250X0.218750X-0.256250X0.218750X0.256250X-0.218750X0.256250X0*%
%ADD35RoundRect,0.250000X-0.625000X0.375000X-0.625000X-0.375000X0.625000X-0.375000X0.625000X0.375000X0*%
%ADD36RoundRect,0.140000X0.170000X-0.140000X0.170000X0.140000X-0.170000X0.140000X-0.170000X-0.140000X0*%
%ADD37R,0.889000X1.765300*%
%ADD38R,3.149600X1.765300*%
%ADD39RoundRect,0.375000X0.375000X-0.625000X0.375000X0.625000X-0.375000X0.625000X-0.375000X-0.625000X0*%
%ADD40RoundRect,0.500000X1.400000X-0.500000X1.400000X0.500000X-1.400000X0.500000X-1.400000X-0.500000X0*%
%ADD41RoundRect,0.162500X-0.650000X-0.162500X0.650000X-0.162500X0.650000X0.162500X-0.650000X0.162500X0*%
%ADD42RoundRect,0.225000X-0.250000X0.225000X-0.250000X-0.225000X0.250000X-0.225000X0.250000X0.225000X0*%
%ADD43RoundRect,0.250000X-0.250000X-0.475000X0.250000X-0.475000X0.250000X0.475000X-0.250000X0.475000X0*%
%ADD44RoundRect,0.249999X0.956501X1.464501X-0.956501X1.464501X-0.956501X-1.464501X0.956501X-1.464501X0*%
%ADD45RoundRect,0.249999X-0.395001X-0.395001X0.395001X-0.395001X0.395001X0.395001X-0.395001X0.395001X0*%
%ADD46RoundRect,0.050000X-0.387500X-0.050000X0.387500X-0.050000X0.387500X0.050000X-0.387500X0.050000X0*%
%ADD47RoundRect,0.050000X-0.050000X-0.387500X0.050000X-0.387500X0.050000X0.387500X-0.050000X0.387500X0*%
%ADD48R,1.270000X0.304800*%
%ADD49R,3.099999X5.180000*%
%ADD50R,1.701800X0.812800*%
%ADD51R,1.092200X0.812800*%
%ADD52RoundRect,0.051250X-0.733750X-0.153750X0.733750X-0.153750X0.733750X0.153750X-0.733750X0.153750X0*%
%ADD53RoundRect,0.135000X0.135000X0.185000X-0.135000X0.185000X-0.135000X-0.185000X0.135000X-0.185000X0*%
%ADD54RoundRect,0.250000X0.475000X-0.250000X0.475000X0.250000X-0.475000X0.250000X-0.475000X-0.250000X0*%
%ADD55RoundRect,0.237500X0.287500X0.237500X-0.287500X0.237500X-0.287500X-0.237500X0.287500X-0.237500X0*%
%ADD56RoundRect,0.250000X0.450000X0.350000X-0.450000X0.350000X-0.450000X-0.350000X0.450000X-0.350000X0*%
%ADD57RoundRect,0.250000X-1.500000X-0.550000X1.500000X-0.550000X1.500000X0.550000X-1.500000X0.550000X0*%
%ADD58R,0.400000X1.650000*%
%ADD59R,1.825000X0.700000*%
%ADD60R,2.000000X1.500000*%
%ADD61R,1.350000X2.000000*%
%ADD62R,1.430000X2.500000*%
%ADD63RoundRect,0.135000X-0.135000X-0.185000X0.135000X-0.185000X0.135000X0.185000X-0.135000X0.185000X0*%
%ADD64RoundRect,0.250000X0.250000X0.475000X-0.250000X0.475000X-0.250000X-0.475000X0.250000X-0.475000X0*%
G04 APERTURE END LIST*
D10*
%TO.C,U8*%
G36*
X116753590Y-45176050D02*
G01*
X116415770Y-45176050D01*
X116415770Y-45422430D01*
X116753590Y-45422430D01*
X116753590Y-45676430D01*
X116415770Y-45676430D01*
X116415770Y-45828830D01*
X113316970Y-45828830D01*
X113316970Y-44972850D01*
X116415770Y-44972850D01*
X116415770Y-44922050D01*
X116753590Y-44922050D01*
X116753590Y-45176050D01*
G37*
G36*
X116753590Y-46677190D02*
G01*
X116415770Y-46677190D01*
X116415770Y-46923570D01*
X116753590Y-46923570D01*
X116753590Y-47177570D01*
X116415770Y-47177570D01*
X116415770Y-47423950D01*
X116753590Y-47423950D01*
X116753590Y-47677950D01*
X116415770Y-47677950D01*
X116415770Y-47616990D01*
X113620500Y-47616990D01*
X113316970Y-47379500D01*
X113316970Y-46423190D01*
X116753590Y-46423190D01*
X116753590Y-46677190D01*
G37*
D11*
%TO.C,U2*%
X148330000Y-64050000D02*
X146730000Y-64050000D01*
X146730000Y-61900000D01*
X148330000Y-61900000D01*
X148330000Y-64050000D01*
G36*
X148330000Y-64050000D02*
G01*
X146730000Y-64050000D01*
X146730000Y-61900000D01*
X148330000Y-61900000D01*
X148330000Y-64050000D01*
G37*
%TO.C,U11*%
X123670000Y-63550000D02*
X122070000Y-63550000D01*
X122070000Y-61400000D01*
X123670000Y-61400000D01*
X123670000Y-63550000D01*
G36*
X123670000Y-63550000D02*
G01*
X122070000Y-63550000D01*
X122070000Y-61400000D01*
X123670000Y-61400000D01*
X123670000Y-63550000D01*
G37*
%TD*%
D12*
%TO.C,R10*%
X141575000Y-56400000D03*
X143225000Y-56400000D03*
%TD*%
D13*
%TO.C,U3*%
X145250000Y-38700000D03*
X145250000Y-36400000D03*
D14*
X138950000Y-36400000D03*
D13*
X145250000Y-34100000D03*
%TD*%
D15*
%TO.C,C24*%
X154300000Y-46300000D03*
X153340000Y-46300000D03*
%TD*%
D16*
%TO.C,R28*%
X117600000Y-59200000D03*
X117600000Y-57550000D03*
%TD*%
D17*
%TO.C,R12*%
X141600000Y-64675000D03*
X141600000Y-66325000D03*
%TD*%
D18*
%TO.C,C3*%
X84675000Y-63700000D03*
X83125000Y-63700000D03*
%TD*%
D19*
%TO.C,C2*%
X81900000Y-52950000D03*
X81900000Y-51400000D03*
%TD*%
D15*
%TO.C,C28*%
X154300000Y-47260000D03*
X153340000Y-47260000D03*
%TD*%
D20*
%TO.C,C12*%
X160620000Y-57250000D03*
X161580000Y-57250000D03*
%TD*%
D21*
%TO.C,C31*%
X122400000Y-46500000D03*
X126800000Y-46500000D03*
%TD*%
D22*
%TO.C,R18*%
X163900000Y-38990000D03*
X163900000Y-40010000D03*
%TD*%
D16*
%TO.C,R8*%
X100500000Y-61325000D03*
X100500000Y-59675000D03*
%TD*%
D18*
%TO.C,C6*%
X97150000Y-63500000D03*
X95600000Y-63500000D03*
%TD*%
D23*
%TO.C,C10*%
X160300000Y-63600000D03*
X160300000Y-69000000D03*
%TD*%
D15*
%TO.C,C27*%
X154300000Y-48300000D03*
X153340000Y-48300000D03*
%TD*%
D24*
%TO.C,R21*%
X117550000Y-53700000D03*
X115900000Y-53700000D03*
%TD*%
D25*
%TO.C,C1*%
X83500000Y-68000000D03*
X78100000Y-68000000D03*
%TD*%
D18*
%TO.C,C33*%
X110675000Y-46100000D03*
X109125000Y-46100000D03*
%TD*%
D26*
%TO.C,D7*%
X132687500Y-34000000D03*
X129712500Y-34000000D03*
%TD*%
D27*
%TO.C,U7*%
X106100000Y-35575000D03*
X107050000Y-35575000D03*
X108000000Y-35575000D03*
X108000000Y-33300000D03*
X107050000Y-33300000D03*
X106100000Y-33300000D03*
%TD*%
D28*
%TO.C,C40*%
X108525000Y-51700000D03*
X110075000Y-51700000D03*
%TD*%
D17*
%TO.C,R31*%
X116700000Y-63575000D03*
X116700000Y-65225000D03*
%TD*%
D29*
%TO.C,U8*%
X113449050Y-48125000D03*
X113949430Y-48125000D03*
X114449810Y-48125000D03*
X114950190Y-48125000D03*
X115450570Y-48125000D03*
X115950950Y-48125000D03*
D30*
X116588490Y-47550950D03*
X116588490Y-47050570D03*
X116588490Y-46550190D03*
X116588490Y-45549430D03*
X116588490Y-45049050D03*
D29*
X115950950Y-44475000D03*
X115450570Y-44475000D03*
X114950190Y-44475000D03*
X114449810Y-44475000D03*
X113949430Y-44475000D03*
X113449050Y-44475000D03*
D31*
X112875010Y-45049050D03*
X112875010Y-45549430D03*
X112875010Y-46049810D03*
X112875010Y-46550190D03*
X112875010Y-47550950D03*
%TD*%
D32*
%TO.C,C15*%
X147600000Y-37050000D03*
X147600000Y-38950000D03*
%TD*%
D33*
%TO.C,D4*%
X102900000Y-36287500D03*
X102900000Y-33312500D03*
%TD*%
D12*
%TO.C,R29*%
X119075000Y-57400000D03*
X120725000Y-57400000D03*
%TD*%
D27*
%TO.C,U10*%
X94500000Y-35775000D03*
X95450000Y-35775000D03*
X96400000Y-35775000D03*
X96400000Y-33500000D03*
X95450000Y-33500000D03*
X94500000Y-33500000D03*
%TD*%
D15*
%TO.C,C23*%
X154300000Y-45200000D03*
X153340000Y-45200000D03*
%TD*%
D24*
%TO.C,R20*%
X111800000Y-36600000D03*
X110150000Y-36600000D03*
%TD*%
D23*
%TO.C,C38*%
X135300000Y-62400000D03*
X135300000Y-67800000D03*
%TD*%
D34*
%TO.C,D5*%
X113200000Y-36600000D03*
X114775000Y-36600000D03*
%TD*%
D35*
%TO.C,F1*%
X118500000Y-36700000D03*
X118500000Y-39500000D03*
%TD*%
D17*
%TO.C,R6*%
X88500000Y-60975000D03*
X88500000Y-62625000D03*
%TD*%
D24*
%TO.C,R22*%
X114450000Y-53700000D03*
X112800000Y-53700000D03*
%TD*%
D36*
%TO.C,C19*%
X160900000Y-39980000D03*
X160900000Y-39020000D03*
%TD*%
D37*
%TO.C,U12*%
X110439900Y-53682150D03*
X108128500Y-53682150D03*
X105817100Y-53682150D03*
D38*
X108128500Y-59917850D03*
%TD*%
D12*
%TO.C,R13*%
X96965000Y-39720000D03*
X98615000Y-39720000D03*
%TD*%
D17*
%TO.C,R24*%
X116000000Y-49375000D03*
X116000000Y-51025000D03*
%TD*%
D39*
%TO.C,U4*%
X82200000Y-45950000D03*
X84500000Y-45950000D03*
D40*
X84500000Y-39650000D03*
D39*
X86800000Y-45950000D03*
%TD*%
D15*
%TO.C,C26*%
X154300000Y-49300000D03*
X153340000Y-49300000D03*
%TD*%
D19*
%TO.C,C9*%
X155800000Y-65750000D03*
X155800000Y-64200000D03*
%TD*%
D25*
%TO.C,C30*%
X103100000Y-44900000D03*
X97700000Y-44900000D03*
%TD*%
D41*
%TO.C,U5*%
X150612500Y-35095000D03*
X150612500Y-36365000D03*
X150612500Y-37635000D03*
X150612500Y-38905000D03*
X157787500Y-38905000D03*
X157787500Y-37635000D03*
X157787500Y-36365000D03*
X157787500Y-35095000D03*
%TD*%
D34*
%TO.C,D1*%
X164212500Y-32300000D03*
X165787500Y-32300000D03*
%TD*%
D42*
%TO.C,C4*%
X85300000Y-53525000D03*
X85300000Y-55075000D03*
%TD*%
D20*
%TO.C,C17*%
X158600000Y-33600000D03*
X159560000Y-33600000D03*
%TD*%
D16*
%TO.C,R30*%
X116700000Y-62225000D03*
X116700000Y-60575000D03*
%TD*%
D24*
%TO.C,R25*%
X119125000Y-49400000D03*
X117475000Y-49400000D03*
%TD*%
D33*
%TO.C,D6*%
X91200000Y-36487500D03*
X91200000Y-33512500D03*
%TD*%
D42*
%TO.C,C36*%
X129500000Y-61925000D03*
X129500000Y-63475000D03*
%TD*%
D36*
%TO.C,C18*%
X161900000Y-39980000D03*
X161900000Y-39020000D03*
%TD*%
D16*
%TO.C,R5*%
X87000000Y-62600000D03*
X87000000Y-60950000D03*
%TD*%
D43*
%TO.C,C16*%
X80000000Y-48300000D03*
X81900000Y-48300000D03*
%TD*%
D34*
%TO.C,D2*%
X100112500Y-39700000D03*
X101687500Y-39700000D03*
%TD*%
D42*
%TO.C,C5*%
X89000000Y-51825000D03*
X89000000Y-53375000D03*
%TD*%
D19*
%TO.C,C35*%
X128000000Y-61875000D03*
X128000000Y-60325000D03*
%TD*%
D36*
%TO.C,C22*%
X162900000Y-39980000D03*
X162900000Y-39020000D03*
%TD*%
D44*
%TO.C,L1*%
X111721000Y-41800000D03*
X105879000Y-41800000D03*
%TD*%
D24*
%TO.C,R15*%
X144425000Y-41200000D03*
X142775000Y-41200000D03*
%TD*%
D12*
%TO.C,R1*%
X164175000Y-30800000D03*
X165825000Y-30800000D03*
%TD*%
D45*
%TO.C,U6*%
X161600000Y-45662500D03*
X161600000Y-47262500D03*
X163200000Y-45662500D03*
X163200000Y-47262500D03*
D46*
X158962500Y-43862500D03*
X158962500Y-44262500D03*
X158962500Y-44662500D03*
X158962500Y-45062500D03*
X158962500Y-45462500D03*
X158962500Y-45862500D03*
X158962500Y-46262500D03*
X158962500Y-46662500D03*
X158962500Y-47062500D03*
X158962500Y-47462500D03*
X158962500Y-47862500D03*
X158962500Y-48262500D03*
X158962500Y-48662500D03*
X158962500Y-49062500D03*
D47*
X159800000Y-49900000D03*
X160200000Y-49900000D03*
X160600000Y-49900000D03*
X161000000Y-49900000D03*
X161400000Y-49900000D03*
X161800000Y-49900000D03*
X162200000Y-49900000D03*
X162600000Y-49900000D03*
X163000000Y-49900000D03*
X163400000Y-49900000D03*
X163800000Y-49900000D03*
X164200000Y-49900000D03*
X164600000Y-49900000D03*
X165000000Y-49900000D03*
D46*
X165837500Y-49062500D03*
X165837500Y-48662500D03*
X165837500Y-48262500D03*
X165837500Y-47862500D03*
X165837500Y-47462500D03*
X165837500Y-47062500D03*
X165837500Y-46662500D03*
X165837500Y-46262500D03*
X165837500Y-45862500D03*
X165837500Y-45462500D03*
X165837500Y-45062500D03*
X165837500Y-44662500D03*
X165837500Y-44262500D03*
X165837500Y-43862500D03*
D47*
X165000000Y-43025000D03*
X164600000Y-43025000D03*
X164200000Y-43025000D03*
X163800000Y-43025000D03*
X163400000Y-43025000D03*
X163000000Y-43025000D03*
X162600000Y-43025000D03*
X162200000Y-43025000D03*
X161800000Y-43025000D03*
X161400000Y-43025000D03*
X161000000Y-43025000D03*
X160600000Y-43025000D03*
X160200000Y-43025000D03*
X159800000Y-43025000D03*
%TD*%
D48*
%TO.C,U1*%
X91156400Y-53249875D03*
X91156400Y-53899886D03*
X91156400Y-54549898D03*
X91156400Y-55199909D03*
X91156400Y-55849921D03*
X91156400Y-56499932D03*
X91156400Y-57149943D03*
X91156400Y-57799955D03*
X91156400Y-58449966D03*
X91156400Y-59099977D03*
X91156400Y-59749989D03*
X91156400Y-60400000D03*
X91156400Y-61050012D03*
X91156400Y-61700023D03*
X97100000Y-61700023D03*
X97100000Y-61050012D03*
X97100000Y-60400000D03*
X97100000Y-59749989D03*
X97100000Y-59099977D03*
X97100000Y-58449966D03*
X97100000Y-57799955D03*
X97100000Y-57149943D03*
X97100000Y-56499932D03*
X97100000Y-55849921D03*
X97100000Y-55199909D03*
X97100000Y-54549898D03*
X97100000Y-53899886D03*
X97100000Y-53249875D03*
D49*
X94128200Y-57474949D03*
%TD*%
D50*
%TO.C,SW2*%
X148300000Y-30600002D03*
X148300000Y-27199998D03*
D51*
X146650001Y-28900000D03*
%TD*%
D16*
%TO.C,R9*%
X141600000Y-59525000D03*
X141600000Y-57875000D03*
%TD*%
D52*
%TO.C,U2*%
X144660000Y-60700000D03*
X144660000Y-61350000D03*
X144660000Y-62000000D03*
X144660000Y-62650000D03*
X144660000Y-63300000D03*
X144660000Y-63950000D03*
X144660000Y-64600000D03*
X144660000Y-65250000D03*
X150400000Y-65250000D03*
X150400000Y-64600000D03*
X150400000Y-63950000D03*
X150400000Y-63300000D03*
X150400000Y-62650000D03*
X150400000Y-62000000D03*
X150400000Y-61350000D03*
X150400000Y-60700000D03*
%TD*%
D19*
%TO.C,C37*%
X131000000Y-64975000D03*
X131000000Y-63425000D03*
%TD*%
D53*
%TO.C,R14*%
X148910000Y-33200000D03*
X147890000Y-33200000D03*
%TD*%
D42*
%TO.C,C32*%
X111600000Y-50125000D03*
X111600000Y-51675000D03*
%TD*%
D27*
%TO.C,U9*%
X134500000Y-36100000D03*
X135450000Y-36100000D03*
X136400000Y-36100000D03*
X136400000Y-33825000D03*
X135450000Y-33825000D03*
X134500000Y-33825000D03*
%TD*%
D16*
%TO.C,R23*%
X114200000Y-51025000D03*
X114200000Y-49375000D03*
%TD*%
D24*
%TO.C,R3*%
X83868600Y-56200046D03*
X82218600Y-56200046D03*
%TD*%
D36*
%TO.C,C20*%
X166100000Y-39980000D03*
X166100000Y-39020000D03*
%TD*%
D17*
%TO.C,R2*%
X83543600Y-52975046D03*
X83543600Y-54625046D03*
%TD*%
D19*
%TO.C,C7*%
X152600000Y-62475000D03*
X152600000Y-60925000D03*
%TD*%
D28*
%TO.C,C39*%
X105525000Y-51700000D03*
X107075000Y-51700000D03*
%TD*%
D15*
%TO.C,C25*%
X154300000Y-50300000D03*
X153340000Y-50300000D03*
%TD*%
D54*
%TO.C,C13*%
X144800000Y-31650000D03*
X144800000Y-29750000D03*
%TD*%
D52*
%TO.C,U11*%
X120000000Y-60200000D03*
X120000000Y-60850000D03*
X120000000Y-61500000D03*
X120000000Y-62150000D03*
X120000000Y-62800000D03*
X120000000Y-63450000D03*
X120000000Y-64100000D03*
X120000000Y-64750000D03*
X125740000Y-64750000D03*
X125740000Y-64100000D03*
X125740000Y-63450000D03*
X125740000Y-62800000D03*
X125740000Y-62150000D03*
X125740000Y-61500000D03*
X125740000Y-60850000D03*
X125740000Y-60200000D03*
%TD*%
D55*
%TO.C,D3*%
X141175000Y-41300000D03*
X139425000Y-41300000D03*
%TD*%
D24*
%TO.C,R4*%
X83825000Y-58400000D03*
X82175000Y-58400000D03*
%TD*%
D16*
%TO.C,R7*%
X101800000Y-55850000D03*
X101800000Y-54200000D03*
%TD*%
D15*
%TO.C,C11*%
X161880000Y-52750000D03*
X160920000Y-52750000D03*
%TD*%
D42*
%TO.C,C34*%
X110100000Y-48525000D03*
X110100000Y-50075000D03*
%TD*%
D56*
%TO.C,Y1*%
X162200000Y-54150000D03*
X160000000Y-54150000D03*
X160000000Y-55850000D03*
X162200000Y-55850000D03*
%TD*%
D57*
%TO.C,C29*%
X121900000Y-39400000D03*
X127300000Y-39400000D03*
%TD*%
D58*
%TO.C,J7*%
X153125000Y-24365000D03*
X152475000Y-24365000D03*
X151825000Y-24365000D03*
X151175000Y-24365000D03*
X150525000Y-24365000D03*
D59*
X154775000Y-23165000D03*
D60*
X154675000Y-24465000D03*
D61*
X154555000Y-22415000D03*
D62*
X152785000Y-21215000D03*
X150865000Y-21215000D03*
D61*
X149075000Y-22415000D03*
D60*
X148925000Y-24485000D03*
D59*
X148825000Y-23165000D03*
%TD*%
D22*
%TO.C,R19*%
X165000000Y-38990000D03*
X165000000Y-40010000D03*
%TD*%
D16*
%TO.C,R11*%
X141600000Y-63225000D03*
X141600000Y-61575000D03*
%TD*%
D42*
%TO.C,C8*%
X154300000Y-62500000D03*
X154300000Y-64050000D03*
%TD*%
D36*
%TO.C,C21*%
X167100000Y-39980000D03*
X167100000Y-39020000D03*
%TD*%
D63*
%TO.C,R16*%
X147890000Y-35000000D03*
X148910000Y-35000000D03*
%TD*%
D64*
%TO.C,C14*%
X85450000Y-48300000D03*
X83550000Y-48300000D03*
%TD*%
D22*
%TO.C,R17*%
X162900000Y-51750000D03*
X162900000Y-52770000D03*
%TD*%
M02*
