%TF.GenerationSoftware,KiCad,Pcbnew,9.0.8-9.0.8~ubuntu24.04.1*%
%TF.CreationDate,2026-03-31T16:09:33-04:00*%
%TF.ProjectId,Bucket_universel_v2,4275636b-6574-45f7-956e-697665727365,rev?*%
%TF.SameCoordinates,Original*%
%TF.FileFunction,Copper,L2,Bot*%
%TF.FilePolarity,Positive*%
%FSLAX46Y46*%
G04 Gerber Fmt 4.6, Leading zero omitted, Abs format (unit mm)*
G04 Created by KiCad (PCBNEW 9.0.8-9.0.8~ubuntu24.04.1) date 2026-03-31 16:09:33*
%MOMM*%
%LPD*%
G01*
G04 APERTURE LIST*
G04 Aperture macros list*
%AMRoundRect*
0 Rectangle with rounded corners*
0 $1 Rounding radius*
0 $2 $3 $4 $5 $6 $7 $8 $9 X,Y pos of 4 corners*
0 Add a 4 corners polygon primitive as box body*
4,1,4,$2,$3,$4,$5,$6,$7,$8,$9,$2,$3,0*
0 Add four circle primitives for the rounded corners*
1,1,$1+$1,$2,$3*
1,1,$1+$1,$4,$5*
1,1,$1+$1,$6,$7*
1,1,$1+$1,$8,$9*
0 Add four rect primitives between the rounded corners*
20,1,$1+$1,$2,$3,$4,$5,0*
20,1,$1+$1,$4,$5,$6,$7,0*
20,1,$1+$1,$6,$7,$8,$9,0*
20,1,$1+$1,$8,$9,$2,$3,0*%
G04 Aperture macros list end*
%TA.AperFunction,ComponentPad*%
%ADD10RoundRect,0.250000X-0.350000X-0.625000X0.350000X-0.625000X0.350000X0.625000X-0.350000X0.625000X0*%
%TD*%
%TA.AperFunction,ComponentPad*%
%ADD11O,1.200000X1.750000*%
%TD*%
%TA.AperFunction,ComponentPad*%
%ADD12RoundRect,0.250000X0.600000X0.725000X-0.600000X0.725000X-0.600000X-0.725000X0.600000X-0.725000X0*%
%TD*%
%TA.AperFunction,ComponentPad*%
%ADD13O,1.700000X1.950000*%
%TD*%
%TA.AperFunction,ComponentPad*%
%ADD14C,1.400000*%
%TD*%
%TA.AperFunction,ComponentPad*%
%ADD15RoundRect,0.770000X-0.980000X-0.980000X0.980000X-0.980000X0.980000X0.980000X-0.980000X0.980000X0*%
%TD*%
%TA.AperFunction,ComponentPad*%
%ADD16C,3.500000*%
%TD*%
%TA.AperFunction,ComponentPad*%
%ADD17RoundRect,0.250000X-0.600000X-0.725000X0.600000X-0.725000X0.600000X0.725000X-0.600000X0.725000X0*%
%TD*%
%TA.AperFunction,ComponentPad*%
%ADD18C,6.400000*%
%TD*%
%TA.AperFunction,ComponentPad*%
%ADD19RoundRect,0.250000X0.625000X-0.350000X0.625000X0.350000X-0.625000X0.350000X-0.625000X-0.350000X0*%
%TD*%
%TA.AperFunction,ComponentPad*%
%ADD20O,1.750000X1.200000*%
%TD*%
%TA.AperFunction,ComponentPad*%
%ADD21C,0.762000*%
%TD*%
%TA.AperFunction,ComponentPad*%
%ADD22R,1.350000X1.350000*%
%TD*%
%TA.AperFunction,ComponentPad*%
%ADD23C,1.350000*%
%TD*%
%TA.AperFunction,ComponentPad*%
%ADD24RoundRect,0.250000X-0.725000X0.600000X-0.725000X-0.600000X0.725000X-0.600000X0.725000X0.600000X0*%
%TD*%
%TA.AperFunction,ComponentPad*%
%ADD25O,1.950000X1.700000*%
%TD*%
%TA.AperFunction,HeatsinkPad*%
%ADD26O,1.350000X1.700000*%
%TD*%
%TA.AperFunction,HeatsinkPad*%
%ADD27O,1.100000X1.500000*%
%TD*%
%TA.AperFunction,ViaPad*%
%ADD28C,0.600000*%
%TD*%
%TA.AperFunction,Conductor*%
%ADD29C,1.300000*%
%TD*%
%TA.AperFunction,Conductor*%
%ADD30C,0.200000*%
%TD*%
%TA.AperFunction,Conductor*%
%ADD31C,0.400000*%
%TD*%
%TA.AperFunction,Conductor*%
%ADD32C,0.762000*%
%TD*%
G04 APERTURE END LIST*
D10*
%TO.P,J2,1,Pin_1*%
%TO.N,GND*%
X132500000Y-73250000D03*
D11*
%TO.P,J2,2,Pin_2*%
%TO.N,GPIO1*%
X134500000Y-73250000D03*
%TO.P,J2,3,Pin_3*%
%TO.N,GPIO0*%
X136500000Y-73250000D03*
%TD*%
D12*
%TO.P,J10,1,Pin_1*%
%TO.N,Net-(J10-Pin_1)*%
X136900000Y-29800000D03*
D13*
%TO.P,J10,2,Pin_2*%
%TO.N,+5V*%
X134400000Y-29800000D03*
%TO.P,J10,3,Pin_3*%
%TO.N,GND*%
X131900000Y-29800000D03*
%TD*%
D14*
%TO.P,J9,*%
%TO.N,*%
X115700000Y-23475000D03*
X126700000Y-23475000D03*
D15*
%TO.P,J9,1,Pin_1*%
%TO.N,GND*%
X123700000Y-33475000D03*
D16*
%TO.P,J9,2,Pin_2*%
%TO.N,Net-(J9-Pin_2)*%
X118700000Y-33475000D03*
%TD*%
D12*
%TO.P,J8,1,Pin_1*%
%TO.N,Net-(J8-Pin_1)*%
X109400000Y-29500000D03*
D13*
%TO.P,J8,2,Pin_2*%
%TO.N,+5V*%
X106900000Y-29500000D03*
%TO.P,J8,3,Pin_3*%
%TO.N,GND*%
X104400000Y-29500000D03*
%TD*%
D17*
%TO.P,J5,1,Pin_1*%
%TO.N,Net-(J5-Pin_1)*%
X143250000Y-70255000D03*
D13*
%TO.P,J5,2,Pin_2*%
X145750000Y-70255000D03*
%TO.P,J5,3,Pin_3*%
%TO.N,Net-(J5-Pin_3)*%
X148250000Y-70255000D03*
%TO.P,J5,4,Pin_4*%
X150750000Y-70255000D03*
%TD*%
D18*
%TO.P,H2,1,1*%
%TO.N,GND*%
X84900000Y-24700000D03*
%TD*%
D19*
%TO.P,J3,1,Pin_1*%
%TO.N,GND*%
X168650000Y-69600000D03*
D20*
%TO.P,J3,2,Pin_2*%
%TO.N,+3V3*%
X168650000Y-67600000D03*
%TO.P,J3,3,Pin_3*%
%TO.N,GPIO5*%
X168650000Y-65600000D03*
%TO.P,J3,4,Pin_4*%
%TO.N,GPIO3*%
X168650000Y-63600000D03*
%TO.P,J3,5,Pin_5*%
%TO.N,GPIO6*%
X168650000Y-61600000D03*
%TD*%
D17*
%TO.P,J12,1,Pin_1*%
%TO.N,Net-(J12-Pin_1)*%
X118900000Y-70200000D03*
D13*
%TO.P,J12,2,Pin_2*%
X121400000Y-70200000D03*
%TO.P,J12,3,Pin_3*%
%TO.N,Net-(J12-Pin_3)*%
X123900000Y-70200000D03*
%TO.P,J12,4,Pin_4*%
X126400000Y-70200000D03*
%TD*%
D12*
%TO.P,J11,1,Pin_1*%
%TO.N,Net-(J11-Pin_1)*%
X97100000Y-29700000D03*
D13*
%TO.P,J11,2,Pin_2*%
%TO.N,+5V*%
X94600000Y-29700000D03*
%TO.P,J11,3,Pin_3*%
%TO.N,GND*%
X92100000Y-29700000D03*
%TD*%
D21*
%TO.P,SW2,4*%
%TO.N,N/C*%
X148300000Y-28900000D03*
%TD*%
D22*
%TO.P,J1,1,Pin_1*%
%TO.N,+5V*%
X172900000Y-56200000D03*
D23*
%TO.P,J1,2,Pin_2*%
X170900000Y-56200000D03*
%TO.P,J1,3,Pin_3*%
%TO.N,+3V3*%
X172900000Y-54200000D03*
%TO.P,J1,4,Pin_4*%
X170900000Y-54200000D03*
%TO.P,J1,5,Pin_5*%
%TO.N,GPIO15*%
X172900000Y-52200000D03*
%TO.P,J1,6,Pin_6*%
%TO.N,GPIO13*%
X170900000Y-52200000D03*
%TO.P,J1,7,Pin_7*%
%TO.N,GPIO17*%
X172900000Y-50200000D03*
%TO.P,J1,8,Pin_8*%
%TO.N,GPIO18*%
X170900000Y-50200000D03*
%TO.P,J1,9,Pin_9*%
%TO.N,GPIO19*%
X172900000Y-48200000D03*
%TO.P,J1,10,Pin_10*%
%TO.N,GPIO20*%
X170900000Y-48200000D03*
%TO.P,J1,11,Pin_11*%
%TO.N,GPIO21*%
X172900000Y-46200000D03*
%TO.P,J1,12,Pin_12*%
%TO.N,GPIO22*%
X170900000Y-46200000D03*
%TO.P,J1,13,Pin_13*%
%TO.N,GPIO23*%
X172900000Y-44200000D03*
%TO.P,J1,14,Pin_14*%
%TO.N,GPIO24*%
X170900000Y-44200000D03*
%TO.P,J1,15,Pin_15*%
%TO.N,GPIO25*%
X172900000Y-42200000D03*
%TO.P,J1,16,Pin_16*%
%TO.N,GPIO26*%
X170900000Y-42200000D03*
%TO.P,J1,17,Pin_17*%
%TO.N,GPIO27*%
X172900000Y-40200000D03*
%TO.P,J1,18,Pin_18*%
%TO.N,GPIO28*%
X170900000Y-40200000D03*
%TO.P,J1,19,Pin_19*%
%TO.N,GPIO29*%
X172900000Y-38200000D03*
%TO.P,J1,20,Pin_20*%
%TO.N,GND*%
X170900000Y-38200000D03*
%TO.P,J1,21,Pin_21*%
X172900000Y-36200000D03*
%TO.P,J1,22,Pin_22*%
X170900000Y-36200000D03*
%TD*%
D18*
%TO.P,H3,1,1*%
%TO.N,GND*%
X84900000Y-74700000D03*
%TD*%
%TO.P,H4,1,1*%
%TO.N,GND*%
X159900000Y-24700000D03*
%TD*%
%TO.P,H1,1,1*%
%TO.N,GND*%
X159900000Y-74700000D03*
%TD*%
D24*
%TO.P,J4,1,Pin_1*%
%TO.N,/Controlle_moteur/OA1*%
X77688600Y-53950046D03*
D25*
%TO.P,J4,2,Pin_2*%
%TO.N,/Controlle_moteur/OA2*%
X77688600Y-56450046D03*
%TO.P,J4,3,Pin_3*%
%TO.N,/Controlle_moteur/OB2*%
X77688600Y-58950046D03*
%TO.P,J4,4,Pin_4*%
%TO.N,/Controlle_moteur/OB1*%
X77688600Y-61450046D03*
%TD*%
D26*
%TO.P,J7,6,Shield*%
%TO.N,GND*%
X154555000Y-21485000D03*
D27*
X154245000Y-24485000D03*
X149405000Y-24485000D03*
D26*
X149095000Y-21485000D03*
%TD*%
D28*
%TO.N,+12V*%
X122400000Y-46500000D03*
X111128875Y-54371125D03*
X110500000Y-66500000D03*
%TO.N,GND*%
X126700000Y-55200000D03*
X154600000Y-39100000D03*
X150400000Y-58900000D03*
X139300000Y-67900000D03*
X75200000Y-74300000D03*
X99700000Y-51000000D03*
X167200000Y-52100000D03*
X153800000Y-38300000D03*
X82200000Y-57300000D03*
X113500000Y-69200000D03*
X135400000Y-38100000D03*
X137500000Y-38900000D03*
X77200000Y-31600000D03*
X140300000Y-49700000D03*
X99800000Y-54900000D03*
X84700000Y-57300000D03*
X122400000Y-63400000D03*
X150300000Y-41500000D03*
X94128200Y-57474949D03*
X144500000Y-49800000D03*
X165600000Y-36600000D03*
X93100000Y-49800000D03*
X98700000Y-63000000D03*
X81500000Y-62600000D03*
X155300000Y-35500000D03*
X72100000Y-73900000D03*
X122000000Y-56000000D03*
X79600000Y-60400000D03*
X139200000Y-54900000D03*
X103600000Y-48000000D03*
X95200000Y-57400000D03*
X80500000Y-60400000D03*
X111800000Y-45700000D03*
X161900000Y-46000000D03*
X165600000Y-55900000D03*
X166500000Y-42400000D03*
X112500000Y-28500000D03*
X83000000Y-57300000D03*
X79400000Y-56900000D03*
X163100000Y-50900000D03*
X95200000Y-59600000D03*
X162075000Y-55975000D03*
X141100000Y-39600000D03*
X140400000Y-30400000D03*
X129800000Y-49000000D03*
X123400000Y-61700000D03*
X145000000Y-56500000D03*
X103500000Y-64900000D03*
X148100000Y-62100000D03*
X147400000Y-66700000D03*
X114600000Y-43500000D03*
X122900000Y-65800000D03*
X165400000Y-57800000D03*
X146900000Y-63900000D03*
X79400000Y-58400000D03*
X82200000Y-54800000D03*
X146000000Y-49800000D03*
X123800000Y-65800000D03*
X139200000Y-49800000D03*
X160500000Y-44500000D03*
X95100000Y-55500000D03*
X128200000Y-56900000D03*
X93200000Y-59600000D03*
X146200000Y-54900000D03*
X162000000Y-32900000D03*
X125500000Y-57200000D03*
X156100000Y-36900000D03*
X167300000Y-50200000D03*
X160300000Y-35600000D03*
X99400000Y-36600000D03*
X139000000Y-56600000D03*
X131100000Y-43800000D03*
X162800000Y-46800000D03*
X168400000Y-52100000D03*
X147100000Y-59300000D03*
X151500000Y-50300000D03*
X134100000Y-49000000D03*
X81500000Y-57800000D03*
X164700000Y-64600000D03*
X139000000Y-32700000D03*
X133100000Y-35900000D03*
X123500000Y-54600000D03*
X135200000Y-55400000D03*
X107900000Y-72900000D03*
X80400000Y-62600000D03*
X160400000Y-47000000D03*
X166800000Y-34800000D03*
X127600000Y-29100000D03*
X123600000Y-59600000D03*
X84000000Y-31700000D03*
X172500000Y-59000000D03*
X140300000Y-44800000D03*
X79100000Y-31600000D03*
X137100000Y-37800000D03*
X96800000Y-49800000D03*
X130800000Y-68100000D03*
X164100000Y-52100000D03*
X172100000Y-61600000D03*
X147600000Y-41600000D03*
X94000000Y-61600000D03*
X81500000Y-56900000D03*
X83900000Y-34700000D03*
X152500000Y-31500000D03*
X161900000Y-46800000D03*
X146900000Y-62100000D03*
X131500000Y-49000000D03*
X169000000Y-47100000D03*
X148500000Y-66200000D03*
X139300000Y-58500000D03*
X133500000Y-55100000D03*
X141000000Y-38000000D03*
X91900000Y-66300000D03*
X162800000Y-46000000D03*
X148800000Y-44200000D03*
X161700000Y-37200000D03*
X93100000Y-55500000D03*
X79100000Y-57700000D03*
X86500000Y-66100000D03*
X130200000Y-59500000D03*
X123400000Y-63400000D03*
X100700000Y-73900000D03*
X85700000Y-57400000D03*
X131200000Y-60400000D03*
X77400000Y-34500000D03*
X94000000Y-44800000D03*
X79600000Y-51600000D03*
X165600000Y-52000000D03*
X79400000Y-34700000D03*
X121200000Y-50100000D03*
X148100000Y-58600000D03*
X151300000Y-49400000D03*
X94000000Y-53000000D03*
X93200000Y-57400000D03*
X94800000Y-39700000D03*
X164900000Y-62300000D03*
X166300000Y-37500000D03*
X138900000Y-43700000D03*
X90400000Y-72100000D03*
X163700000Y-34500000D03*
X131000000Y-41200000D03*
X153400000Y-41000000D03*
X77200000Y-51600000D03*
X168800000Y-34300000D03*
X144400000Y-54800000D03*
X149400000Y-57800000D03*
X167800000Y-55100000D03*
X91600000Y-63400000D03*
X148200000Y-63900000D03*
X122400000Y-61700000D03*
%TO.N,+5V*%
X153300000Y-26600000D03*
X103100000Y-44900000D03*
X115500000Y-52100000D03*
X145250000Y-34100000D03*
X144800000Y-31650000D03*
%TO.N,+3V3*%
X162800000Y-41800000D03*
X147600000Y-37050000D03*
X157000000Y-42800000D03*
X162700000Y-48800000D03*
X88000000Y-39400000D03*
X165174265Y-41974265D03*
X107500000Y-32000000D03*
X154300000Y-50300000D03*
X118900000Y-59200000D03*
X93300000Y-38500000D03*
X139425000Y-41300000D03*
X158600000Y-33600000D03*
X145300000Y-36400000D03*
X164724265Y-48724265D03*
X136800000Y-59700000D03*
X90700000Y-45900000D03*
%TO.N,GPIO15*%
X160800000Y-51900000D03*
%TO.N,GPIO9*%
X155818899Y-53523945D03*
X149947486Y-53221140D03*
X156100000Y-49000000D03*
X148175735Y-55075735D03*
%TO.N,GPIO10*%
X146600000Y-50650000D03*
X134900000Y-50700000D03*
X125700000Y-52700000D03*
X141700000Y-50800000D03*
%TO.N,GPIO11*%
X118000000Y-60900000D03*
X157925735Y-50225735D03*
X135650000Y-51400000D03*
X158200000Y-52800000D03*
%TO.N,GPIO2*%
X151000000Y-45200000D03*
X100457772Y-57515544D03*
X155080000Y-45187593D03*
X120400000Y-52400000D03*
X141200000Y-46891962D03*
X135380930Y-46753396D03*
X124043767Y-51470833D03*
X137413137Y-46891962D03*
%TO.N,GPIO13*%
X159800000Y-50900000D03*
%TO.N,GPIO12*%
X110300000Y-34200000D03*
X137000000Y-42700000D03*
%TO.N,GPIO1*%
X155107214Y-44388054D03*
X144615136Y-48164682D03*
X152815544Y-44357772D03*
%TO.N,GPIO0*%
X157413973Y-44062500D03*
X151200000Y-47500000D03*
X145300000Y-48900000D03*
%TO.N,GPIO5*%
X152613173Y-55886827D03*
X156298770Y-54164045D03*
X156710556Y-46225498D03*
%TO.N,GPIO3*%
X153463173Y-56736827D03*
X157095457Y-54091282D03*
X160100000Y-45600000D03*
%TO.N,GPIO7*%
X142600000Y-46000000D03*
X137300000Y-46100000D03*
X135650000Y-46000000D03*
X123949999Y-50676345D03*
X100100000Y-56800000D03*
X120200000Y-51600000D03*
X148000000Y-46600000D03*
X155300000Y-46800000D03*
%TO.N,/Controlle_moteur/OA1*%
X89100000Y-55800000D03*
%TO.N,/Controlle_moteur/OB1*%
X89200000Y-59100000D03*
%TO.N,/Controlle_moteur/OB2*%
X87900000Y-57800000D03*
%TO.N,/Controlle_moteur/OA2*%
X87400000Y-57100000D03*
%TO.N,Net-(U2-VREF)*%
X142900000Y-63300000D03*
X142600000Y-58100000D03*
%TO.N,/PSU/Ven*%
X116500000Y-52600000D03*
X112692525Y-49592525D03*
%TO.N,Net-(U11-VREF)*%
X118100000Y-62825000D03*
X119300673Y-57625673D03*
%TO.N,GPIO4*%
X124800000Y-52000000D03*
X139300000Y-47500000D03*
X120476381Y-53196348D03*
X155066380Y-45998495D03*
X149500000Y-46238436D03*
X100724671Y-58269711D03*
X143600000Y-47200000D03*
X135294717Y-47548739D03*
%TO.N,GPIO6*%
X154663173Y-57936827D03*
X157600002Y-53400000D03*
X157500000Y-46462500D03*
%TO.N,GPIO8*%
X151636827Y-54863173D03*
X155900000Y-48200000D03*
X148900000Y-55500000D03*
X155144975Y-53955025D03*
%TO.N,/Microcontroller/QSPI_SD2*%
X152600000Y-37900000D03*
X158000000Y-40300000D03*
%TO.N,/Microcontroller/QSPI_SD1*%
X151900000Y-36400000D03*
X154800000Y-37300000D03*
%TO.N,GPIO16*%
X101900000Y-30900000D03*
X164600000Y-51100000D03*
X154100000Y-34600000D03*
X156700000Y-31900000D03*
X145900000Y-44000000D03*
X141600000Y-44000000D03*
%TD*%
D29*
%TO.N,+12V*%
X122800000Y-52500000D02*
X122800000Y-46900000D01*
X110500000Y-66500000D02*
X110500000Y-64800000D01*
X122800000Y-46900000D02*
X122400000Y-46500000D01*
X110500000Y-64800000D02*
X122800000Y-52500000D01*
D30*
%TO.N,GND*%
X114000000Y-43500000D02*
X114600000Y-43500000D01*
X111800000Y-45700000D02*
X114000000Y-43500000D01*
D29*
%TO.N,+5V*%
X158900000Y-60500000D02*
X166600000Y-60500000D01*
X106900000Y-29500000D02*
X106900000Y-27475000D01*
D30*
X153300000Y-26600000D02*
X149500000Y-26600000D01*
X149500000Y-26600000D02*
X144800000Y-31300000D01*
D29*
X108075000Y-26300000D02*
X132800000Y-26300000D01*
X170900000Y-56200000D02*
X172900000Y-56200000D01*
D31*
X115500000Y-52100000D02*
X110300000Y-52100000D01*
D30*
X144800000Y-31300000D02*
X144800000Y-31650000D01*
D29*
X132800000Y-26300000D02*
X134400000Y-27900000D01*
X142800000Y-35800000D02*
X142800000Y-44400000D01*
X144500000Y-34100000D02*
X142800000Y-35800000D01*
X166600000Y-60500000D02*
X170900000Y-56200000D01*
X145250000Y-34100000D02*
X144500000Y-34100000D01*
D31*
X110300000Y-52100000D02*
X103100000Y-44900000D01*
D29*
X134400000Y-27900000D02*
X134400000Y-29800000D01*
X142800000Y-44400000D02*
X158900000Y-60500000D01*
X106900000Y-27475000D02*
X108075000Y-26300000D01*
D31*
%TO.N,+3V3*%
X118900000Y-59200000D02*
X121400000Y-59200000D01*
X159650000Y-59450000D02*
X166165076Y-59450000D01*
X136350000Y-44375000D02*
X139425000Y-41300000D01*
X173400000Y-54200000D02*
X174200000Y-55000000D01*
X135200000Y-58100000D02*
X136350000Y-59250000D01*
X90700000Y-45900000D02*
X88000000Y-43200000D01*
X158600000Y-39200000D02*
X158600000Y-33600000D01*
D32*
X158600000Y-33600000D02*
X148100000Y-33600000D01*
D31*
X166165076Y-59450000D02*
X169057538Y-56557538D01*
X93300000Y-38500000D02*
X92400000Y-39400000D01*
X172900000Y-54200000D02*
X173400000Y-54200000D01*
X107500000Y-32000000D02*
X99800000Y-32000000D01*
X160000000Y-40600000D02*
X158600000Y-39200000D01*
X162800000Y-41800000D02*
X160000000Y-41800000D01*
X169057538Y-56042462D02*
X170900000Y-54200000D01*
D32*
X148100000Y-33600000D02*
X145300000Y-36400000D01*
D31*
X92400000Y-39400000D02*
X88000000Y-39400000D01*
X154300000Y-54100000D02*
X159650000Y-59450000D01*
D30*
X162700000Y-48800000D02*
X164648530Y-48800000D01*
X164648530Y-48800000D02*
X164724265Y-48724265D01*
D31*
X162974265Y-41974265D02*
X162800000Y-41800000D01*
X154300000Y-50300000D02*
X154300000Y-54100000D01*
X88000000Y-43200000D02*
X88000000Y-39400000D01*
X136350000Y-59250000D02*
X136350000Y-44375000D01*
X159000000Y-42800000D02*
X157000000Y-42800000D01*
X174200000Y-62050000D02*
X168650000Y-67600000D01*
X160000000Y-41800000D02*
X160000000Y-40600000D01*
X169057538Y-56557538D02*
X169057538Y-56042462D01*
X165174265Y-41974265D02*
X162974265Y-41974265D01*
X122500000Y-58100000D02*
X135200000Y-58100000D01*
X160000000Y-41800000D02*
X159000000Y-42800000D01*
X99800000Y-32000000D02*
X93300000Y-38500000D01*
X136350000Y-59250000D02*
X136800000Y-59700000D01*
X121400000Y-59200000D02*
X122500000Y-58100000D01*
X174200000Y-55000000D02*
X174200000Y-62050000D01*
D30*
%TO.N,GPIO15*%
X169925000Y-52609314D02*
X169925000Y-51796141D01*
X170496141Y-51225000D02*
X171303859Y-51225000D01*
X171875000Y-51900000D02*
X172600000Y-51900000D01*
X162200000Y-53300000D02*
X169234314Y-53300000D01*
X172600000Y-51900000D02*
X172900000Y-52200000D01*
X171875000Y-51796141D02*
X171875000Y-51900000D01*
X160800000Y-51900000D02*
X162200000Y-53300000D01*
X171303859Y-51225000D02*
X171875000Y-51796141D01*
X169925000Y-51796141D02*
X170496141Y-51225000D01*
X169234314Y-53300000D02*
X169925000Y-52609314D01*
%TO.N,GPIO9*%
X155800000Y-53505046D02*
X155800000Y-49300000D01*
X155800000Y-49300000D02*
X156100000Y-49000000D01*
X148175735Y-55075735D02*
X148175735Y-54992891D01*
X155818899Y-53523945D02*
X155800000Y-53505046D01*
X148175735Y-54992891D02*
X149947486Y-53221140D01*
%TO.N,GPIO10*%
X141700000Y-50800000D02*
X146450000Y-50800000D01*
X125700000Y-52700000D02*
X127700000Y-50700000D01*
X127700000Y-50700000D02*
X134900000Y-50700000D01*
X146450000Y-50800000D02*
X146600000Y-50650000D01*
%TO.N,GPIO11*%
X118651471Y-58600000D02*
X120800000Y-58600000D01*
X128000000Y-51400000D02*
X135650000Y-51400000D01*
X158200000Y-52800000D02*
X158100000Y-52700000D01*
X118000000Y-59251471D02*
X118651471Y-58600000D01*
X118000000Y-60900000D02*
X118000000Y-59251471D01*
X158100000Y-50400000D02*
X157925735Y-50225735D01*
X158100000Y-52700000D02*
X158100000Y-50400000D01*
X120800000Y-58600000D02*
X128000000Y-51400000D01*
%TO.N,GPIO2*%
X100457772Y-57515544D02*
X115284456Y-57515544D01*
X124043767Y-51470833D02*
X128761204Y-46753396D01*
X128761204Y-46753396D02*
X135380930Y-46753396D01*
X155067593Y-45200000D02*
X155080000Y-45187593D01*
X115284456Y-57515544D02*
X120400000Y-52400000D01*
X151000000Y-45200000D02*
X155067593Y-45200000D01*
X141200000Y-46891962D02*
X137413137Y-46891962D01*
%TO.N,GPIO13*%
X161751471Y-53700000D02*
X169400000Y-53700000D01*
X169400000Y-53700000D02*
X170900000Y-52200000D01*
X159800000Y-50900000D02*
X159800000Y-51748529D01*
X159800000Y-51748529D02*
X161751471Y-53700000D01*
%TO.N,GPIO12*%
X128000000Y-34200000D02*
X136500000Y-42700000D01*
X136500000Y-42700000D02*
X137000000Y-42700000D01*
X123800000Y-29400000D02*
X128000000Y-33600000D01*
X128000000Y-33600000D02*
X128000000Y-34200000D01*
X110300000Y-34200000D02*
X115100000Y-29400000D01*
X115100000Y-29400000D02*
X123800000Y-29400000D01*
%TO.N,GPIO1*%
X138900000Y-48200000D02*
X137400000Y-49700000D01*
X144615136Y-48164682D02*
X144579818Y-48200000D01*
X152815544Y-44357772D02*
X155076932Y-44357772D01*
X144579818Y-48200000D02*
X138900000Y-48200000D01*
X155076932Y-44357772D02*
X155107214Y-44388054D01*
X137400000Y-49700000D02*
X137400000Y-70350000D01*
X137400000Y-70350000D02*
X134500000Y-73250000D01*
%TO.N,GPIO0*%
X137800000Y-49865686D02*
X137800000Y-71950000D01*
X155500000Y-47500000D02*
X156100000Y-46900000D01*
X156100000Y-46900000D02*
X156100000Y-45376473D01*
X138865686Y-48800000D02*
X137800000Y-49865686D01*
X137800000Y-71950000D02*
X136500000Y-73250000D01*
X144200000Y-48800000D02*
X138865686Y-48800000D01*
X145300000Y-48900000D02*
X144300000Y-48900000D01*
X144300000Y-48900000D02*
X144200000Y-48800000D01*
X156100000Y-45376473D02*
X157413973Y-44062500D01*
X151200000Y-47500000D02*
X155500000Y-47500000D01*
%TO.N,GPIO5*%
X156418899Y-54043916D02*
X156298770Y-54164045D01*
X156710556Y-46225498D02*
X156800000Y-46314942D01*
X152613173Y-58213173D02*
X152613173Y-55886827D01*
X168650000Y-65600000D02*
X160000000Y-65600000D01*
X156800000Y-49148529D02*
X156418899Y-49529630D01*
X156418899Y-49529630D02*
X156418899Y-54043916D01*
X160000000Y-65600000D02*
X152613173Y-58213173D01*
X156800000Y-46314942D02*
X156800000Y-49148529D01*
%TO.N,GPIO3*%
X153463173Y-58497487D02*
X153463173Y-56736827D01*
X168650000Y-63600000D02*
X158565686Y-63600000D01*
X159100000Y-46600000D02*
X160100000Y-45600000D01*
X158565686Y-63600000D02*
X153463173Y-58497487D01*
X159100000Y-52748529D02*
X159100000Y-46600000D01*
X157095457Y-54091282D02*
X157757247Y-54091282D01*
X157757247Y-54091282D02*
X159100000Y-52748529D01*
%TO.N,GPIO7*%
X155300000Y-46800000D02*
X155261564Y-46838436D01*
X115000000Y-56800000D02*
X120200000Y-51600000D01*
X148861564Y-46838436D02*
X148623128Y-46600000D01*
X100100000Y-56800000D02*
X115000000Y-56800000D01*
X142500000Y-46100000D02*
X142600000Y-46000000D01*
X123949999Y-50676345D02*
X128626344Y-46000000D01*
X128626344Y-46000000D02*
X135650000Y-46000000D01*
X137300000Y-46100000D02*
X142500000Y-46100000D01*
X148623128Y-46600000D02*
X148000000Y-46600000D01*
X155261564Y-46838436D02*
X148861564Y-46838436D01*
D31*
%TO.N,/Controlle_moteur/OA1*%
X87250046Y-53950046D02*
X77688600Y-53950046D01*
X89100000Y-55800000D02*
X87250046Y-53950046D01*
%TO.N,/Controlle_moteur/OB1*%
X86849954Y-61450046D02*
X77688600Y-61450046D01*
X89200000Y-59100000D02*
X86849954Y-61450046D01*
%TO.N,/Controlle_moteur/OB2*%
X78138554Y-59400000D02*
X77688600Y-58950046D01*
X86300000Y-59400000D02*
X78138554Y-59400000D01*
X87900000Y-57800000D02*
X86300000Y-59400000D01*
%TO.N,/Controlle_moteur/OA2*%
X86000000Y-55700000D02*
X78900000Y-55700000D01*
X78149954Y-56450046D02*
X77688600Y-56450046D01*
X78900000Y-55700000D02*
X78149954Y-56450046D01*
X87400000Y-57100000D02*
X86000000Y-55700000D01*
D30*
%TO.N,Net-(U2-VREF)*%
X142900000Y-58400000D02*
X142600000Y-58100000D01*
X142900000Y-63300000D02*
X142900000Y-58400000D01*
%TO.N,/PSU/Ven*%
X116500000Y-52600000D02*
X116500000Y-50100000D01*
X116500000Y-50100000D02*
X115992525Y-49592525D01*
X115992525Y-49592525D02*
X112692525Y-49592525D01*
%TO.N,Net-(U11-VREF)*%
X117200000Y-59443502D02*
X117200000Y-61925000D01*
X119300673Y-57625673D02*
X119017829Y-57625673D01*
X119017829Y-57625673D02*
X117200000Y-59443502D01*
X117200000Y-61925000D02*
X118100000Y-62825000D01*
%TO.N,GPIO4*%
X154826439Y-46238436D02*
X155066380Y-45998495D01*
X129251261Y-47548739D02*
X135294717Y-47548739D01*
X115403018Y-58269711D02*
X120476381Y-53196348D01*
X143300000Y-47500000D02*
X143600000Y-47200000D01*
X124800000Y-52000000D02*
X129251261Y-47548739D01*
X100724671Y-58269711D02*
X115403018Y-58269711D01*
X139300000Y-47500000D02*
X143300000Y-47500000D01*
X149500000Y-46238436D02*
X154826439Y-46238436D01*
%TO.N,GPIO6*%
X157600002Y-53400000D02*
X157300000Y-53099998D01*
X168650000Y-61600000D02*
X158326346Y-61600000D01*
X158326346Y-61600000D02*
X154663173Y-57936827D01*
X157300000Y-46662500D02*
X157500000Y-46462500D01*
X157300000Y-53099998D02*
X157300000Y-46662500D01*
%TO.N,GPIO8*%
X155200000Y-53900000D02*
X155200000Y-49000000D01*
X151000000Y-55500000D02*
X148900000Y-55500000D01*
X155144975Y-53955025D02*
X155200000Y-53900000D01*
X155900000Y-48300000D02*
X155900000Y-48200000D01*
X151636827Y-54863173D02*
X151000000Y-55500000D01*
X155200000Y-49000000D02*
X155900000Y-48300000D01*
%TO.N,/Microcontroller/QSPI_SD2*%
X152600000Y-38600000D02*
X154300000Y-40300000D01*
X154300000Y-40300000D02*
X158000000Y-40300000D01*
X152600000Y-37900000D02*
X152600000Y-38600000D01*
%TO.N,/Microcontroller/QSPI_SD1*%
X154800000Y-37300000D02*
X153900000Y-36400000D01*
X153900000Y-36400000D02*
X151900000Y-36400000D01*
%TO.N,GPIO16*%
X156700000Y-31900000D02*
X162200000Y-31900000D01*
X124300000Y-29000000D02*
X136000000Y-40700000D01*
X162200000Y-31900000D02*
X167600000Y-37300000D01*
X167600000Y-48100000D02*
X164600000Y-51100000D01*
X114934315Y-29000000D02*
X124300000Y-29000000D01*
X101900000Y-30900000D02*
X113034314Y-30900000D01*
X145900000Y-44000000D02*
X145900000Y-41500000D01*
X139673529Y-40700000D02*
X141600000Y-42626471D01*
X113034314Y-30900000D02*
X114934315Y-29000000D01*
X141600000Y-42626471D02*
X141600000Y-44000000D01*
X167600000Y-37300000D02*
X167600000Y-48100000D01*
X136000000Y-40700000D02*
X139673529Y-40700000D01*
X152800000Y-34600000D02*
X154100000Y-34600000D01*
X145900000Y-41500000D02*
X152800000Y-34600000D01*
%TD*%
%TA.AperFunction,Conductor*%
%TO.N,GND*%
G36*
X85725520Y-56420185D02*
G01*
X85746162Y-56436819D01*
X86603928Y-57294585D01*
X86630808Y-57334814D01*
X86690602Y-57479172D01*
X86690609Y-57479185D01*
X86778210Y-57610288D01*
X86778213Y-57610292D01*
X86850950Y-57683029D01*
X86884435Y-57744352D01*
X86879451Y-57814044D01*
X86850950Y-57858391D01*
X86046162Y-58663181D01*
X85984839Y-58696666D01*
X85958481Y-58699500D01*
X79242284Y-58699500D01*
X79175245Y-58679815D01*
X79129490Y-58627011D01*
X79124353Y-58613819D01*
X79090423Y-58509394D01*
X79065157Y-58431634D01*
X79065155Y-58431631D01*
X79065155Y-58431629D01*
X78991903Y-58287865D01*
X78968651Y-58242230D01*
X78968649Y-58242227D01*
X78968648Y-58242225D01*
X78843709Y-58070259D01*
X78693392Y-57919942D01*
X78658671Y-57894716D01*
X78528804Y-57800362D01*
X78486140Y-57745035D01*
X78480161Y-57675422D01*
X78512766Y-57613626D01*
X78528799Y-57599732D01*
X78693392Y-57480150D01*
X78843704Y-57329838D01*
X78843706Y-57329834D01*
X78843709Y-57329832D01*
X78968648Y-57157866D01*
X78968647Y-57157866D01*
X78968651Y-57157862D01*
X79065157Y-56968458D01*
X79130846Y-56766289D01*
X79164100Y-56556333D01*
X79164100Y-56524500D01*
X79183785Y-56457461D01*
X79236589Y-56411706D01*
X79288100Y-56400500D01*
X85658481Y-56400500D01*
X85725520Y-56420185D01*
G37*
%TD.AperFunction*%
%TA.AperFunction,Conductor*%
G36*
X148164682Y-20306738D02*
G01*
X148186771Y-20308318D01*
X148197554Y-20316390D01*
X148210476Y-20320185D01*
X148224975Y-20336918D01*
X148242704Y-20350190D01*
X148247411Y-20362810D01*
X148256231Y-20372989D01*
X148259382Y-20394906D01*
X148267121Y-20415654D01*
X148264258Y-20428814D01*
X148266175Y-20442147D01*
X148256975Y-20462290D01*
X148252269Y-20483927D01*
X148239000Y-20501652D01*
X148237150Y-20505703D01*
X148231118Y-20512181D01*
X148198758Y-20544540D01*
X148198754Y-20544545D01*
X148090052Y-20694162D01*
X148006084Y-20858956D01*
X148006083Y-20858959D01*
X147948933Y-21034852D01*
X147920000Y-21217526D01*
X147920000Y-21235000D01*
X148745000Y-21235000D01*
X148745000Y-21735000D01*
X147920000Y-21735000D01*
X147920000Y-21752473D01*
X147948933Y-21935147D01*
X148006083Y-22111040D01*
X148006084Y-22111043D01*
X148090052Y-22275837D01*
X148198754Y-22425454D01*
X148198758Y-22425459D01*
X148329540Y-22556241D01*
X148329545Y-22556245D01*
X148479162Y-22664947D01*
X148643956Y-22748915D01*
X148643959Y-22748916D01*
X148819845Y-22806064D01*
X148819858Y-22806067D01*
X148845000Y-22810049D01*
X148845000Y-21979975D01*
X148880095Y-22015070D01*
X148959905Y-22061148D01*
X149048922Y-22085000D01*
X149141078Y-22085000D01*
X149230095Y-22061148D01*
X149309905Y-22015070D01*
X149345000Y-21979975D01*
X149345000Y-22810048D01*
X149370141Y-22806067D01*
X149370154Y-22806064D01*
X149546040Y-22748916D01*
X149546043Y-22748915D01*
X149710837Y-22664947D01*
X149860454Y-22556245D01*
X149860459Y-22556241D01*
X149991241Y-22425459D01*
X149991245Y-22425454D01*
X150099947Y-22275837D01*
X150183915Y-22111043D01*
X150183916Y-22111040D01*
X150241066Y-21935147D01*
X150270000Y-21752473D01*
X150270000Y-21735000D01*
X149445000Y-21735000D01*
X149445000Y-21235000D01*
X150270000Y-21235000D01*
X150270000Y-21217526D01*
X150241066Y-21034852D01*
X150183916Y-20858959D01*
X150183915Y-20858956D01*
X150099947Y-20694162D01*
X149991245Y-20544545D01*
X149991241Y-20544540D01*
X149958882Y-20512181D01*
X149925397Y-20450858D01*
X149930381Y-20381166D01*
X149972253Y-20325233D01*
X150037717Y-20300816D01*
X150046563Y-20300500D01*
X153603437Y-20300500D01*
X153670476Y-20320185D01*
X153716231Y-20372989D01*
X153726175Y-20442147D01*
X153697150Y-20505703D01*
X153691118Y-20512181D01*
X153658758Y-20544540D01*
X153658754Y-20544545D01*
X153550052Y-20694162D01*
X153466084Y-20858956D01*
X153466083Y-20858959D01*
X153408933Y-21034852D01*
X153380000Y-21217526D01*
X153380000Y-21235000D01*
X154205000Y-21235000D01*
X154205000Y-21735000D01*
X153380000Y-21735000D01*
X153380000Y-21752473D01*
X153408933Y-21935147D01*
X153466083Y-22111040D01*
X153466084Y-22111043D01*
X153550052Y-22275837D01*
X153658754Y-22425454D01*
X153658758Y-22425459D01*
X153789540Y-22556241D01*
X153789545Y-22556245D01*
X153939162Y-22664947D01*
X154103956Y-22748915D01*
X154103959Y-22748916D01*
X154279845Y-22806064D01*
X154279858Y-22806067D01*
X154305000Y-22810049D01*
X154305000Y-21979975D01*
X154340095Y-22015070D01*
X154419905Y-22061148D01*
X154508922Y-22085000D01*
X154601078Y-22085000D01*
X154690095Y-22061148D01*
X154769905Y-22015070D01*
X154805000Y-21979975D01*
X154805000Y-22810048D01*
X154830141Y-22806067D01*
X154830154Y-22806064D01*
X155006040Y-22748916D01*
X155006043Y-22748915D01*
X155170837Y-22664947D01*
X155320454Y-22556245D01*
X155320459Y-22556241D01*
X155451241Y-22425459D01*
X155451245Y-22425454D01*
X155559947Y-22275837D01*
X155643915Y-22111043D01*
X155643916Y-22111040D01*
X155701066Y-21935147D01*
X155730000Y-21752473D01*
X155730000Y-21735000D01*
X154905000Y-21735000D01*
X154905000Y-21235000D01*
X155730000Y-21235000D01*
X155730000Y-21217526D01*
X155701066Y-21034852D01*
X155643916Y-20858959D01*
X155643915Y-20858956D01*
X155559947Y-20694162D01*
X155451245Y-20544545D01*
X155451241Y-20544540D01*
X155418882Y-20512181D01*
X155385397Y-20450858D01*
X155390381Y-20381166D01*
X155432253Y-20325233D01*
X155497717Y-20300816D01*
X155506563Y-20300500D01*
X174625500Y-20300500D01*
X174692539Y-20320185D01*
X174738294Y-20372989D01*
X174749500Y-20424500D01*
X174749500Y-54259480D01*
X174729815Y-54326519D01*
X174677011Y-54372274D01*
X174607853Y-54382218D01*
X174544297Y-54353193D01*
X174537819Y-54347161D01*
X174034474Y-53843817D01*
X174004224Y-53794453D01*
X173989381Y-53748770D01*
X173989379Y-53748764D01*
X173914287Y-53601389D01*
X173905378Y-53583904D01*
X173796621Y-53434213D01*
X173665787Y-53303379D01*
X173661576Y-53300319D01*
X173618909Y-53244994D01*
X173612926Y-53175381D01*
X173645529Y-53113585D01*
X173661570Y-53099684D01*
X173665787Y-53096621D01*
X173796621Y-52965787D01*
X173905378Y-52816096D01*
X173989379Y-52651235D01*
X174046555Y-52475264D01*
X174075500Y-52292514D01*
X174075500Y-52107486D01*
X174046555Y-51924736D01*
X174009079Y-51809397D01*
X173989380Y-51748767D01*
X173989379Y-51748764D01*
X173913834Y-51600500D01*
X173905378Y-51583904D01*
X173796621Y-51434213D01*
X173665787Y-51303379D01*
X173661576Y-51300319D01*
X173618909Y-51244994D01*
X173612926Y-51175381D01*
X173645529Y-51113585D01*
X173661570Y-51099684D01*
X173665787Y-51096621D01*
X173796621Y-50965787D01*
X173905378Y-50816096D01*
X173989379Y-50651235D01*
X174046555Y-50475264D01*
X174075500Y-50292514D01*
X174075500Y-50107486D01*
X174046555Y-49924736D01*
X173989379Y-49748765D01*
X173989379Y-49748764D01*
X173946577Y-49664763D01*
X173905378Y-49583904D01*
X173796621Y-49434213D01*
X173665787Y-49303379D01*
X173661576Y-49300319D01*
X173618909Y-49244994D01*
X173612926Y-49175381D01*
X173645529Y-49113585D01*
X173661570Y-49099684D01*
X173665787Y-49096621D01*
X173796621Y-48965787D01*
X173905378Y-48816096D01*
X173989379Y-48651235D01*
X174046555Y-48475264D01*
X174075500Y-48292514D01*
X174075500Y-48107486D01*
X174046555Y-47924736D01*
X174017967Y-47836750D01*
X173989380Y-47748767D01*
X173989379Y-47748764D01*
X173917761Y-47608207D01*
X173905378Y-47583904D01*
X173796621Y-47434213D01*
X173665787Y-47303379D01*
X173661576Y-47300319D01*
X173618909Y-47244994D01*
X173612926Y-47175381D01*
X173645529Y-47113585D01*
X173661570Y-47099684D01*
X173665787Y-47096621D01*
X173796621Y-46965787D01*
X173905378Y-46816096D01*
X173989379Y-46651235D01*
X174046555Y-46475264D01*
X174075500Y-46292514D01*
X174075500Y-46107486D01*
X174046555Y-45924736D01*
X174005864Y-45799500D01*
X173989380Y-45748767D01*
X173989379Y-45748764D01*
X173932909Y-45637936D01*
X173905378Y-45583904D01*
X173796621Y-45434213D01*
X173665787Y-45303379D01*
X173661576Y-45300319D01*
X173618909Y-45244994D01*
X173612926Y-45175381D01*
X173645529Y-45113585D01*
X173661570Y-45099684D01*
X173665787Y-45096621D01*
X173796621Y-44965787D01*
X173905378Y-44816096D01*
X173989379Y-44651235D01*
X174046555Y-44475264D01*
X174075500Y-44292514D01*
X174075500Y-44107486D01*
X174046555Y-43924736D01*
X173995145Y-43766510D01*
X173989380Y-43748767D01*
X173989379Y-43748764D01*
X173937294Y-43646543D01*
X173905378Y-43583904D01*
X173796621Y-43434213D01*
X173665787Y-43303379D01*
X173661576Y-43300319D01*
X173618909Y-43244994D01*
X173612926Y-43175381D01*
X173645529Y-43113585D01*
X173661570Y-43099684D01*
X173665787Y-43096621D01*
X173796621Y-42965787D01*
X173905378Y-42816096D01*
X173989379Y-42651235D01*
X174046555Y-42475264D01*
X174075500Y-42292514D01*
X174075500Y-42107486D01*
X174046555Y-41924736D01*
X173989379Y-41748765D01*
X173989379Y-41748764D01*
X173934046Y-41640168D01*
X173905378Y-41583904D01*
X173796621Y-41434213D01*
X173665787Y-41303379D01*
X173661576Y-41300319D01*
X173618909Y-41244994D01*
X173612926Y-41175381D01*
X173645529Y-41113585D01*
X173661570Y-41099684D01*
X173665787Y-41096621D01*
X173796621Y-40965787D01*
X173905378Y-40816096D01*
X173989379Y-40651235D01*
X174046555Y-40475264D01*
X174075500Y-40292514D01*
X174075500Y-40107486D01*
X174046555Y-39924736D01*
X173989379Y-39748765D01*
X173989379Y-39748764D01*
X173908794Y-39590609D01*
X173905378Y-39583904D01*
X173796621Y-39434213D01*
X173665787Y-39303379D01*
X173661576Y-39300319D01*
X173618909Y-39244994D01*
X173612926Y-39175381D01*
X173645529Y-39113585D01*
X173661570Y-39099684D01*
X173665787Y-39096621D01*
X173796621Y-38965787D01*
X173905378Y-38816096D01*
X173989379Y-38651235D01*
X174046555Y-38475264D01*
X174075500Y-38292514D01*
X174075500Y-38107486D01*
X174046555Y-37924736D01*
X173992833Y-37759394D01*
X173989380Y-37748767D01*
X173989379Y-37748764D01*
X173946577Y-37664763D01*
X173905378Y-37583904D01*
X173796621Y-37434213D01*
X173665787Y-37303379D01*
X173665786Y-37303378D01*
X173591165Y-37249162D01*
X173576190Y-37229742D01*
X172946448Y-36600000D01*
X172952661Y-36600000D01*
X173054394Y-36572741D01*
X173145606Y-36520080D01*
X173220080Y-36445606D01*
X173272741Y-36354394D01*
X173300000Y-36252661D01*
X173300000Y-36246447D01*
X173889983Y-36836430D01*
X173889984Y-36836430D01*
X173904942Y-36815845D01*
X173904947Y-36815836D01*
X173988915Y-36651043D01*
X173988916Y-36651040D01*
X174046066Y-36475147D01*
X174075000Y-36292473D01*
X174075000Y-36107526D01*
X174046066Y-35924852D01*
X173988916Y-35748959D01*
X173988915Y-35748956D01*
X173904949Y-35584165D01*
X173889983Y-35563568D01*
X173300000Y-36153551D01*
X173300000Y-36147339D01*
X173272741Y-36045606D01*
X173220080Y-35954394D01*
X173145606Y-35879920D01*
X173054394Y-35827259D01*
X172952661Y-35800000D01*
X172946447Y-35800000D01*
X173536431Y-35210016D01*
X173536430Y-35210015D01*
X173515834Y-35195050D01*
X173351043Y-35111084D01*
X173351040Y-35111083D01*
X173175147Y-35053933D01*
X172992473Y-35025000D01*
X172807527Y-35025000D01*
X172624852Y-35053933D01*
X172448959Y-35111083D01*
X172448956Y-35111084D01*
X172284167Y-35195049D01*
X172263568Y-35210015D01*
X172853554Y-35800000D01*
X172847339Y-35800000D01*
X172745606Y-35827259D01*
X172654394Y-35879920D01*
X172579920Y-35954394D01*
X172527259Y-36045606D01*
X172500000Y-36147339D01*
X172500000Y-36153552D01*
X171910014Y-35563566D01*
X171909730Y-35563589D01*
X171890270Y-35563589D01*
X171889985Y-35563566D01*
X171300000Y-36153551D01*
X171300000Y-36147339D01*
X171272741Y-36045606D01*
X171220080Y-35954394D01*
X171145606Y-35879920D01*
X171054394Y-35827259D01*
X170952661Y-35800000D01*
X170946447Y-35800000D01*
X171536431Y-35210015D01*
X171515834Y-35195050D01*
X171351043Y-35111084D01*
X171351040Y-35111083D01*
X171175147Y-35053933D01*
X170992473Y-35025000D01*
X170807527Y-35025000D01*
X170624852Y-35053933D01*
X170448959Y-35111083D01*
X170448956Y-35111084D01*
X170284167Y-35195049D01*
X170263568Y-35210015D01*
X170853554Y-35800000D01*
X170847339Y-35800000D01*
X170745606Y-35827259D01*
X170654394Y-35879920D01*
X170579920Y-35954394D01*
X170527259Y-36045606D01*
X170500000Y-36147339D01*
X170500000Y-36153553D01*
X169910015Y-35563568D01*
X169895049Y-35584167D01*
X169811084Y-35748956D01*
X169811083Y-35748959D01*
X169753933Y-35924852D01*
X169725000Y-36107526D01*
X169725000Y-36292473D01*
X169753933Y-36475147D01*
X169811083Y-36651040D01*
X169811084Y-36651043D01*
X169895050Y-36815834D01*
X169910015Y-36836430D01*
X169910016Y-36836431D01*
X170500000Y-36246447D01*
X170500000Y-36252661D01*
X170527259Y-36354394D01*
X170579920Y-36445606D01*
X170654394Y-36520080D01*
X170745606Y-36572741D01*
X170847339Y-36600000D01*
X170853553Y-36600000D01*
X170263566Y-37189985D01*
X170263589Y-37190270D01*
X170263589Y-37209730D01*
X170263566Y-37210014D01*
X170853554Y-37800000D01*
X170847339Y-37800000D01*
X170745606Y-37827259D01*
X170654394Y-37879920D01*
X170579920Y-37954394D01*
X170527259Y-38045606D01*
X170500000Y-38147339D01*
X170500000Y-38153553D01*
X169910015Y-37563568D01*
X169895049Y-37584167D01*
X169811084Y-37748956D01*
X169811083Y-37748959D01*
X169753933Y-37924852D01*
X169725000Y-38107526D01*
X169725000Y-38292473D01*
X169753933Y-38475147D01*
X169811083Y-38651040D01*
X169811084Y-38651043D01*
X169895050Y-38815834D01*
X169910015Y-38836430D01*
X169910016Y-38836431D01*
X170500000Y-38246447D01*
X170500000Y-38252661D01*
X170527259Y-38354394D01*
X170579920Y-38445606D01*
X170654394Y-38520080D01*
X170745606Y-38572741D01*
X170847339Y-38600000D01*
X170853553Y-38600000D01*
X170239355Y-39214196D01*
X170208833Y-39249163D01*
X170134213Y-39303378D01*
X170003381Y-39434210D01*
X170003381Y-39434211D01*
X170003379Y-39434213D01*
X169970954Y-39478842D01*
X169894622Y-39583903D01*
X169810620Y-39748764D01*
X169810619Y-39748767D01*
X169753445Y-39924734D01*
X169724500Y-40107486D01*
X169724500Y-40292513D01*
X169753445Y-40475265D01*
X169810619Y-40651232D01*
X169810620Y-40651235D01*
X169876495Y-40780520D01*
X169894622Y-40816096D01*
X170003379Y-40965787D01*
X170134213Y-41096621D01*
X170138176Y-41099500D01*
X170138432Y-41099686D01*
X170181094Y-41155019D01*
X170187069Y-41224633D01*
X170154459Y-41286426D01*
X170138434Y-41300312D01*
X170137741Y-41300816D01*
X170134210Y-41303381D01*
X170003381Y-41434210D01*
X170003381Y-41434211D01*
X170003379Y-41434213D01*
X169969318Y-41481094D01*
X169894622Y-41583903D01*
X169810620Y-41748764D01*
X169810619Y-41748767D01*
X169753445Y-41924734D01*
X169724500Y-42107486D01*
X169724500Y-42292513D01*
X169753445Y-42475265D01*
X169810619Y-42651232D01*
X169810620Y-42651235D01*
X169873562Y-42774764D01*
X169894622Y-42816096D01*
X170003379Y-42965787D01*
X170134213Y-43096621D01*
X170138421Y-43099678D01*
X170138432Y-43099686D01*
X170181094Y-43155019D01*
X170187069Y-43224633D01*
X170154459Y-43286426D01*
X170138432Y-43300314D01*
X170134210Y-43303381D01*
X170003381Y-43434210D01*
X170003381Y-43434211D01*
X170003379Y-43434213D01*
X169969318Y-43481094D01*
X169894622Y-43583903D01*
X169810620Y-43748764D01*
X169810619Y-43748767D01*
X169753445Y-43924734D01*
X169739344Y-44013765D01*
X169724500Y-44107486D01*
X169724500Y-44292514D01*
X169725052Y-44295997D01*
X169753445Y-44475265D01*
X169810619Y-44651232D01*
X169810620Y-44651235D01*
X169843884Y-44716518D01*
X169894622Y-44816096D01*
X170003379Y-44965787D01*
X170134213Y-45096621D01*
X170138421Y-45099678D01*
X170138432Y-45099686D01*
X170181094Y-45155019D01*
X170187069Y-45224633D01*
X170154459Y-45286426D01*
X170138432Y-45300314D01*
X170134210Y-45303381D01*
X170003381Y-45434210D01*
X170003381Y-45434211D01*
X170003379Y-45434213D01*
X169970247Y-45479815D01*
X169894622Y-45583903D01*
X169810620Y-45748764D01*
X169810619Y-45748767D01*
X169753445Y-45924734D01*
X169728327Y-46083321D01*
X169724500Y-46107486D01*
X169724500Y-46292514D01*
X169726268Y-46303675D01*
X169753445Y-46475265D01*
X169810619Y-46651232D01*
X169810620Y-46651235D01*
X169870834Y-46769410D01*
X169894622Y-46816096D01*
X170003379Y-46965787D01*
X170134213Y-47096621D01*
X170138421Y-47099678D01*
X170138432Y-47099686D01*
X170181094Y-47155019D01*
X170187069Y-47224633D01*
X170154459Y-47286426D01*
X170138432Y-47300314D01*
X170134210Y-47303381D01*
X170003381Y-47434210D01*
X170003381Y-47434211D01*
X170003379Y-47434213D01*
X169969318Y-47481094D01*
X169894622Y-47583903D01*
X169810620Y-47748764D01*
X169810619Y-47748767D01*
X169753445Y-47924734D01*
X169724500Y-48107486D01*
X169724500Y-48292513D01*
X169753445Y-48475265D01*
X169810619Y-48651232D01*
X169810620Y-48651235D01*
X169870224Y-48768213D01*
X169894622Y-48816096D01*
X170003379Y-48965787D01*
X170134213Y-49096621D01*
X170138421Y-49099678D01*
X170138432Y-49099686D01*
X170181094Y-49155019D01*
X170187069Y-49224633D01*
X170154459Y-49286426D01*
X170138432Y-49300314D01*
X170134210Y-49303381D01*
X170003381Y-49434210D01*
X170003381Y-49434211D01*
X170003379Y-49434213D01*
X169974303Y-49474233D01*
X169894622Y-49583903D01*
X169810620Y-49748764D01*
X169810619Y-49748767D01*
X169753445Y-49924734D01*
X169725114Y-50103609D01*
X169724500Y-50107486D01*
X169724500Y-50292514D01*
X169730479Y-50330261D01*
X169753445Y-50475265D01*
X169810619Y-50651232D01*
X169810620Y-50651235D01*
X169848367Y-50725316D01*
X169890699Y-50808397D01*
X169894623Y-50816097D01*
X169900202Y-50823777D01*
X169923680Y-50889584D01*
X169907853Y-50957637D01*
X169887563Y-50984341D01*
X169556286Y-51315619D01*
X169444481Y-51427423D01*
X169444475Y-51427431D01*
X169405625Y-51494723D01*
X169405625Y-51494724D01*
X169365423Y-51564356D01*
X169324499Y-51717084D01*
X169324499Y-51717086D01*
X169324499Y-51885187D01*
X169324500Y-51885200D01*
X169324500Y-52309216D01*
X169304815Y-52376255D01*
X169288181Y-52396897D01*
X169021898Y-52663181D01*
X168960575Y-52696666D01*
X168934217Y-52699500D01*
X162500097Y-52699500D01*
X162433058Y-52679815D01*
X162412416Y-52663181D01*
X161634574Y-51885339D01*
X161601089Y-51824016D01*
X161600638Y-51821849D01*
X161580734Y-51721789D01*
X161569737Y-51666503D01*
X161542398Y-51600500D01*
X161509397Y-51520827D01*
X161509390Y-51520814D01*
X161421789Y-51389711D01*
X161421786Y-51389707D01*
X161310292Y-51278213D01*
X161310288Y-51278210D01*
X161179185Y-51190609D01*
X161179172Y-51190602D01*
X161033501Y-51130264D01*
X161033489Y-51130261D01*
X160878845Y-51099500D01*
X160878842Y-51099500D01*
X160724500Y-51099500D01*
X160657461Y-51079815D01*
X160611706Y-51027011D01*
X160600500Y-50975500D01*
X160600500Y-50821155D01*
X160600499Y-50821153D01*
X160582137Y-50728842D01*
X160569737Y-50666503D01*
X160537929Y-50589711D01*
X160509397Y-50520827D01*
X160509390Y-50520814D01*
X160421789Y-50389711D01*
X160421786Y-50389707D01*
X160310292Y-50278213D01*
X160310288Y-50278210D01*
X160179185Y-50190609D01*
X160179172Y-50190602D01*
X160033501Y-50130264D01*
X160033489Y-50130261D01*
X159878845Y-50099500D01*
X159878842Y-50099500D01*
X159824500Y-50099500D01*
X159757461Y-50079815D01*
X159711706Y-50027011D01*
X159700500Y-49975500D01*
X159700500Y-46900097D01*
X159720185Y-46833058D01*
X159736819Y-46812416D01*
X159918646Y-46630589D01*
X160114665Y-46434570D01*
X160175984Y-46401088D01*
X160178151Y-46400637D01*
X160178840Y-46400500D01*
X160178842Y-46400500D01*
X160333497Y-46369737D01*
X160479179Y-46309394D01*
X160610289Y-46221789D01*
X160721789Y-46110289D01*
X160809394Y-45979179D01*
X160809634Y-45978601D01*
X160843431Y-45897005D01*
X160869737Y-45833497D01*
X160900500Y-45678842D01*
X160900500Y-45521158D01*
X160900500Y-45521155D01*
X160900499Y-45521153D01*
X160892796Y-45482430D01*
X160869737Y-45366503D01*
X160858196Y-45338640D01*
X160809397Y-45220827D01*
X160809390Y-45220814D01*
X160721789Y-45089711D01*
X160721786Y-45089707D01*
X160610292Y-44978213D01*
X160610288Y-44978210D01*
X160479185Y-44890609D01*
X160479172Y-44890602D01*
X160333501Y-44830264D01*
X160333489Y-44830261D01*
X160178845Y-44799500D01*
X160178842Y-44799500D01*
X160021158Y-44799500D01*
X160021155Y-44799500D01*
X159866510Y-44830261D01*
X159866498Y-44830264D01*
X159720827Y-44890602D01*
X159720814Y-44890609D01*
X159589711Y-44978210D01*
X159589707Y-44978213D01*
X159478213Y-45089707D01*
X159478210Y-45089711D01*
X159390609Y-45220814D01*
X159390602Y-45220827D01*
X159330264Y-45366498D01*
X159330261Y-45366508D01*
X159299362Y-45521848D01*
X159266977Y-45583759D01*
X159265426Y-45585337D01*
X158731286Y-46119478D01*
X158619481Y-46231282D01*
X158619479Y-46231285D01*
X158581536Y-46297006D01*
X158575984Y-46306622D01*
X158540423Y-46368215D01*
X158535269Y-46387448D01*
X158529454Y-46398934D01*
X158513989Y-46415391D01*
X158502233Y-46434678D01*
X158490522Y-46440366D01*
X158481609Y-46449852D01*
X158459702Y-46455336D01*
X158439385Y-46465205D01*
X158426457Y-46463658D01*
X158413831Y-46466820D01*
X158392437Y-46459590D01*
X158370009Y-46456908D01*
X158359969Y-46448618D01*
X158347639Y-46444451D01*
X158333548Y-46426801D01*
X158316133Y-46412420D01*
X158309620Y-46396826D01*
X158304048Y-46389847D01*
X158303179Y-46381407D01*
X158297209Y-46367112D01*
X158270191Y-46231285D01*
X158269737Y-46229003D01*
X158266748Y-46221786D01*
X158209397Y-46083327D01*
X158209390Y-46083314D01*
X158121789Y-45952211D01*
X158121786Y-45952207D01*
X158010292Y-45840713D01*
X158010288Y-45840710D01*
X157879185Y-45753109D01*
X157879172Y-45753102D01*
X157733501Y-45692764D01*
X157733489Y-45692761D01*
X157578845Y-45662000D01*
X157578842Y-45662000D01*
X157421158Y-45662000D01*
X157421155Y-45662000D01*
X157367704Y-45672632D01*
X157298113Y-45666405D01*
X157255831Y-45638695D01*
X157220848Y-45603711D01*
X157220844Y-45603708D01*
X157089741Y-45516107D01*
X157089728Y-45516100D01*
X157063105Y-45505073D01*
X157008701Y-45461232D01*
X156986636Y-45394938D01*
X157003915Y-45327239D01*
X157022876Y-45302831D01*
X157170688Y-45155019D01*
X157428635Y-44897072D01*
X157489956Y-44863589D01*
X157492123Y-44863138D01*
X157550058Y-44851613D01*
X157647470Y-44832237D01*
X157793152Y-44771894D01*
X157924262Y-44684289D01*
X158035762Y-44572789D01*
X158123367Y-44441679D01*
X158128097Y-44430261D01*
X158179563Y-44306008D01*
X158183710Y-44295997D01*
X158214473Y-44141342D01*
X158214473Y-43983658D01*
X158214473Y-43983655D01*
X158214472Y-43983653D01*
X158213467Y-43978599D01*
X158183710Y-43829003D01*
X158153990Y-43757252D01*
X158123368Y-43683323D01*
X158123170Y-43682952D01*
X158123124Y-43682734D01*
X158121036Y-43677692D01*
X158121992Y-43677295D01*
X158108929Y-43614549D01*
X158133930Y-43549305D01*
X158190236Y-43507936D01*
X158232529Y-43500500D01*
X159068996Y-43500500D01*
X159166553Y-43481094D01*
X159204328Y-43473580D01*
X159268069Y-43447177D01*
X159331807Y-43420777D01*
X159331808Y-43420776D01*
X159331811Y-43420775D01*
X159446543Y-43344114D01*
X160253838Y-42536819D01*
X160315161Y-42503334D01*
X160341519Y-42500500D01*
X162374684Y-42500500D01*
X162380018Y-42501451D01*
X162383037Y-42500782D01*
X162404663Y-42505846D01*
X162417554Y-42508146D01*
X162420673Y-42509295D01*
X162420821Y-42509394D01*
X162566503Y-42569737D01*
X162606089Y-42577611D01*
X162615216Y-42580974D01*
X162622754Y-42586570D01*
X162636937Y-42592445D01*
X162637085Y-42592170D01*
X162639880Y-42593664D01*
X162641234Y-42594225D01*
X162642454Y-42595040D01*
X162769937Y-42647845D01*
X162769941Y-42647845D01*
X162769942Y-42647846D01*
X162905268Y-42674765D01*
X162905271Y-42674765D01*
X162905272Y-42674765D01*
X164748949Y-42674765D01*
X164796401Y-42684204D01*
X164885605Y-42721153D01*
X164940768Y-42744002D01*
X165095418Y-42774764D01*
X165095421Y-42774765D01*
X165095423Y-42774765D01*
X165253109Y-42774765D01*
X165253110Y-42774764D01*
X165407762Y-42744002D01*
X165553444Y-42683659D01*
X165684554Y-42596054D01*
X165796054Y-42484554D01*
X165883659Y-42353444D01*
X165944002Y-42207762D01*
X165974765Y-42053107D01*
X165974765Y-41895423D01*
X165974765Y-41895420D01*
X165974764Y-41895418D01*
X165945593Y-41748767D01*
X165944002Y-41740768D01*
X165932258Y-41712415D01*
X165883662Y-41595092D01*
X165883655Y-41595079D01*
X165796054Y-41463976D01*
X165796051Y-41463972D01*
X165684557Y-41352478D01*
X165684553Y-41352475D01*
X165553450Y-41264874D01*
X165553437Y-41264867D01*
X165407766Y-41204529D01*
X165407754Y-41204526D01*
X165253110Y-41173765D01*
X165253107Y-41173765D01*
X165095423Y-41173765D01*
X165095420Y-41173765D01*
X164940775Y-41204526D01*
X164940763Y-41204529D01*
X164796401Y-41264326D01*
X164748949Y-41273765D01*
X163457205Y-41273765D01*
X163390166Y-41254080D01*
X163369528Y-41237450D01*
X163310289Y-41178211D01*
X163310288Y-41178210D01*
X163310287Y-41178209D01*
X163179185Y-41090609D01*
X163179172Y-41090602D01*
X163033501Y-41030264D01*
X163033489Y-41030261D01*
X162878845Y-40999500D01*
X162878842Y-40999500D01*
X162721158Y-40999500D01*
X162721155Y-40999500D01*
X162566510Y-41030261D01*
X162566498Y-41030264D01*
X162422136Y-41090061D01*
X162374684Y-41099500D01*
X160824500Y-41099500D01*
X160757461Y-41079815D01*
X160711706Y-41027011D01*
X160700500Y-40975500D01*
X160700500Y-40531004D01*
X160673581Y-40395677D01*
X160673580Y-40395676D01*
X160673580Y-40395672D01*
X160649839Y-40338355D01*
X160620777Y-40268193D01*
X160620776Y-40268191D01*
X160589206Y-40220943D01*
X160589206Y-40220942D01*
X160544115Y-40153458D01*
X160544109Y-40153451D01*
X159336819Y-38946161D01*
X159303334Y-38884838D01*
X159300500Y-38858480D01*
X159300500Y-34175900D01*
X159320185Y-34108861D01*
X159321362Y-34107062D01*
X159381175Y-34017547D01*
X159447624Y-33857124D01*
X159468514Y-33752105D01*
X159481500Y-33686822D01*
X159481500Y-33513177D01*
X159447625Y-33342881D01*
X159447624Y-33342880D01*
X159447624Y-33342876D01*
X159403253Y-33235754D01*
X159381178Y-33182459D01*
X159381171Y-33182446D01*
X159284706Y-33038077D01*
X159284703Y-33038073D01*
X159161926Y-32915296D01*
X159161922Y-32915293D01*
X159017553Y-32818828D01*
X159017540Y-32818821D01*
X158857128Y-32752377D01*
X158857118Y-32752374D01*
X158825660Y-32746117D01*
X158763749Y-32713732D01*
X158729175Y-32653016D01*
X158732915Y-32583247D01*
X158773782Y-32526575D01*
X158838800Y-32500994D01*
X158849852Y-32500500D01*
X161899903Y-32500500D01*
X161966942Y-32520185D01*
X161987584Y-32536819D01*
X166963181Y-37512416D01*
X166996666Y-37573739D01*
X166999500Y-37600097D01*
X166999500Y-47799902D01*
X166979815Y-47866941D01*
X166963181Y-47887583D01*
X165652669Y-49198094D01*
X165591346Y-49231579D01*
X165521654Y-49226595D01*
X165465721Y-49184723D01*
X165441304Y-49119259D01*
X165450426Y-49062963D01*
X165494002Y-48957762D01*
X165524765Y-48803107D01*
X165524765Y-48645423D01*
X165524765Y-48645420D01*
X165524764Y-48645418D01*
X165499713Y-48519480D01*
X165494002Y-48490768D01*
X165494000Y-48490763D01*
X165433662Y-48345092D01*
X165433655Y-48345079D01*
X165346054Y-48213976D01*
X165346051Y-48213972D01*
X165234557Y-48102478D01*
X165234553Y-48102475D01*
X165103450Y-48014874D01*
X165103437Y-48014867D01*
X164957766Y-47954529D01*
X164957754Y-47954526D01*
X164803110Y-47923765D01*
X164803107Y-47923765D01*
X164645423Y-47923765D01*
X164645420Y-47923765D01*
X164490775Y-47954526D01*
X164490763Y-47954529D01*
X164345092Y-48014867D01*
X164345079Y-48014874D01*
X164213977Y-48102474D01*
X164196267Y-48120185D01*
X164153269Y-48163182D01*
X164091949Y-48196666D01*
X164065590Y-48199500D01*
X163279766Y-48199500D01*
X163212727Y-48179815D01*
X163210875Y-48178602D01*
X163079185Y-48090609D01*
X163079172Y-48090602D01*
X162933501Y-48030264D01*
X162933489Y-48030261D01*
X162778845Y-47999500D01*
X162778842Y-47999500D01*
X162621158Y-47999500D01*
X162621155Y-47999500D01*
X162466510Y-48030261D01*
X162466498Y-48030264D01*
X162320827Y-48090602D01*
X162320814Y-48090609D01*
X162189711Y-48178210D01*
X162189707Y-48178213D01*
X162078213Y-48289707D01*
X162078210Y-48289711D01*
X161990609Y-48420814D01*
X161990602Y-48420827D01*
X161930264Y-48566498D01*
X161930261Y-48566510D01*
X161899500Y-48721153D01*
X161899500Y-48878846D01*
X161930261Y-49033489D01*
X161930264Y-49033501D01*
X161990602Y-49179172D01*
X161990609Y-49179185D01*
X162078210Y-49310288D01*
X162078213Y-49310292D01*
X162189707Y-49421786D01*
X162189711Y-49421789D01*
X162320814Y-49509390D01*
X162320827Y-49509397D01*
X162437206Y-49557602D01*
X162466503Y-49569737D01*
X162621153Y-49600499D01*
X162621156Y-49600500D01*
X162621158Y-49600500D01*
X162778844Y-49600500D01*
X162778845Y-49600499D01*
X162933497Y-49569737D01*
X163068267Y-49513914D01*
X163079172Y-49509397D01*
X163079172Y-49509396D01*
X163079179Y-49509394D01*
X163092490Y-49500500D01*
X163210875Y-49421398D01*
X163277553Y-49400520D01*
X163279766Y-49400500D01*
X164257845Y-49400500D01*
X164324884Y-49420185D01*
X164326717Y-49421385D01*
X164345086Y-49433659D01*
X164345088Y-49433659D01*
X164345092Y-49433662D01*
X164490763Y-49494000D01*
X164490768Y-49494002D01*
X164622398Y-49520185D01*
X164645418Y-49524764D01*
X164645421Y-49524765D01*
X164645423Y-49524765D01*
X164803109Y-49524765D01*
X164803110Y-49524764D01*
X164957762Y-49494002D01*
X165062962Y-49450426D01*
X165132431Y-49442958D01*
X165194910Y-49474233D01*
X165230562Y-49534322D01*
X165228068Y-49604147D01*
X165198095Y-49652669D01*
X164585339Y-50265425D01*
X164524016Y-50298910D01*
X164521850Y-50299361D01*
X164366508Y-50330261D01*
X164366498Y-50330264D01*
X164220827Y-50390602D01*
X164220814Y-50390609D01*
X164089711Y-50478210D01*
X164089707Y-50478213D01*
X163978213Y-50589707D01*
X163978210Y-50589711D01*
X163890609Y-50720814D01*
X163890602Y-50720827D01*
X163830264Y-50866498D01*
X163830261Y-50866510D01*
X163799500Y-51021153D01*
X163799500Y-51178846D01*
X163830261Y-51333489D01*
X163830264Y-51333501D01*
X163890602Y-51479172D01*
X163890609Y-51479185D01*
X163978210Y-51610288D01*
X163978213Y-51610292D01*
X164089707Y-51721786D01*
X164089711Y-51721789D01*
X164220814Y-51809390D01*
X164220827Y-51809397D01*
X164321907Y-51851265D01*
X164366503Y-51869737D01*
X164521153Y-51900499D01*
X164521156Y-51900500D01*
X164521158Y-51900500D01*
X164678844Y-51900500D01*
X164678845Y-51900499D01*
X164833497Y-51869737D01*
X164979179Y-51809394D01*
X165110289Y-51721789D01*
X165221789Y-51610289D01*
X165309394Y-51479179D01*
X165369737Y-51333497D01*
X165393617Y-51213444D01*
X165400638Y-51178150D01*
X165433023Y-51116239D01*
X165434517Y-51114717D01*
X168080520Y-48468716D01*
X168159577Y-48331784D01*
X168200501Y-48179057D01*
X168200501Y-48020942D01*
X168200501Y-48013347D01*
X168200500Y-48013329D01*
X168200500Y-37220945D01*
X168200498Y-37220936D01*
X168197495Y-37209728D01*
X168195023Y-37200500D01*
X168159577Y-37068215D01*
X168130639Y-37018095D01*
X168080520Y-36931284D01*
X167968716Y-36819480D01*
X167968715Y-36819479D01*
X167964385Y-36815149D01*
X167964374Y-36815139D01*
X162687590Y-31538355D01*
X162687588Y-31538352D01*
X162568717Y-31419481D01*
X162568716Y-31419480D01*
X162481904Y-31369360D01*
X162481904Y-31369359D01*
X162481900Y-31369358D01*
X162431785Y-31340423D01*
X162279057Y-31299499D01*
X162120943Y-31299499D01*
X162113347Y-31299499D01*
X162113331Y-31299500D01*
X157279766Y-31299500D01*
X157212727Y-31279815D01*
X157210875Y-31278602D01*
X157079185Y-31190609D01*
X157079172Y-31190602D01*
X156933501Y-31130264D01*
X156933489Y-31130261D01*
X156778845Y-31099500D01*
X156778842Y-31099500D01*
X156621158Y-31099500D01*
X156621155Y-31099500D01*
X156466510Y-31130261D01*
X156466498Y-31130264D01*
X156320827Y-31190602D01*
X156320814Y-31190609D01*
X156189711Y-31278210D01*
X156189707Y-31278213D01*
X156078213Y-31389707D01*
X156078210Y-31389711D01*
X155990609Y-31520814D01*
X155990602Y-31520827D01*
X155930264Y-31666498D01*
X155930261Y-31666510D01*
X155899500Y-31821153D01*
X155899500Y-31978846D01*
X155930261Y-32133489D01*
X155930264Y-32133501D01*
X155990602Y-32279172D01*
X155990609Y-32279185D01*
X156078210Y-32410288D01*
X156078213Y-32410292D01*
X156174740Y-32506819D01*
X156208225Y-32568142D01*
X156203241Y-32637834D01*
X156161369Y-32693767D01*
X156095905Y-32718184D01*
X156087059Y-32718500D01*
X148013177Y-32718500D01*
X147842881Y-32752374D01*
X147842871Y-32752377D01*
X147682456Y-32818822D01*
X147538073Y-32915295D01*
X147538072Y-32915296D01*
X146576712Y-33876657D01*
X146515389Y-33910142D01*
X146445697Y-33905158D01*
X146389764Y-33863286D01*
X146371100Y-33827293D01*
X146316213Y-33658366D01*
X146316211Y-33658360D01*
X146270458Y-33568567D01*
X146233996Y-33497006D01*
X146220396Y-33478287D01*
X146127558Y-33350505D01*
X146127554Y-33350500D01*
X145999499Y-33222445D01*
X145999494Y-33222441D01*
X145852997Y-33116006D01*
X145852996Y-33116005D01*
X145852994Y-33116004D01*
X145801300Y-33089664D01*
X145691639Y-33033788D01*
X145691636Y-33033787D01*
X145519410Y-32977829D01*
X145340551Y-32949500D01*
X145340546Y-32949500D01*
X144595681Y-32949500D01*
X144595657Y-32949499D01*
X144590546Y-32949499D01*
X144409454Y-32949499D01*
X144349833Y-32958942D01*
X144230589Y-32977829D01*
X144058363Y-33033787D01*
X144058360Y-33033788D01*
X143897002Y-33116006D01*
X143750505Y-33222441D01*
X143750500Y-33222445D01*
X141922447Y-35050498D01*
X141843199Y-35159576D01*
X141843198Y-35159577D01*
X141816004Y-35197005D01*
X141733788Y-35358360D01*
X141733787Y-35358363D01*
X141677829Y-35530589D01*
X141649499Y-35709455D01*
X141649499Y-35895656D01*
X141649500Y-35895681D01*
X141649500Y-41527374D01*
X141629815Y-41594413D01*
X141577011Y-41640168D01*
X141507853Y-41650112D01*
X141444297Y-41621087D01*
X141437819Y-41615055D01*
X140161119Y-40338355D01*
X140161117Y-40338352D01*
X140042246Y-40219481D01*
X140042245Y-40219480D01*
X139955433Y-40169360D01*
X139955433Y-40169359D01*
X139955429Y-40169358D01*
X139905314Y-40140423D01*
X139752586Y-40099499D01*
X139594472Y-40099499D01*
X139586876Y-40099499D01*
X139586860Y-40099500D01*
X136300098Y-40099500D01*
X136233059Y-40079815D01*
X136212417Y-40063181D01*
X132018594Y-35869358D01*
X127720388Y-31571153D01*
X143999500Y-31571153D01*
X143999500Y-31728846D01*
X144030261Y-31883489D01*
X144030264Y-31883501D01*
X144090602Y-32029172D01*
X144090609Y-32029185D01*
X144178210Y-32160288D01*
X144178213Y-32160292D01*
X144289707Y-32271786D01*
X144289711Y-32271789D01*
X144420814Y-32359390D01*
X144420827Y-32359397D01*
X144566498Y-32419735D01*
X144566503Y-32419737D01*
X144721153Y-32450499D01*
X144721156Y-32450500D01*
X144721158Y-32450500D01*
X144878844Y-32450500D01*
X144878845Y-32450499D01*
X145033497Y-32419737D01*
X145179179Y-32359394D01*
X145310289Y-32271789D01*
X145421789Y-32160289D01*
X145509394Y-32029179D01*
X145569737Y-31883497D01*
X145600500Y-31728842D01*
X145600500Y-31571158D01*
X145600500Y-31571155D01*
X145576528Y-31450642D01*
X145582755Y-31381050D01*
X145610462Y-31338771D01*
X147463621Y-29485613D01*
X147524944Y-29452128D01*
X147594636Y-29457112D01*
X147638983Y-29485613D01*
X147738073Y-29584703D01*
X147738077Y-29584706D01*
X147882446Y-29681171D01*
X147882459Y-29681178D01*
X148018350Y-29737465D01*
X148042876Y-29747624D01*
X148042880Y-29747624D01*
X148042881Y-29747625D01*
X148213177Y-29781500D01*
X148213180Y-29781500D01*
X148386822Y-29781500D01*
X148501394Y-29758709D01*
X148557124Y-29747624D01*
X148717547Y-29681175D01*
X148861923Y-29584706D01*
X148984706Y-29461923D01*
X149081175Y-29317547D01*
X149147624Y-29157124D01*
X149167168Y-29058872D01*
X149181500Y-28986822D01*
X149181500Y-28813177D01*
X149147625Y-28642881D01*
X149147624Y-28642880D01*
X149147624Y-28642876D01*
X149142823Y-28631286D01*
X149081178Y-28482459D01*
X149081171Y-28482446D01*
X148984706Y-28338077D01*
X148984703Y-28338073D01*
X148885613Y-28238983D01*
X148852128Y-28177660D01*
X148857112Y-28107968D01*
X148885613Y-28063621D01*
X149034001Y-27915234D01*
X149712417Y-27236819D01*
X149773740Y-27203334D01*
X149800098Y-27200500D01*
X152720234Y-27200500D01*
X152787273Y-27220185D01*
X152789125Y-27221398D01*
X152920814Y-27309390D01*
X152920827Y-27309397D01*
X153066498Y-27369735D01*
X153066503Y-27369737D01*
X153221153Y-27400499D01*
X153221156Y-27400500D01*
X153221158Y-27400500D01*
X153378844Y-27400500D01*
X153378845Y-27400499D01*
X153533497Y-27369737D01*
X153679179Y-27309394D01*
X153810289Y-27221789D01*
X153921789Y-27110289D01*
X154009394Y-26979179D01*
X154069737Y-26833497D01*
X154100500Y-26678842D01*
X154100500Y-26521158D01*
X154100500Y-26521155D01*
X154100499Y-26521153D01*
X154069738Y-26366510D01*
X154069737Y-26366503D01*
X154069735Y-26366498D01*
X154009397Y-26220827D01*
X154009390Y-26220814D01*
X153921789Y-26089711D01*
X153921786Y-26089707D01*
X153810292Y-25978213D01*
X153810288Y-25978210D01*
X153679185Y-25890609D01*
X153679172Y-25890602D01*
X153533501Y-25830264D01*
X153533489Y-25830261D01*
X153378845Y-25799500D01*
X153378842Y-25799500D01*
X153221158Y-25799500D01*
X153221155Y-25799500D01*
X153066510Y-25830261D01*
X153066498Y-25830264D01*
X152920827Y-25890602D01*
X152920814Y-25890609D01*
X152789125Y-25978602D01*
X152722447Y-25999480D01*
X152720234Y-25999500D01*
X149586670Y-25999500D01*
X149586654Y-25999499D01*
X149579058Y-25999499D01*
X149420943Y-25999499D01*
X149344579Y-26019961D01*
X149268214Y-26040423D01*
X149268209Y-26040426D01*
X149131290Y-26119475D01*
X149131282Y-26119481D01*
X144319479Y-30931284D01*
X144305945Y-30954727D01*
X144291325Y-30980051D01*
X144240423Y-31068215D01*
X144240350Y-31068486D01*
X144236166Y-31075746D01*
X144229213Y-31082385D01*
X144216418Y-31101502D01*
X144178213Y-31139708D01*
X144178208Y-31139714D01*
X144090609Y-31270814D01*
X144090602Y-31270827D01*
X144030264Y-31416498D01*
X144030261Y-31416510D01*
X143999500Y-31571153D01*
X127720388Y-31571153D01*
X124787589Y-28638354D01*
X124787588Y-28638352D01*
X124668717Y-28519481D01*
X124668716Y-28519480D01*
X124558187Y-28455666D01*
X124558187Y-28455665D01*
X124558184Y-28455665D01*
X124531785Y-28440423D01*
X124379057Y-28399499D01*
X124220943Y-28399499D01*
X124213347Y-28399499D01*
X124213331Y-28399500D01*
X114855255Y-28399500D01*
X114814334Y-28410464D01*
X114814334Y-28410465D01*
X114778940Y-28419949D01*
X114702529Y-28440423D01*
X114702524Y-28440426D01*
X114565605Y-28519475D01*
X114565597Y-28519481D01*
X112821898Y-30263181D01*
X112760575Y-30296666D01*
X112734217Y-30299500D01*
X110874500Y-30299500D01*
X110807461Y-30279815D01*
X110761706Y-30227011D01*
X110750500Y-30175500D01*
X110750499Y-28724998D01*
X110750498Y-28724981D01*
X110739999Y-28622203D01*
X110739998Y-28622200D01*
X110714508Y-28545276D01*
X110684814Y-28455666D01*
X110592712Y-28306344D01*
X110468656Y-28182288D01*
X110373998Y-28123903D01*
X110319336Y-28090187D01*
X110319331Y-28090185D01*
X110317862Y-28089698D01*
X110152797Y-28035001D01*
X110152795Y-28035000D01*
X110050010Y-28024500D01*
X108749998Y-28024500D01*
X108749981Y-28024501D01*
X108647203Y-28035000D01*
X108647200Y-28035001D01*
X108480668Y-28090185D01*
X108480663Y-28090187D01*
X108331342Y-28182289D01*
X108262181Y-28251451D01*
X108242744Y-28262063D01*
X108226011Y-28276564D01*
X108212679Y-28278480D01*
X108200858Y-28284936D01*
X108178771Y-28283356D01*
X108156853Y-28286508D01*
X108144601Y-28280912D01*
X108131166Y-28279952D01*
X108113439Y-28266681D01*
X108093297Y-28257483D01*
X108086014Y-28246151D01*
X108075233Y-28238080D01*
X108067495Y-28217334D01*
X108055523Y-28198705D01*
X108052371Y-28176786D01*
X108050816Y-28172616D01*
X108050500Y-28163770D01*
X108050500Y-28002915D01*
X108070185Y-27935876D01*
X108086819Y-27915234D01*
X108515234Y-27486819D01*
X108576557Y-27453334D01*
X108602915Y-27450500D01*
X132272085Y-27450500D01*
X132339124Y-27470185D01*
X132359766Y-27486819D01*
X133213181Y-28340233D01*
X133246666Y-28401556D01*
X133249500Y-28427914D01*
X133249500Y-28854037D01*
X133229815Y-28921076D01*
X133177011Y-28966831D01*
X133107853Y-28976775D01*
X133044297Y-28947750D01*
X133025182Y-28926922D01*
X132929727Y-28795540D01*
X132929723Y-28795535D01*
X132779464Y-28645276D01*
X132779459Y-28645272D01*
X132607557Y-28520379D01*
X132418215Y-28423903D01*
X132216124Y-28358241D01*
X132150000Y-28347768D01*
X132150000Y-29395854D01*
X132083343Y-29357370D01*
X131962535Y-29325000D01*
X131837465Y-29325000D01*
X131716657Y-29357370D01*
X131650000Y-29395854D01*
X131650000Y-28347768D01*
X131649999Y-28347768D01*
X131583875Y-28358241D01*
X131381784Y-28423903D01*
X131192442Y-28520379D01*
X131020540Y-28645272D01*
X131020535Y-28645276D01*
X130870276Y-28795535D01*
X130870272Y-28795540D01*
X130745379Y-28967442D01*
X130648904Y-29156782D01*
X130583242Y-29358869D01*
X130583242Y-29358872D01*
X130552970Y-29550000D01*
X131495854Y-29550000D01*
X131457370Y-29616657D01*
X131425000Y-29737465D01*
X131425000Y-29862535D01*
X131457370Y-29983343D01*
X131495854Y-30050000D01*
X130552970Y-30050000D01*
X130583242Y-30241127D01*
X130583242Y-30241130D01*
X130648904Y-30443217D01*
X130745379Y-30632557D01*
X130870272Y-30804459D01*
X130870276Y-30804464D01*
X131020535Y-30954723D01*
X131020540Y-30954727D01*
X131192442Y-31079620D01*
X131381782Y-31176095D01*
X131583871Y-31241757D01*
X131650000Y-31252231D01*
X131650000Y-30204145D01*
X131716657Y-30242630D01*
X131837465Y-30275000D01*
X131962535Y-30275000D01*
X132083343Y-30242630D01*
X132150000Y-30204145D01*
X132150000Y-31252230D01*
X132216126Y-31241757D01*
X132216129Y-31241757D01*
X132418217Y-31176095D01*
X132607557Y-31079620D01*
X132779459Y-30954727D01*
X132779464Y-30954723D01*
X132929721Y-30804466D01*
X133049371Y-30639781D01*
X133104701Y-30597115D01*
X133174314Y-30591136D01*
X133236110Y-30623741D01*
X133250008Y-30639781D01*
X133369890Y-30804785D01*
X133369894Y-30804790D01*
X133520213Y-30955109D01*
X133692179Y-31080048D01*
X133692181Y-31080049D01*
X133692184Y-31080051D01*
X133881588Y-31176557D01*
X134083757Y-31242246D01*
X134293713Y-31275500D01*
X134293714Y-31275500D01*
X134506286Y-31275500D01*
X134506287Y-31275500D01*
X134716243Y-31242246D01*
X134918412Y-31176557D01*
X135107816Y-31080051D01*
X135245459Y-30980048D01*
X135279784Y-30955110D01*
X135279784Y-30955109D01*
X135279792Y-30955104D01*
X135418604Y-30816291D01*
X135479923Y-30782809D01*
X135549615Y-30787793D01*
X135605549Y-30829664D01*
X135611821Y-30838878D01*
X135615185Y-30844333D01*
X135615186Y-30844334D01*
X135707288Y-30993656D01*
X135831344Y-31117712D01*
X135980666Y-31209814D01*
X136147203Y-31264999D01*
X136249991Y-31275500D01*
X137550008Y-31275499D01*
X137652797Y-31264999D01*
X137819334Y-31209814D01*
X137968656Y-31117712D01*
X138092712Y-30993656D01*
X138184814Y-30844334D01*
X138239999Y-30677797D01*
X138250500Y-30575009D01*
X138250499Y-29024992D01*
X138239999Y-28922203D01*
X138184814Y-28755666D01*
X138092712Y-28606344D01*
X137968656Y-28482288D01*
X137837768Y-28401556D01*
X137819336Y-28390187D01*
X137819331Y-28390185D01*
X137778189Y-28376552D01*
X137652797Y-28335001D01*
X137652795Y-28335000D01*
X137550010Y-28324500D01*
X136249998Y-28324500D01*
X136249981Y-28324501D01*
X136147203Y-28335000D01*
X136147200Y-28335001D01*
X135980668Y-28390185D01*
X135980663Y-28390187D01*
X135831342Y-28482289D01*
X135762181Y-28551451D01*
X135700858Y-28584936D01*
X135631166Y-28579952D01*
X135575233Y-28538080D01*
X135550816Y-28472616D01*
X135550500Y-28463770D01*
X135550500Y-27995682D01*
X135550501Y-27995657D01*
X135550501Y-27809448D01*
X135522172Y-27630590D01*
X135496207Y-27550680D01*
X135466211Y-27458361D01*
X135466209Y-27458358D01*
X135466209Y-27458356D01*
X135421054Y-27369735D01*
X135383996Y-27297006D01*
X135383994Y-27297003D01*
X135383993Y-27297001D01*
X135374544Y-27283995D01*
X135374544Y-27283994D01*
X135277559Y-27150506D01*
X135277555Y-27150502D01*
X135277553Y-27150499D01*
X135149501Y-27022447D01*
X135149500Y-27022446D01*
X135146396Y-27019342D01*
X135146367Y-27019315D01*
X133681893Y-25554840D01*
X133681884Y-25554830D01*
X133627640Y-25500586D01*
X133549501Y-25422447D01*
X133549497Y-25422444D01*
X133549493Y-25422440D01*
X133402997Y-25316006D01*
X133402996Y-25316005D01*
X133402994Y-25316004D01*
X133351300Y-25289664D01*
X133241639Y-25233788D01*
X133241636Y-25233787D01*
X133069410Y-25177829D01*
X132979977Y-25163664D01*
X132890546Y-25149499D01*
X132709454Y-25149499D01*
X132704343Y-25149499D01*
X132704319Y-25149500D01*
X108170681Y-25149500D01*
X108170657Y-25149499D01*
X108165546Y-25149499D01*
X107984454Y-25149499D01*
X107924833Y-25158942D01*
X107805589Y-25177829D01*
X107633363Y-25233787D01*
X107633360Y-25233788D01*
X107472002Y-25316006D01*
X107325505Y-25422441D01*
X107325500Y-25422445D01*
X106022447Y-26725498D01*
X105989339Y-26771067D01*
X105943770Y-26833789D01*
X105929887Y-26852897D01*
X105916004Y-26872005D01*
X105833788Y-27033360D01*
X105833787Y-27033363D01*
X105777829Y-27205589D01*
X105749499Y-27384455D01*
X105749499Y-27570656D01*
X105749500Y-27570681D01*
X105749500Y-28554037D01*
X105729815Y-28621076D01*
X105677011Y-28666831D01*
X105607853Y-28676775D01*
X105544297Y-28647750D01*
X105525182Y-28626922D01*
X105429727Y-28495540D01*
X105429723Y-28495535D01*
X105279464Y-28345276D01*
X105279459Y-28345272D01*
X105107557Y-28220379D01*
X104918215Y-28123903D01*
X104716124Y-28058241D01*
X104650000Y-28047768D01*
X104650000Y-29095854D01*
X104583343Y-29057370D01*
X104462535Y-29025000D01*
X104337465Y-29025000D01*
X104216657Y-29057370D01*
X104150000Y-29095854D01*
X104150000Y-28047768D01*
X104149999Y-28047768D01*
X104083875Y-28058241D01*
X103881784Y-28123903D01*
X103692442Y-28220379D01*
X103520540Y-28345272D01*
X103520535Y-28345276D01*
X103370276Y-28495535D01*
X103370272Y-28495540D01*
X103245379Y-28667442D01*
X103148904Y-28856782D01*
X103083242Y-29058869D01*
X103083242Y-29058872D01*
X103052970Y-29250000D01*
X103995854Y-29250000D01*
X103957370Y-29316657D01*
X103925000Y-29437465D01*
X103925000Y-29562535D01*
X103957370Y-29683343D01*
X103995854Y-29750000D01*
X103052970Y-29750000D01*
X103083242Y-29941127D01*
X103083242Y-29941130D01*
X103146943Y-30137182D01*
X103148938Y-30207024D01*
X103112857Y-30266856D01*
X103050156Y-30297684D01*
X103029012Y-30299500D01*
X102479766Y-30299500D01*
X102412727Y-30279815D01*
X102410875Y-30278602D01*
X102279185Y-30190609D01*
X102279172Y-30190602D01*
X102133501Y-30130264D01*
X102133489Y-30130261D01*
X101978845Y-30099500D01*
X101978842Y-30099500D01*
X101821158Y-30099500D01*
X101821155Y-30099500D01*
X101666510Y-30130261D01*
X101666498Y-30130264D01*
X101520827Y-30190602D01*
X101520814Y-30190609D01*
X101389711Y-30278210D01*
X101389707Y-30278213D01*
X101278213Y-30389707D01*
X101278210Y-30389711D01*
X101190609Y-30520814D01*
X101190602Y-30520827D01*
X101130264Y-30666498D01*
X101130261Y-30666510D01*
X101099500Y-30821153D01*
X101099500Y-30978846D01*
X101130261Y-31133489D01*
X101132031Y-31139324D01*
X101129279Y-31140158D01*
X101135503Y-31197359D01*
X101104309Y-31259878D01*
X101044266Y-31295608D01*
X101013445Y-31299500D01*
X99731003Y-31299500D01*
X99622590Y-31321065D01*
X99622589Y-31321065D01*
X99595671Y-31326420D01*
X99468190Y-31379224D01*
X99353454Y-31455887D01*
X93105412Y-37703929D01*
X93065184Y-37730809D01*
X92920823Y-37790604D01*
X92920814Y-37790609D01*
X92789711Y-37878210D01*
X92789707Y-37878213D01*
X92678213Y-37989707D01*
X92678210Y-37989711D01*
X92590609Y-38120814D01*
X92590604Y-38120823D01*
X92530809Y-38265184D01*
X92503929Y-38305412D01*
X92146162Y-38663181D01*
X92084839Y-38696666D01*
X92058481Y-38699500D01*
X88425316Y-38699500D01*
X88377864Y-38690061D01*
X88233501Y-38630264D01*
X88233489Y-38630261D01*
X88078845Y-38599500D01*
X88078842Y-38599500D01*
X87921158Y-38599500D01*
X87921155Y-38599500D01*
X87766510Y-38630261D01*
X87766498Y-38630264D01*
X87620827Y-38690602D01*
X87620814Y-38690609D01*
X87489711Y-38778210D01*
X87489707Y-38778213D01*
X87378213Y-38889707D01*
X87378210Y-38889711D01*
X87290609Y-39020814D01*
X87290602Y-39020827D01*
X87230264Y-39166498D01*
X87230261Y-39166510D01*
X87199500Y-39321153D01*
X87199500Y-39478846D01*
X87230261Y-39633489D01*
X87230264Y-39633501D01*
X87290061Y-39777864D01*
X87299500Y-39825316D01*
X87299500Y-43131006D01*
X87299500Y-43268994D01*
X87299500Y-43268996D01*
X87299499Y-43268996D01*
X87326418Y-43404322D01*
X87326421Y-43404332D01*
X87379222Y-43531807D01*
X87455887Y-43646545D01*
X87455888Y-43646546D01*
X89903928Y-46094585D01*
X89930808Y-46134814D01*
X89990602Y-46279172D01*
X89990609Y-46279185D01*
X90078210Y-46410288D01*
X90078213Y-46410292D01*
X90189707Y-46521786D01*
X90189711Y-46521789D01*
X90320814Y-46609390D01*
X90320827Y-46609397D01*
X90466498Y-46669735D01*
X90466503Y-46669737D01*
X90598520Y-46695997D01*
X90621153Y-46700499D01*
X90621156Y-46700500D01*
X90621158Y-46700500D01*
X90778844Y-46700500D01*
X90778845Y-46700499D01*
X90933497Y-46669737D01*
X91079179Y-46609394D01*
X91210289Y-46521789D01*
X91321789Y-46410289D01*
X91409394Y-46279179D01*
X91469737Y-46133497D01*
X91500500Y-45978842D01*
X91500500Y-45821158D01*
X91500500Y-45821155D01*
X91500499Y-45821153D01*
X91486964Y-45753109D01*
X91469737Y-45666503D01*
X91441542Y-45598433D01*
X91409397Y-45520827D01*
X91409390Y-45520814D01*
X91321789Y-45389711D01*
X91321786Y-45389707D01*
X91210292Y-45278213D01*
X91210288Y-45278210D01*
X91079185Y-45190609D01*
X91079172Y-45190602D01*
X90934814Y-45130808D01*
X90894585Y-45103928D01*
X90611810Y-44821153D01*
X102299500Y-44821153D01*
X102299500Y-44978846D01*
X102330261Y-45133489D01*
X102330264Y-45133501D01*
X102390602Y-45279172D01*
X102390609Y-45279185D01*
X102478210Y-45410288D01*
X102478213Y-45410292D01*
X102589707Y-45521786D01*
X102589711Y-45521789D01*
X102720814Y-45609390D01*
X102720827Y-45609397D01*
X102865185Y-45669191D01*
X102905414Y-45696071D01*
X109853453Y-52644111D01*
X109853454Y-52644112D01*
X109968192Y-52720777D01*
X110095667Y-52773578D01*
X110095672Y-52773580D01*
X110095676Y-52773580D01*
X110095677Y-52773581D01*
X110231003Y-52800500D01*
X110231006Y-52800500D01*
X110231007Y-52800500D01*
X115074684Y-52800500D01*
X115122136Y-52809939D01*
X115256450Y-52865573D01*
X115266503Y-52869737D01*
X115386736Y-52893653D01*
X115421153Y-52900499D01*
X115421156Y-52900500D01*
X115421158Y-52900500D01*
X115578843Y-52900500D01*
X115595304Y-52897225D01*
X115644568Y-52887426D01*
X115714158Y-52893653D01*
X115769336Y-52936515D01*
X115783320Y-52961589D01*
X115790606Y-52979179D01*
X115790609Y-52979185D01*
X115878210Y-53110288D01*
X115878213Y-53110292D01*
X115989707Y-53221786D01*
X115989711Y-53221789D01*
X116120814Y-53309390D01*
X116120827Y-53309397D01*
X116266498Y-53369735D01*
X116266503Y-53369737D01*
X116421153Y-53400499D01*
X116421156Y-53400500D01*
X116421158Y-53400500D01*
X116578844Y-53400500D01*
X116578845Y-53400499D01*
X116733497Y-53369737D01*
X116879179Y-53309394D01*
X117010289Y-53221789D01*
X117121789Y-53110289D01*
X117209394Y-52979179D01*
X117269737Y-52833497D01*
X117300500Y-52678842D01*
X117300500Y-52521158D01*
X117300500Y-52521155D01*
X117300499Y-52521153D01*
X117297410Y-52505626D01*
X117269737Y-52366503D01*
X117249146Y-52316791D01*
X117209397Y-52220827D01*
X117209390Y-52220814D01*
X117121398Y-52089125D01*
X117100520Y-52022447D01*
X117100500Y-52020234D01*
X117100500Y-50189059D01*
X117100501Y-50189046D01*
X117100501Y-50020945D01*
X117100501Y-50020943D01*
X117059577Y-49868215D01*
X117026582Y-49811066D01*
X117026582Y-49811065D01*
X116980524Y-49731290D01*
X116980521Y-49731286D01*
X116980520Y-49731284D01*
X116868716Y-49619480D01*
X116868715Y-49619479D01*
X116864385Y-49615149D01*
X116864374Y-49615139D01*
X116480115Y-49230880D01*
X116480113Y-49230877D01*
X116361242Y-49112006D01*
X116361234Y-49112000D01*
X116252304Y-49049110D01*
X116252303Y-49049109D01*
X116252303Y-49049110D01*
X116224310Y-49032948D01*
X116071582Y-48992024D01*
X115913468Y-48992024D01*
X115905872Y-48992024D01*
X115905856Y-48992025D01*
X113272291Y-48992025D01*
X113205252Y-48972340D01*
X113203400Y-48971127D01*
X113071710Y-48883134D01*
X113071697Y-48883127D01*
X112926026Y-48822789D01*
X112926014Y-48822786D01*
X112771370Y-48792025D01*
X112771367Y-48792025D01*
X112613683Y-48792025D01*
X112613680Y-48792025D01*
X112459035Y-48822786D01*
X112459023Y-48822789D01*
X112313352Y-48883127D01*
X112313339Y-48883134D01*
X112182236Y-48970735D01*
X112182232Y-48970738D01*
X112070738Y-49082232D01*
X112070735Y-49082236D01*
X111983134Y-49213339D01*
X111983127Y-49213352D01*
X111922789Y-49359023D01*
X111922786Y-49359035D01*
X111892025Y-49513678D01*
X111892025Y-49671371D01*
X111922786Y-49826014D01*
X111922789Y-49826026D01*
X111983127Y-49971697D01*
X111983134Y-49971710D01*
X112070735Y-50102813D01*
X112070738Y-50102817D01*
X112182232Y-50214311D01*
X112182236Y-50214314D01*
X112313339Y-50301915D01*
X112313352Y-50301922D01*
X112459023Y-50362260D01*
X112459028Y-50362262D01*
X112597023Y-50389711D01*
X112613678Y-50393024D01*
X112613681Y-50393025D01*
X112613683Y-50393025D01*
X112771369Y-50393025D01*
X112771370Y-50393024D01*
X112926022Y-50362262D01*
X113071704Y-50301919D01*
X113089981Y-50289707D01*
X113203400Y-50213923D01*
X113270078Y-50193045D01*
X113272291Y-50193025D01*
X115692428Y-50193025D01*
X115721868Y-50201669D01*
X115751855Y-50208193D01*
X115756870Y-50211947D01*
X115759467Y-50212710D01*
X115780109Y-50229344D01*
X115863181Y-50312416D01*
X115896666Y-50373739D01*
X115899500Y-50400097D01*
X115899500Y-51213444D01*
X115879815Y-51280483D01*
X115827011Y-51326238D01*
X115757853Y-51336182D01*
X115739575Y-51331202D01*
X115739324Y-51332031D01*
X115733500Y-51330264D01*
X115733497Y-51330263D01*
X115733492Y-51330262D01*
X115733489Y-51330261D01*
X115578845Y-51299500D01*
X115578842Y-51299500D01*
X115421158Y-51299500D01*
X115421155Y-51299500D01*
X115266510Y-51330261D01*
X115266498Y-51330264D01*
X115122136Y-51390061D01*
X115074684Y-51399500D01*
X110641519Y-51399500D01*
X110574480Y-51379815D01*
X110553838Y-51363181D01*
X103896071Y-44705414D01*
X103869191Y-44665185D01*
X103809397Y-44520827D01*
X103809390Y-44520814D01*
X103721789Y-44389711D01*
X103721786Y-44389707D01*
X103610292Y-44278213D01*
X103610288Y-44278210D01*
X103479185Y-44190609D01*
X103479172Y-44190602D01*
X103333501Y-44130264D01*
X103333489Y-44130261D01*
X103178845Y-44099500D01*
X103178842Y-44099500D01*
X103021158Y-44099500D01*
X103021155Y-44099500D01*
X102866510Y-44130261D01*
X102866498Y-44130264D01*
X102720827Y-44190602D01*
X102720814Y-44190609D01*
X102589711Y-44278210D01*
X102589707Y-44278213D01*
X102478213Y-44389707D01*
X102478210Y-44389711D01*
X102390609Y-44520814D01*
X102390602Y-44520827D01*
X102330264Y-44666498D01*
X102330261Y-44666510D01*
X102299500Y-44821153D01*
X90611810Y-44821153D01*
X88736819Y-42946162D01*
X88703334Y-42884839D01*
X88700500Y-42858481D01*
X88700500Y-40224500D01*
X88720185Y-40157461D01*
X88772989Y-40111706D01*
X88824500Y-40100500D01*
X92468996Y-40100500D01*
X92572983Y-40079815D01*
X92604328Y-40073580D01*
X92668069Y-40047177D01*
X92731807Y-40020777D01*
X92731808Y-40020776D01*
X92731811Y-40020775D01*
X92846543Y-39944114D01*
X93494586Y-39296069D01*
X93534810Y-39269192D01*
X93593232Y-39244994D01*
X93679173Y-39209397D01*
X93679176Y-39209395D01*
X93679179Y-39209394D01*
X93810289Y-39121789D01*
X93921789Y-39010289D01*
X94009394Y-38879179D01*
X94009395Y-38879176D01*
X94009397Y-38879173D01*
X94069192Y-38734812D01*
X94096069Y-38694586D01*
X100053838Y-32736819D01*
X100115161Y-32703334D01*
X100141519Y-32700500D01*
X107074684Y-32700500D01*
X107122136Y-32709939D01*
X107224592Y-32752377D01*
X107266503Y-32769737D01*
X107421153Y-32800499D01*
X107421156Y-32800500D01*
X107421158Y-32800500D01*
X107578844Y-32800500D01*
X107578845Y-32800499D01*
X107733497Y-32769737D01*
X107879179Y-32709394D01*
X108010289Y-32621789D01*
X108121789Y-32510289D01*
X108209394Y-32379179D01*
X108269737Y-32233497D01*
X108300500Y-32078842D01*
X108300500Y-31921158D01*
X108300500Y-31921155D01*
X108300499Y-31921153D01*
X108269737Y-31766503D01*
X108230572Y-31671951D01*
X108223104Y-31602483D01*
X108254379Y-31540004D01*
X108314468Y-31504352D01*
X108345134Y-31500500D01*
X111850903Y-31500500D01*
X111917942Y-31520185D01*
X111963697Y-31572989D01*
X111973641Y-31642147D01*
X111944616Y-31705703D01*
X111938584Y-31712181D01*
X110285339Y-33365425D01*
X110224016Y-33398910D01*
X110221850Y-33399361D01*
X110066508Y-33430261D01*
X110066498Y-33430264D01*
X109920827Y-33490602D01*
X109920814Y-33490609D01*
X109789711Y-33578210D01*
X109789707Y-33578213D01*
X109678213Y-33689707D01*
X109678210Y-33689711D01*
X109590609Y-33820814D01*
X109590602Y-33820827D01*
X109530264Y-33966498D01*
X109530261Y-33966510D01*
X109499500Y-34121153D01*
X109499500Y-34278846D01*
X109530261Y-34433489D01*
X109530264Y-34433501D01*
X109590602Y-34579172D01*
X109590609Y-34579185D01*
X109678210Y-34710288D01*
X109678213Y-34710292D01*
X109789707Y-34821786D01*
X109789711Y-34821789D01*
X109920814Y-34909390D01*
X109920827Y-34909397D01*
X110066498Y-34969735D01*
X110066503Y-34969737D01*
X110221153Y-35000499D01*
X110221156Y-35000500D01*
X110221158Y-35000500D01*
X110378844Y-35000500D01*
X110378845Y-35000499D01*
X110533497Y-34969737D01*
X110679179Y-34909394D01*
X110810289Y-34821789D01*
X110921789Y-34710289D01*
X111009394Y-34579179D01*
X111013728Y-34568717D01*
X111033427Y-34521158D01*
X111069737Y-34433497D01*
X111092934Y-34316879D01*
X111100638Y-34278150D01*
X111133023Y-34216239D01*
X111134518Y-34214716D01*
X112021748Y-33327486D01*
X116449500Y-33327486D01*
X116449500Y-33622513D01*
X116466562Y-33752105D01*
X116488007Y-33914993D01*
X116564361Y-34199951D01*
X116564364Y-34199961D01*
X116677254Y-34472500D01*
X116677258Y-34472510D01*
X116824761Y-34727993D01*
X117004352Y-34962040D01*
X117004358Y-34962047D01*
X117212952Y-35170641D01*
X117212959Y-35170647D01*
X117447006Y-35350238D01*
X117702489Y-35497741D01*
X117702490Y-35497741D01*
X117702493Y-35497743D01*
X117975048Y-35610639D01*
X118260007Y-35686993D01*
X118538415Y-35723646D01*
X118548688Y-35724999D01*
X118552494Y-35725500D01*
X118552501Y-35725500D01*
X118847499Y-35725500D01*
X118847506Y-35725500D01*
X119139993Y-35686993D01*
X119424952Y-35610639D01*
X119697507Y-35497743D01*
X119952994Y-35350238D01*
X120187042Y-35170646D01*
X120395646Y-34962042D01*
X120575238Y-34727994D01*
X120722743Y-34472507D01*
X120835639Y-34199952D01*
X120911993Y-33914993D01*
X120950500Y-33622506D01*
X120950500Y-33327494D01*
X120911993Y-33035007D01*
X120835639Y-32750048D01*
X120834011Y-32746117D01*
X120722748Y-32477504D01*
X120722741Y-32477489D01*
X120575238Y-32222006D01*
X120395647Y-31987959D01*
X120395641Y-31987952D01*
X120187047Y-31779358D01*
X120187040Y-31779352D01*
X119952993Y-31599761D01*
X119697510Y-31452258D01*
X119697500Y-31452254D01*
X119424961Y-31339364D01*
X119424954Y-31339362D01*
X119424952Y-31339361D01*
X119139993Y-31263007D01*
X119091113Y-31256571D01*
X118847513Y-31224500D01*
X118847506Y-31224500D01*
X118552494Y-31224500D01*
X118552486Y-31224500D01*
X118283774Y-31259878D01*
X118260007Y-31263007D01*
X118023345Y-31326420D01*
X117975048Y-31339361D01*
X117975038Y-31339364D01*
X117702499Y-31452254D01*
X117702489Y-31452258D01*
X117447006Y-31599761D01*
X117212959Y-31779352D01*
X117212952Y-31779358D01*
X117004358Y-31987952D01*
X117004352Y-31987959D01*
X116824761Y-32222006D01*
X116677258Y-32477489D01*
X116677254Y-32477499D01*
X116564364Y-32750038D01*
X116564362Y-32750045D01*
X116564361Y-32750048D01*
X116488334Y-33033789D01*
X116488008Y-33035004D01*
X116488006Y-33035015D01*
X116449500Y-33327486D01*
X112021748Y-33327486D01*
X115312416Y-30036819D01*
X115373739Y-30003334D01*
X115400097Y-30000500D01*
X123499903Y-30000500D01*
X123566942Y-30020185D01*
X123587584Y-30036819D01*
X124564084Y-31013319D01*
X124597569Y-31074642D01*
X124592585Y-31144334D01*
X124550713Y-31200267D01*
X124485249Y-31224684D01*
X124476403Y-31225000D01*
X123950000Y-31225000D01*
X123950000Y-32556116D01*
X123793567Y-32525000D01*
X123606433Y-32525000D01*
X123450000Y-32556116D01*
X123450000Y-31225000D01*
X122654787Y-31225000D01*
X122654772Y-31225001D01*
X122520525Y-31235566D01*
X122298847Y-31291423D01*
X122090712Y-31385962D01*
X122090703Y-31385967D01*
X121902796Y-31516151D01*
X121741151Y-31677796D01*
X121610967Y-31865703D01*
X121610962Y-31865712D01*
X121516423Y-32073847D01*
X121460566Y-32295525D01*
X121450000Y-32429773D01*
X121450000Y-33225000D01*
X122781116Y-33225000D01*
X122750000Y-33381433D01*
X122750000Y-33568567D01*
X122781116Y-33725000D01*
X121450001Y-33725000D01*
X121450001Y-34520227D01*
X121460566Y-34654474D01*
X121516423Y-34876152D01*
X121610962Y-35084287D01*
X121610967Y-35084296D01*
X121741151Y-35272203D01*
X121902796Y-35433848D01*
X122090703Y-35564032D01*
X122090712Y-35564037D01*
X122298847Y-35658576D01*
X122520525Y-35714433D01*
X122654780Y-35724999D01*
X123449999Y-35724999D01*
X123450000Y-35724998D01*
X123450000Y-34393883D01*
X123606433Y-34425000D01*
X123793567Y-34425000D01*
X123950000Y-34393883D01*
X123950000Y-35724999D01*
X124745212Y-35724999D01*
X124745227Y-35724998D01*
X124879474Y-35714433D01*
X125101152Y-35658576D01*
X125309287Y-35564037D01*
X125309296Y-35564032D01*
X125497203Y-35433848D01*
X125658848Y-35272203D01*
X125789032Y-35084296D01*
X125789037Y-35084287D01*
X125883576Y-34876152D01*
X125939433Y-34654474D01*
X125949999Y-34520226D01*
X125950000Y-34520213D01*
X125950000Y-33725000D01*
X124618884Y-33725000D01*
X124650000Y-33568567D01*
X124650000Y-33381433D01*
X124618884Y-33225000D01*
X125949999Y-33225000D01*
X125949999Y-32698596D01*
X125969684Y-32631557D01*
X126022488Y-32585802D01*
X126091646Y-32575858D01*
X126155202Y-32604883D01*
X126161680Y-32610915D01*
X127363181Y-33812416D01*
X127377884Y-33839343D01*
X127394477Y-33865162D01*
X127395368Y-33871362D01*
X127396666Y-33873739D01*
X127399500Y-33900097D01*
X127399500Y-34113330D01*
X127399499Y-34113348D01*
X127399499Y-34279054D01*
X127399498Y-34279054D01*
X127399499Y-34279057D01*
X127440423Y-34431785D01*
X127440424Y-34431787D01*
X127440423Y-34431787D01*
X127449568Y-34447625D01*
X127449569Y-34447626D01*
X127519477Y-34568712D01*
X127519481Y-34568717D01*
X127638349Y-34687585D01*
X127638355Y-34687590D01*
X136015139Y-43064374D01*
X136015149Y-43064385D01*
X136019479Y-43068715D01*
X136019480Y-43068716D01*
X136131284Y-43180520D01*
X136211740Y-43226971D01*
X136242957Y-43244994D01*
X136259214Y-43254380D01*
X136307429Y-43304948D01*
X136320651Y-43373555D01*
X136294683Y-43438419D01*
X136284894Y-43449448D01*
X135805888Y-43928453D01*
X135805887Y-43928454D01*
X135729222Y-44043192D01*
X135676421Y-44170667D01*
X135676418Y-44170679D01*
X135651832Y-44294278D01*
X135651833Y-44294279D01*
X135649500Y-44306008D01*
X135649500Y-45082152D01*
X135629815Y-45149191D01*
X135577011Y-45194946D01*
X135549692Y-45203769D01*
X135416508Y-45230261D01*
X135416498Y-45230264D01*
X135270827Y-45290602D01*
X135270814Y-45290609D01*
X135139125Y-45378602D01*
X135072447Y-45399480D01*
X135070234Y-45399500D01*
X128713014Y-45399500D01*
X128712998Y-45399499D01*
X128705402Y-45399499D01*
X128547287Y-45399499D01*
X128470923Y-45419961D01*
X128394558Y-45440423D01*
X128394553Y-45440426D01*
X128257634Y-45519475D01*
X128257626Y-45519481D01*
X124162181Y-49614927D01*
X124100858Y-49648412D01*
X124031166Y-49643428D01*
X123975233Y-49601556D01*
X123950816Y-49536092D01*
X123950500Y-49527246D01*
X123950500Y-46995681D01*
X123950501Y-46995656D01*
X123950501Y-46809454D01*
X123944210Y-46769737D01*
X123922171Y-46630591D01*
X123886545Y-46520943D01*
X123866212Y-46458363D01*
X123866209Y-46458356D01*
X123852126Y-46430717D01*
X123852125Y-46430716D01*
X123841291Y-46409454D01*
X123783996Y-46297006D01*
X123771039Y-46279172D01*
X123677559Y-46150506D01*
X123677555Y-46150502D01*
X123677553Y-46150499D01*
X123549501Y-46022447D01*
X123549500Y-46022446D01*
X123546389Y-46019335D01*
X123546374Y-46019321D01*
X123149503Y-45622450D01*
X123149501Y-45622448D01*
X123002994Y-45516004D01*
X122981541Y-45505073D01*
X122841639Y-45433788D01*
X122841636Y-45433787D01*
X122669410Y-45377829D01*
X122516425Y-45353598D01*
X122490546Y-45349499D01*
X122309454Y-45349499D01*
X122283575Y-45353598D01*
X122130589Y-45377829D01*
X121958363Y-45433787D01*
X121958360Y-45433788D01*
X121797005Y-45516004D01*
X121713739Y-45576501D01*
X121650499Y-45622448D01*
X121650497Y-45622450D01*
X121650496Y-45622450D01*
X121522450Y-45750496D01*
X121522450Y-45750497D01*
X121522448Y-45750499D01*
X121520557Y-45753102D01*
X121416004Y-45897005D01*
X121333788Y-46058360D01*
X121333787Y-46058363D01*
X121277829Y-46230589D01*
X121266253Y-46303675D01*
X121249499Y-46409454D01*
X121249499Y-46590546D01*
X121260191Y-46658048D01*
X121277829Y-46769410D01*
X121333787Y-46941636D01*
X121333788Y-46941639D01*
X121375669Y-47023833D01*
X121416004Y-47102994D01*
X121522448Y-47249501D01*
X121522450Y-47249503D01*
X121613181Y-47340234D01*
X121646666Y-47401557D01*
X121649500Y-47427915D01*
X121649500Y-51972085D01*
X121629815Y-52039124D01*
X121613181Y-52059766D01*
X121389640Y-52283306D01*
X121328317Y-52316791D01*
X121258625Y-52311807D01*
X121202692Y-52269935D01*
X121180342Y-52219816D01*
X121169738Y-52166510D01*
X121169737Y-52166503D01*
X121137929Y-52089711D01*
X121109397Y-52020827D01*
X121109390Y-52020814D01*
X121021789Y-51889711D01*
X121021786Y-51889707D01*
X121015913Y-51883834D01*
X120982428Y-51822511D01*
X120981977Y-51771961D01*
X120986592Y-51748764D01*
X121000500Y-51678842D01*
X121000500Y-51521158D01*
X121000500Y-51521155D01*
X121000499Y-51521153D01*
X120980734Y-51421789D01*
X120969737Y-51366503D01*
X120956062Y-51333489D01*
X120909397Y-51220827D01*
X120909390Y-51220814D01*
X120821789Y-51089711D01*
X120821786Y-51089707D01*
X120710292Y-50978213D01*
X120710288Y-50978210D01*
X120579185Y-50890609D01*
X120579172Y-50890602D01*
X120433501Y-50830264D01*
X120433489Y-50830261D01*
X120278845Y-50799500D01*
X120278842Y-50799500D01*
X120121158Y-50799500D01*
X120121155Y-50799500D01*
X119966510Y-50830261D01*
X119966498Y-50830264D01*
X119820827Y-50890602D01*
X119820814Y-50890609D01*
X119689711Y-50978210D01*
X119689707Y-50978213D01*
X119578213Y-51089707D01*
X119578210Y-51089711D01*
X119490609Y-51220814D01*
X119490602Y-51220827D01*
X119430264Y-51366498D01*
X119430261Y-51366508D01*
X119399362Y-51521848D01*
X119366977Y-51583759D01*
X119365426Y-51585337D01*
X114787584Y-56163181D01*
X114726261Y-56196666D01*
X114699903Y-56199500D01*
X100679766Y-56199500D01*
X100612727Y-56179815D01*
X100610875Y-56178602D01*
X100479185Y-56090609D01*
X100479172Y-56090602D01*
X100333501Y-56030264D01*
X100333489Y-56030261D01*
X100178845Y-55999500D01*
X100178842Y-55999500D01*
X100021158Y-55999500D01*
X100021155Y-55999500D01*
X99866510Y-56030261D01*
X99866498Y-56030264D01*
X99720827Y-56090602D01*
X99720814Y-56090609D01*
X99589711Y-56178210D01*
X99589707Y-56178213D01*
X99478213Y-56289707D01*
X99478210Y-56289711D01*
X99390609Y-56420814D01*
X99390602Y-56420827D01*
X99330264Y-56566498D01*
X99330261Y-56566510D01*
X99299500Y-56721153D01*
X99299500Y-56878846D01*
X99330261Y-57033489D01*
X99330264Y-57033501D01*
X99390602Y-57179172D01*
X99390609Y-57179185D01*
X99478210Y-57310288D01*
X99478213Y-57310292D01*
X99589705Y-57421784D01*
X99589711Y-57421789D01*
X99602159Y-57430106D01*
X99646966Y-57483716D01*
X99657272Y-57533210D01*
X99657272Y-57594390D01*
X99688033Y-57749033D01*
X99688036Y-57749045D01*
X99748374Y-57894716D01*
X99748381Y-57894729D01*
X99835982Y-58025832D01*
X99835985Y-58025836D01*
X99890053Y-58079903D01*
X99923539Y-58141226D01*
X99923928Y-58184724D01*
X99924768Y-58184807D01*
X99924171Y-58190869D01*
X99924171Y-58348557D01*
X99954932Y-58503200D01*
X99954935Y-58503212D01*
X100015273Y-58648883D01*
X100015280Y-58648896D01*
X100102881Y-58779999D01*
X100102884Y-58780003D01*
X100214378Y-58891497D01*
X100214382Y-58891500D01*
X100345485Y-58979101D01*
X100345498Y-58979108D01*
X100491169Y-59039446D01*
X100491174Y-59039448D01*
X100645824Y-59070210D01*
X100645827Y-59070211D01*
X100645829Y-59070211D01*
X100803515Y-59070211D01*
X100803516Y-59070210D01*
X100958168Y-59039448D01*
X101103850Y-58979105D01*
X101191710Y-58920399D01*
X101235546Y-58891109D01*
X101302224Y-58870231D01*
X101304437Y-58870211D01*
X114503374Y-58870211D01*
X114570413Y-58889896D01*
X114616168Y-58942700D01*
X114626112Y-59011858D01*
X114597087Y-59075414D01*
X114591055Y-59081891D01*
X112159557Y-61513389D01*
X109750502Y-63922444D01*
X109622447Y-64050498D01*
X109543199Y-64159576D01*
X109543198Y-64159577D01*
X109516004Y-64197005D01*
X109433788Y-64358360D01*
X109433787Y-64358363D01*
X109377829Y-64530589D01*
X109349499Y-64709455D01*
X109349499Y-64895656D01*
X109349500Y-64895681D01*
X109349500Y-66590551D01*
X109377829Y-66769410D01*
X109433787Y-66941636D01*
X109433788Y-66941639D01*
X109516006Y-67102997D01*
X109622441Y-67249494D01*
X109622445Y-67249499D01*
X109750500Y-67377554D01*
X109750505Y-67377558D01*
X109878287Y-67470396D01*
X109897006Y-67483996D01*
X110002484Y-67537740D01*
X110058360Y-67566211D01*
X110058363Y-67566212D01*
X110144476Y-67594191D01*
X110230591Y-67622171D01*
X110313429Y-67635291D01*
X110409449Y-67650500D01*
X110409454Y-67650500D01*
X110590551Y-67650500D01*
X110677259Y-67636765D01*
X110769409Y-67622171D01*
X110941639Y-67566211D01*
X111102994Y-67483996D01*
X111249501Y-67377553D01*
X111377553Y-67249501D01*
X111483996Y-67102994D01*
X111566211Y-66941639D01*
X111622171Y-66769409D01*
X111639695Y-66658768D01*
X111650500Y-66590551D01*
X111650500Y-65327915D01*
X111670185Y-65260876D01*
X111686819Y-65240234D01*
X116387819Y-60539234D01*
X116449142Y-60505749D01*
X116518834Y-60510733D01*
X116574767Y-60552605D01*
X116599184Y-60618069D01*
X116599500Y-60626915D01*
X116599500Y-61838330D01*
X116599499Y-61838348D01*
X116599499Y-62004054D01*
X116599498Y-62004054D01*
X116619988Y-62080520D01*
X116640423Y-62156785D01*
X116650651Y-62174500D01*
X116719477Y-62293712D01*
X116719481Y-62293717D01*
X116838349Y-62412585D01*
X116838355Y-62412590D01*
X117265425Y-62839660D01*
X117298910Y-62900983D01*
X117299361Y-62903149D01*
X117330261Y-63058491D01*
X117330264Y-63058501D01*
X117390602Y-63204172D01*
X117390609Y-63204185D01*
X117478210Y-63335288D01*
X117478213Y-63335292D01*
X117589707Y-63446786D01*
X117589711Y-63446789D01*
X117720814Y-63534390D01*
X117720827Y-63534397D01*
X117866498Y-63594735D01*
X117866503Y-63594737D01*
X118021153Y-63625499D01*
X118021156Y-63625500D01*
X118021158Y-63625500D01*
X118178844Y-63625500D01*
X118178845Y-63625499D01*
X118333497Y-63594737D01*
X118479179Y-63534394D01*
X118610289Y-63446789D01*
X118721789Y-63335289D01*
X118809394Y-63204179D01*
X118869737Y-63058497D01*
X118900500Y-62903842D01*
X118900500Y-62746158D01*
X118900500Y-62746155D01*
X118900499Y-62746153D01*
X118869737Y-62591503D01*
X118863056Y-62575374D01*
X118809397Y-62445827D01*
X118809390Y-62445814D01*
X118721789Y-62314711D01*
X118721786Y-62314707D01*
X118610292Y-62203213D01*
X118610288Y-62203210D01*
X118479185Y-62115609D01*
X118479172Y-62115602D01*
X118333501Y-62055264D01*
X118333491Y-62055261D01*
X118178149Y-62024361D01*
X118161392Y-62015595D01*
X118142914Y-62011576D01*
X118117877Y-61992833D01*
X118116238Y-61991976D01*
X118114660Y-61990425D01*
X118030934Y-61906699D01*
X117997449Y-61845376D01*
X118002433Y-61775684D01*
X118044305Y-61719751D01*
X118094424Y-61697401D01*
X118156259Y-61685100D01*
X118233497Y-61669737D01*
X118379179Y-61609394D01*
X118510289Y-61521789D01*
X118621789Y-61410289D01*
X118709394Y-61279179D01*
X118769737Y-61133497D01*
X118800500Y-60978842D01*
X118800500Y-60821158D01*
X118800500Y-60821155D01*
X118800499Y-60821153D01*
X118786255Y-60749546D01*
X118769737Y-60666503D01*
X118729870Y-60570254D01*
X118709397Y-60520827D01*
X118709390Y-60520814D01*
X118621398Y-60389125D01*
X118615747Y-60371078D01*
X118605523Y-60355169D01*
X118601071Y-60324207D01*
X118600520Y-60322447D01*
X118600500Y-60320234D01*
X118600500Y-60107702D01*
X118620185Y-60040663D01*
X118672989Y-59994908D01*
X118742147Y-59984964D01*
X118748667Y-59986080D01*
X118805435Y-59997372D01*
X118821157Y-60000500D01*
X118821158Y-60000500D01*
X118978844Y-60000500D01*
X118978845Y-60000499D01*
X119133497Y-59969737D01*
X119220989Y-59933497D01*
X119277864Y-59909939D01*
X119325316Y-59900500D01*
X121468996Y-59900500D01*
X121560040Y-59882389D01*
X121604328Y-59873580D01*
X121709931Y-59829838D01*
X121731807Y-59820777D01*
X121731808Y-59820776D01*
X121731811Y-59820775D01*
X121846543Y-59744114D01*
X122753838Y-58836819D01*
X122815161Y-58803334D01*
X122841519Y-58800500D01*
X134858481Y-58800500D01*
X134925520Y-58820185D01*
X134946162Y-58836819D01*
X136003928Y-59894585D01*
X136030808Y-59934814D01*
X136090602Y-60079172D01*
X136090609Y-60079185D01*
X136178210Y-60210288D01*
X136178213Y-60210292D01*
X136289707Y-60321786D01*
X136289711Y-60321789D01*
X136420814Y-60409390D01*
X136420827Y-60409397D01*
X136566498Y-60469735D01*
X136566503Y-60469737D01*
X136676987Y-60491713D01*
X136699691Y-60496230D01*
X136761602Y-60528615D01*
X136796176Y-60589330D01*
X136799500Y-60617847D01*
X136799500Y-70049902D01*
X136779815Y-70116941D01*
X136763181Y-70137583D01*
X134993680Y-71907083D01*
X134932357Y-71940568D01*
X134867681Y-71937333D01*
X134757698Y-71901597D01*
X134626271Y-71880781D01*
X134586611Y-71874500D01*
X134413389Y-71874500D01*
X134373728Y-71880781D01*
X134242302Y-71901597D01*
X134077552Y-71955128D01*
X133923211Y-72033768D01*
X133783073Y-72135585D01*
X133675166Y-72243492D01*
X133613843Y-72276976D01*
X133544151Y-72271992D01*
X133488218Y-72230120D01*
X133481946Y-72220906D01*
X133442317Y-72156656D01*
X133318345Y-72032684D01*
X133169124Y-71940643D01*
X133169119Y-71940641D01*
X133002697Y-71885494D01*
X133002690Y-71885493D01*
X132899986Y-71875000D01*
X132750000Y-71875000D01*
X132750000Y-72969670D01*
X132730255Y-72949925D01*
X132644745Y-72900556D01*
X132549370Y-72875000D01*
X132450630Y-72875000D01*
X132355255Y-72900556D01*
X132269745Y-72949925D01*
X132250000Y-72969670D01*
X132250000Y-71875000D01*
X132100027Y-71875000D01*
X132100012Y-71875001D01*
X131997302Y-71885494D01*
X131830880Y-71940641D01*
X131830875Y-71940643D01*
X131681654Y-72032684D01*
X131557684Y-72156654D01*
X131465643Y-72305875D01*
X131465641Y-72305880D01*
X131410494Y-72472302D01*
X131410493Y-72472309D01*
X131400000Y-72575013D01*
X131400000Y-73000000D01*
X132219670Y-73000000D01*
X132199925Y-73019745D01*
X132150556Y-73105255D01*
X132125000Y-73200630D01*
X132125000Y-73299370D01*
X132150556Y-73394745D01*
X132199925Y-73480255D01*
X132219670Y-73500000D01*
X131400001Y-73500000D01*
X131400001Y-73924986D01*
X131410494Y-74027697D01*
X131465641Y-74194119D01*
X131465643Y-74194124D01*
X131557684Y-74343345D01*
X131681654Y-74467315D01*
X131830875Y-74559356D01*
X131830880Y-74559358D01*
X131997302Y-74614505D01*
X131997309Y-74614506D01*
X132100019Y-74624999D01*
X132249999Y-74624999D01*
X132250000Y-74624998D01*
X132250000Y-73530330D01*
X132269745Y-73550075D01*
X132355255Y-73599444D01*
X132450630Y-73625000D01*
X132549370Y-73625000D01*
X132644745Y-73599444D01*
X132730255Y-73550075D01*
X132750000Y-73530330D01*
X132750000Y-74624999D01*
X132899972Y-74624999D01*
X132899986Y-74624998D01*
X133002697Y-74614505D01*
X133169119Y-74559358D01*
X133169124Y-74559356D01*
X133318345Y-74467315D01*
X133442315Y-74343345D01*
X133481945Y-74279094D01*
X133533893Y-74232368D01*
X133602855Y-74221145D01*
X133666937Y-74248988D01*
X133675166Y-74256508D01*
X133783072Y-74364414D01*
X133923212Y-74466232D01*
X134077555Y-74544873D01*
X134242299Y-74598402D01*
X134413389Y-74625500D01*
X134413390Y-74625500D01*
X134586610Y-74625500D01*
X134586611Y-74625500D01*
X134757701Y-74598402D01*
X134922445Y-74544873D01*
X135076788Y-74466232D01*
X135216928Y-74364414D01*
X135339414Y-74241928D01*
X135399682Y-74158975D01*
X135455012Y-74116311D01*
X135524626Y-74110332D01*
X135586421Y-74142938D01*
X135600315Y-74158973D01*
X135660586Y-74241928D01*
X135783072Y-74364414D01*
X135923212Y-74466232D01*
X136077555Y-74544873D01*
X136242299Y-74598402D01*
X136413389Y-74625500D01*
X136413390Y-74625500D01*
X136586610Y-74625500D01*
X136586611Y-74625500D01*
X136757701Y-74598402D01*
X136922445Y-74544873D01*
X137076788Y-74466232D01*
X137216928Y-74364414D01*
X137339414Y-74241928D01*
X137441232Y-74101788D01*
X137519873Y-73947445D01*
X137573402Y-73782701D01*
X137600500Y-73611611D01*
X137600500Y-73050097D01*
X137620185Y-72983058D01*
X137636819Y-72962416D01*
X137881936Y-72717299D01*
X138280520Y-72318716D01*
X138359577Y-72181784D01*
X138400501Y-72029057D01*
X138400501Y-71870942D01*
X138400501Y-71863347D01*
X138400500Y-71863329D01*
X138400500Y-69479983D01*
X141899500Y-69479983D01*
X141899500Y-71030001D01*
X141899501Y-71030018D01*
X141910000Y-71132796D01*
X141910001Y-71132799D01*
X141955894Y-71271294D01*
X141965186Y-71299334D01*
X142057288Y-71448656D01*
X142181344Y-71572712D01*
X142330666Y-71664814D01*
X142497203Y-71719999D01*
X142599991Y-71730500D01*
X143900008Y-71730499D01*
X144002797Y-71719999D01*
X144169334Y-71664814D01*
X144318656Y-71572712D01*
X144442712Y-71448656D01*
X144534814Y-71299334D01*
X144534814Y-71299331D01*
X144538178Y-71293879D01*
X144590126Y-71247154D01*
X144659088Y-71235931D01*
X144723170Y-71263774D01*
X144731398Y-71271294D01*
X144870213Y-71410109D01*
X145042179Y-71535048D01*
X145042181Y-71535049D01*
X145042184Y-71535051D01*
X145231588Y-71631557D01*
X145433757Y-71697246D01*
X145643713Y-71730500D01*
X145643714Y-71730500D01*
X145856286Y-71730500D01*
X145856287Y-71730500D01*
X146066243Y-71697246D01*
X146268412Y-71631557D01*
X146457816Y-71535051D01*
X146533522Y-71480048D01*
X146629786Y-71410109D01*
X146629788Y-71410106D01*
X146629792Y-71410104D01*
X146780104Y-71259792D01*
X146899683Y-71095204D01*
X146955011Y-71052540D01*
X147024624Y-71046561D01*
X147086420Y-71079166D01*
X147100313Y-71095199D01*
X147182830Y-71208774D01*
X147219896Y-71259792D01*
X147370213Y-71410109D01*
X147542179Y-71535048D01*
X147542181Y-71535049D01*
X147542184Y-71535051D01*
X147731588Y-71631557D01*
X147933757Y-71697246D01*
X148143713Y-71730500D01*
X148143714Y-71730500D01*
X148356286Y-71730500D01*
X148356287Y-71730500D01*
X148566243Y-71697246D01*
X148768412Y-71631557D01*
X148957816Y-71535051D01*
X149033522Y-71480048D01*
X149129786Y-71410109D01*
X149129788Y-71410106D01*
X149129792Y-71410104D01*
X149280104Y-71259792D01*
X149399683Y-71095204D01*
X149455011Y-71052540D01*
X149524624Y-71046561D01*
X149586420Y-71079166D01*
X149600313Y-71095199D01*
X149682830Y-71208774D01*
X149719896Y-71259792D01*
X149870213Y-71410109D01*
X150042179Y-71535048D01*
X150042181Y-71535049D01*
X150042184Y-71535051D01*
X150231588Y-71631557D01*
X150433757Y-71697246D01*
X150643713Y-71730500D01*
X150643714Y-71730500D01*
X150856286Y-71730500D01*
X150856287Y-71730500D01*
X151066243Y-71697246D01*
X151268412Y-71631557D01*
X151457816Y-71535051D01*
X151533522Y-71480048D01*
X151629786Y-71410109D01*
X151629788Y-71410106D01*
X151629792Y-71410104D01*
X151780104Y-71259792D01*
X151780106Y-71259788D01*
X151780109Y-71259786D01*
X151905048Y-71087820D01*
X151905047Y-71087820D01*
X151905051Y-71087816D01*
X152001557Y-70898412D01*
X152067246Y-70696243D01*
X152100500Y-70486287D01*
X152100500Y-70023713D01*
X152080918Y-69900075D01*
X152067924Y-69818036D01*
X152067246Y-69813758D01*
X152049375Y-69758757D01*
X152001557Y-69611588D01*
X151905051Y-69422184D01*
X151905049Y-69422181D01*
X151905048Y-69422179D01*
X151780109Y-69250213D01*
X151629786Y-69099890D01*
X151457820Y-68974951D01*
X151268414Y-68878444D01*
X151268413Y-68878443D01*
X151268412Y-68878443D01*
X151066243Y-68812754D01*
X151066241Y-68812753D01*
X151066240Y-68812753D01*
X150904957Y-68787208D01*
X150856287Y-68779500D01*
X150643713Y-68779500D01*
X150595042Y-68787208D01*
X150433760Y-68812753D01*
X150231585Y-68878444D01*
X150042179Y-68974951D01*
X149870213Y-69099890D01*
X149719894Y-69250209D01*
X149719890Y-69250214D01*
X149600318Y-69414793D01*
X149544989Y-69457459D01*
X149475375Y-69463438D01*
X149413580Y-69430833D01*
X149399682Y-69414793D01*
X149280109Y-69250214D01*
X149280105Y-69250209D01*
X149129786Y-69099890D01*
X148957820Y-68974951D01*
X148768414Y-68878444D01*
X148768413Y-68878443D01*
X148768412Y-68878443D01*
X148566243Y-68812754D01*
X148566241Y-68812753D01*
X148566240Y-68812753D01*
X148404957Y-68787208D01*
X148356287Y-68779500D01*
X148143713Y-68779500D01*
X148095042Y-68787208D01*
X147933760Y-68812753D01*
X147731585Y-68878444D01*
X147542179Y-68974951D01*
X147370213Y-69099890D01*
X147219894Y-69250209D01*
X147219890Y-69250214D01*
X147100318Y-69414793D01*
X147044989Y-69457459D01*
X146975375Y-69463438D01*
X146913580Y-69430833D01*
X146899682Y-69414793D01*
X146780109Y-69250214D01*
X146780105Y-69250209D01*
X146629786Y-69099890D01*
X146457820Y-68974951D01*
X146268414Y-68878444D01*
X146268413Y-68878443D01*
X146268412Y-68878443D01*
X146066243Y-68812754D01*
X146066241Y-68812753D01*
X146066240Y-68812753D01*
X145904957Y-68787208D01*
X145856287Y-68779500D01*
X145643713Y-68779500D01*
X145595042Y-68787208D01*
X145433760Y-68812753D01*
X145231585Y-68878444D01*
X145042179Y-68974951D01*
X144870215Y-69099889D01*
X144731398Y-69238706D01*
X144670075Y-69272190D01*
X144600383Y-69267206D01*
X144544450Y-69225334D01*
X144538178Y-69216120D01*
X144442712Y-69061344D01*
X144318657Y-68937289D01*
X144318656Y-68937288D01*
X144169334Y-68845186D01*
X144002797Y-68790001D01*
X144002795Y-68790000D01*
X143900010Y-68779500D01*
X142599998Y-68779500D01*
X142599981Y-68779501D01*
X142497203Y-68790000D01*
X142497200Y-68790001D01*
X142330668Y-68845185D01*
X142330663Y-68845187D01*
X142181342Y-68937289D01*
X142057289Y-69061342D01*
X141965187Y-69210663D01*
X141965185Y-69210668D01*
X141963024Y-69217190D01*
X141910001Y-69377203D01*
X141910001Y-69377204D01*
X141910000Y-69377204D01*
X141899500Y-69479983D01*
X138400500Y-69479983D01*
X138400500Y-58021153D01*
X141799500Y-58021153D01*
X141799500Y-58178846D01*
X141830261Y-58333489D01*
X141830264Y-58333501D01*
X141890602Y-58479172D01*
X141890609Y-58479185D01*
X141978210Y-58610288D01*
X141978213Y-58610292D01*
X142089710Y-58721789D01*
X142220815Y-58809390D01*
X142220821Y-58809394D01*
X142222945Y-58810274D01*
X142223885Y-58811031D01*
X142226192Y-58812264D01*
X142225958Y-58812701D01*
X142277349Y-58854107D01*
X142299421Y-58920399D01*
X142299500Y-58924837D01*
X142299500Y-62720234D01*
X142279815Y-62787273D01*
X142278602Y-62789125D01*
X142190609Y-62920814D01*
X142190602Y-62920827D01*
X142130264Y-63066498D01*
X142130261Y-63066510D01*
X142099500Y-63221153D01*
X142099500Y-63378846D01*
X142130261Y-63533489D01*
X142130264Y-63533501D01*
X142190602Y-63679172D01*
X142190609Y-63679185D01*
X142278210Y-63810288D01*
X142278213Y-63810292D01*
X142389707Y-63921786D01*
X142389711Y-63921789D01*
X142520814Y-64009390D01*
X142520827Y-64009397D01*
X142666498Y-64069735D01*
X142666503Y-64069737D01*
X142821153Y-64100499D01*
X142821156Y-64100500D01*
X142821158Y-64100500D01*
X142978844Y-64100500D01*
X142978845Y-64100499D01*
X143133497Y-64069737D01*
X143279179Y-64009394D01*
X143410289Y-63921789D01*
X143521789Y-63810289D01*
X143609394Y-63679179D01*
X143669737Y-63533497D01*
X143700500Y-63378842D01*
X143700500Y-63221158D01*
X143700500Y-63221155D01*
X143700499Y-63221153D01*
X143669738Y-63066510D01*
X143669737Y-63066503D01*
X143669735Y-63066498D01*
X143609397Y-62920827D01*
X143609390Y-62920814D01*
X143521398Y-62789125D01*
X143500520Y-62722447D01*
X143500500Y-62720234D01*
X143500500Y-58320944D01*
X143500499Y-58320940D01*
X143494754Y-58299500D01*
X143490944Y-58285281D01*
X143459577Y-58168215D01*
X143412427Y-58086549D01*
X143409013Y-58077817D01*
X143407279Y-58057966D01*
X143400500Y-58032665D01*
X143400500Y-58021155D01*
X143400499Y-58021153D01*
X143392276Y-57979815D01*
X143369737Y-57866503D01*
X143309534Y-57721158D01*
X143309397Y-57720827D01*
X143309390Y-57720814D01*
X143221789Y-57589711D01*
X143221786Y-57589707D01*
X143110292Y-57478213D01*
X143110288Y-57478210D01*
X142979185Y-57390609D01*
X142979172Y-57390602D01*
X142833501Y-57330264D01*
X142833489Y-57330261D01*
X142678845Y-57299500D01*
X142678842Y-57299500D01*
X142521158Y-57299500D01*
X142521155Y-57299500D01*
X142366510Y-57330261D01*
X142366498Y-57330264D01*
X142220827Y-57390602D01*
X142220814Y-57390609D01*
X142089711Y-57478210D01*
X142089707Y-57478213D01*
X141978213Y-57589707D01*
X141978210Y-57589711D01*
X141890609Y-57720814D01*
X141890602Y-57720827D01*
X141830264Y-57866498D01*
X141830261Y-57866510D01*
X141799500Y-58021153D01*
X138400500Y-58021153D01*
X138400500Y-50165783D01*
X138420185Y-50098744D01*
X138436819Y-50078102D01*
X139078103Y-49436819D01*
X139139426Y-49403334D01*
X139165784Y-49400500D01*
X143932666Y-49400500D01*
X143978119Y-49409131D01*
X143986687Y-49412506D01*
X144068216Y-49459577D01*
X144180019Y-49489534D01*
X144220942Y-49500500D01*
X144220943Y-49500500D01*
X144720234Y-49500500D01*
X144787273Y-49520185D01*
X144789125Y-49521398D01*
X144920814Y-49609390D01*
X144920827Y-49609397D01*
X145060914Y-49667422D01*
X145066503Y-49669737D01*
X145221153Y-49700499D01*
X145221156Y-49700500D01*
X145221158Y-49700500D01*
X145378844Y-49700500D01*
X145378845Y-49700499D01*
X145533497Y-49669737D01*
X145679179Y-49609394D01*
X145810289Y-49521789D01*
X145921789Y-49410289D01*
X145942565Y-49379194D01*
X145996174Y-49334389D01*
X146065499Y-49325679D01*
X146128528Y-49355832D01*
X146133349Y-49360402D01*
X146441602Y-49668655D01*
X146475087Y-49729978D01*
X146470103Y-49799670D01*
X146428231Y-49855603D01*
X146378114Y-49877953D01*
X146366507Y-49880261D01*
X146366498Y-49880264D01*
X146220827Y-49940602D01*
X146220814Y-49940609D01*
X146089711Y-50028210D01*
X146089707Y-50028213D01*
X145978211Y-50139709D01*
X145975086Y-50144388D01*
X145921475Y-50189194D01*
X145871982Y-50199500D01*
X142279766Y-50199500D01*
X142212727Y-50179815D01*
X142210875Y-50178602D01*
X142079185Y-50090609D01*
X142079172Y-50090602D01*
X141933501Y-50030264D01*
X141933489Y-50030261D01*
X141778845Y-49999500D01*
X141778842Y-49999500D01*
X141621158Y-49999500D01*
X141621155Y-49999500D01*
X141466510Y-50030261D01*
X141466498Y-50030264D01*
X141320827Y-50090602D01*
X141320814Y-50090609D01*
X141189711Y-50178210D01*
X141189707Y-50178213D01*
X141078213Y-50289707D01*
X141078210Y-50289711D01*
X140990609Y-50420814D01*
X140990602Y-50420827D01*
X140930264Y-50566498D01*
X140930261Y-50566510D01*
X140899500Y-50721153D01*
X140899500Y-50878846D01*
X140930261Y-51033489D01*
X140930264Y-51033501D01*
X140990602Y-51179172D01*
X140990609Y-51179185D01*
X141078210Y-51310288D01*
X141078213Y-51310292D01*
X141189707Y-51421786D01*
X141189711Y-51421789D01*
X141320814Y-51509390D01*
X141320827Y-51509397D01*
X141453507Y-51564354D01*
X141466503Y-51569737D01*
X141621153Y-51600499D01*
X141621156Y-51600500D01*
X141621158Y-51600500D01*
X141778844Y-51600500D01*
X141778845Y-51600499D01*
X141933497Y-51569737D01*
X142051592Y-51520821D01*
X142079172Y-51509397D01*
X142079172Y-51509396D01*
X142079179Y-51509394D01*
X142124399Y-51479179D01*
X142210875Y-51421398D01*
X142277553Y-51400520D01*
X142279766Y-51400500D01*
X146295396Y-51400500D01*
X146342844Y-51409937D01*
X146366503Y-51419737D01*
X146366508Y-51419738D01*
X146366511Y-51419739D01*
X146521153Y-51450499D01*
X146521156Y-51450500D01*
X146521158Y-51450500D01*
X146678844Y-51450500D01*
X146678845Y-51450499D01*
X146833497Y-51419737D01*
X146979179Y-51359394D01*
X147110289Y-51271789D01*
X147221789Y-51160289D01*
X147309394Y-51029179D01*
X147312719Y-51021153D01*
X147366794Y-50890602D01*
X147369737Y-50883497D01*
X147372045Y-50871889D01*
X147404427Y-50809980D01*
X147465141Y-50775403D01*
X147534910Y-50779139D01*
X147581344Y-50808397D01*
X149317492Y-52544545D01*
X149350977Y-52605868D01*
X149345993Y-52675560D01*
X149328734Y-52705554D01*
X149329081Y-52705786D01*
X149238095Y-52841954D01*
X149238088Y-52841967D01*
X149177750Y-52987638D01*
X149177747Y-52987648D01*
X149146847Y-53142990D01*
X149114462Y-53204901D01*
X149112911Y-53206479D01*
X148057658Y-54261731D01*
X147996335Y-54295216D01*
X147994170Y-54295667D01*
X147942241Y-54305996D01*
X147942235Y-54305998D01*
X147796562Y-54366337D01*
X147796549Y-54366344D01*
X147665446Y-54453945D01*
X147665442Y-54453948D01*
X147553948Y-54565442D01*
X147553945Y-54565446D01*
X147466344Y-54696549D01*
X147466337Y-54696562D01*
X147405999Y-54842233D01*
X147405996Y-54842245D01*
X147375235Y-54996888D01*
X147375235Y-55154581D01*
X147405996Y-55309224D01*
X147405999Y-55309236D01*
X147466337Y-55454907D01*
X147466344Y-55454920D01*
X147553945Y-55586023D01*
X147553948Y-55586027D01*
X147665442Y-55697521D01*
X147665446Y-55697524D01*
X147796549Y-55785125D01*
X147796562Y-55785132D01*
X147919184Y-55835923D01*
X147942238Y-55845472D01*
X148059078Y-55868713D01*
X148096888Y-55876234D01*
X148096891Y-55876235D01*
X148096893Y-55876235D01*
X148122359Y-55876235D01*
X148189398Y-55895920D01*
X148225461Y-55931344D01*
X148278210Y-56010288D01*
X148278213Y-56010292D01*
X148389707Y-56121786D01*
X148389711Y-56121789D01*
X148520814Y-56209390D01*
X148520827Y-56209397D01*
X148657510Y-56266012D01*
X148666503Y-56269737D01*
X148821153Y-56300499D01*
X148821156Y-56300500D01*
X148821158Y-56300500D01*
X148978844Y-56300500D01*
X148978845Y-56300499D01*
X149133497Y-56269737D01*
X149279179Y-56209394D01*
X149279185Y-56209390D01*
X149410875Y-56121398D01*
X149477553Y-56100520D01*
X149479766Y-56100500D01*
X150913331Y-56100500D01*
X150913347Y-56100501D01*
X150920943Y-56100501D01*
X151079054Y-56100501D01*
X151079057Y-56100501D01*
X151231785Y-56059577D01*
X151282558Y-56030263D01*
X151368716Y-55980520D01*
X151480520Y-55868716D01*
X151480520Y-55868714D01*
X151490720Y-55858515D01*
X151490723Y-55858510D01*
X151600995Y-55748239D01*
X151662315Y-55714757D01*
X151732007Y-55719741D01*
X151787940Y-55761613D01*
X151812357Y-55827078D01*
X151812673Y-55835923D01*
X151812673Y-55965673D01*
X151843434Y-56120316D01*
X151843437Y-56120328D01*
X151903775Y-56265999D01*
X151903782Y-56266012D01*
X151944627Y-56327140D01*
X151987031Y-56390602D01*
X151991775Y-56397701D01*
X152012653Y-56464378D01*
X152012673Y-56466592D01*
X152012673Y-58126503D01*
X152012672Y-58126521D01*
X152012672Y-58292227D01*
X152012671Y-58292227D01*
X152023730Y-58333497D01*
X152053596Y-58444958D01*
X152056792Y-58450494D01*
X152056794Y-58450501D01*
X152056796Y-58450501D01*
X152132648Y-58581882D01*
X152132654Y-58581890D01*
X152251522Y-58700758D01*
X152251528Y-58700763D01*
X159515139Y-65964374D01*
X159515149Y-65964385D01*
X159519479Y-65968715D01*
X159519480Y-65968716D01*
X159631284Y-66080520D01*
X159701088Y-66120821D01*
X159768215Y-66159577D01*
X159920943Y-66200501D01*
X159920946Y-66200501D01*
X160086653Y-66200501D01*
X160086669Y-66200500D01*
X167387815Y-66200500D01*
X167454854Y-66220185D01*
X167488131Y-66251612D01*
X167535586Y-66316928D01*
X167658072Y-66439414D01*
X167658078Y-66439418D01*
X167741023Y-66499683D01*
X167783689Y-66555013D01*
X167789667Y-66624626D01*
X167757061Y-66686421D01*
X167741023Y-66700317D01*
X167658078Y-66760581D01*
X167658069Y-66760588D01*
X167535588Y-66883069D01*
X167535588Y-66883070D01*
X167535586Y-66883072D01*
X167493037Y-66941636D01*
X167433768Y-67023211D01*
X167355128Y-67177552D01*
X167301597Y-67342302D01*
X167279156Y-67483993D01*
X167274500Y-67513389D01*
X167274500Y-67686611D01*
X167301598Y-67857701D01*
X167355127Y-68022445D01*
X167433768Y-68176788D01*
X167535586Y-68316928D01*
X167535588Y-68316930D01*
X167643491Y-68424833D01*
X167676976Y-68486156D01*
X167671992Y-68555848D01*
X167630120Y-68611781D01*
X167620907Y-68618053D01*
X167556654Y-68657684D01*
X167432684Y-68781654D01*
X167340643Y-68930875D01*
X167340641Y-68930880D01*
X167285494Y-69097302D01*
X167285493Y-69097309D01*
X167275000Y-69200013D01*
X167275000Y-69350000D01*
X168369670Y-69350000D01*
X168349925Y-69369745D01*
X168300556Y-69455255D01*
X168275000Y-69550630D01*
X168275000Y-69649370D01*
X168300556Y-69744745D01*
X168349925Y-69830255D01*
X168369670Y-69850000D01*
X167275001Y-69850000D01*
X167275001Y-69999986D01*
X167285494Y-70102697D01*
X167340641Y-70269119D01*
X167340643Y-70269124D01*
X167432684Y-70418345D01*
X167556654Y-70542315D01*
X167705875Y-70634356D01*
X167705880Y-70634358D01*
X167872302Y-70689505D01*
X167872309Y-70689506D01*
X167975019Y-70699999D01*
X168399999Y-70699999D01*
X168400000Y-70699998D01*
X168400000Y-69880330D01*
X168419745Y-69900075D01*
X168505255Y-69949444D01*
X168600630Y-69975000D01*
X168699370Y-69975000D01*
X168794745Y-69949444D01*
X168880255Y-69900075D01*
X168900000Y-69880330D01*
X168900000Y-70699999D01*
X169324972Y-70699999D01*
X169324986Y-70699998D01*
X169427697Y-70689505D01*
X169594119Y-70634358D01*
X169594124Y-70634356D01*
X169743345Y-70542315D01*
X169867315Y-70418345D01*
X169959356Y-70269124D01*
X169959358Y-70269119D01*
X170014505Y-70102697D01*
X170014506Y-70102690D01*
X170024999Y-69999986D01*
X170025000Y-69999973D01*
X170025000Y-69850000D01*
X168930330Y-69850000D01*
X168950075Y-69830255D01*
X168999444Y-69744745D01*
X169025000Y-69649370D01*
X169025000Y-69550630D01*
X168999444Y-69455255D01*
X168950075Y-69369745D01*
X168930330Y-69350000D01*
X170024999Y-69350000D01*
X170024999Y-69200028D01*
X170024998Y-69200013D01*
X170014505Y-69097302D01*
X169959358Y-68930880D01*
X169959356Y-68930875D01*
X169867315Y-68781654D01*
X169743343Y-68657682D01*
X169679093Y-68618053D01*
X169632368Y-68566105D01*
X169621145Y-68497143D01*
X169648988Y-68433061D01*
X169656486Y-68424855D01*
X169764414Y-68316928D01*
X169866232Y-68176788D01*
X169944873Y-68022445D01*
X169998402Y-67857701D01*
X170025500Y-67686611D01*
X170025500Y-67513389D01*
X169998402Y-67342299D01*
X169997348Y-67339055D01*
X169997310Y-67337755D01*
X169997265Y-67337564D01*
X169997305Y-67337554D01*
X169995353Y-67269214D01*
X170027596Y-67213059D01*
X174537821Y-62702835D01*
X174599142Y-62669352D01*
X174668834Y-62674336D01*
X174724767Y-62716208D01*
X174749184Y-62781672D01*
X174749500Y-62790518D01*
X174749500Y-79175500D01*
X174729815Y-79242539D01*
X174677011Y-79288294D01*
X174625500Y-79299500D01*
X68574500Y-79299500D01*
X68507461Y-79279815D01*
X68461706Y-79227011D01*
X68450500Y-79175500D01*
X68450500Y-69424983D01*
X117549500Y-69424983D01*
X117549500Y-70975001D01*
X117549501Y-70975018D01*
X117560000Y-71077796D01*
X117560001Y-71077799D01*
X117615185Y-71244331D01*
X117615187Y-71244336D01*
X117631815Y-71271294D01*
X117707288Y-71393656D01*
X117831344Y-71517712D01*
X117980666Y-71609814D01*
X118147203Y-71664999D01*
X118249991Y-71675500D01*
X119550008Y-71675499D01*
X119652797Y-71664999D01*
X119819334Y-71609814D01*
X119968656Y-71517712D01*
X120092712Y-71393656D01*
X120184814Y-71244334D01*
X120184814Y-71244331D01*
X120188178Y-71238879D01*
X120240126Y-71192154D01*
X120309088Y-71180931D01*
X120373170Y-71208774D01*
X120381398Y-71216294D01*
X120520213Y-71355109D01*
X120692179Y-71480048D01*
X120692181Y-71480049D01*
X120692184Y-71480051D01*
X120881588Y-71576557D01*
X121083757Y-71642246D01*
X121293713Y-71675500D01*
X121293714Y-71675500D01*
X121506286Y-71675500D01*
X121506287Y-71675500D01*
X121716243Y-71642246D01*
X121918412Y-71576557D01*
X122107816Y-71480051D01*
X122129789Y-71464086D01*
X122279786Y-71355109D01*
X122279788Y-71355106D01*
X122279792Y-71355104D01*
X122430104Y-71204792D01*
X122549683Y-71040204D01*
X122605011Y-70997540D01*
X122674624Y-70991561D01*
X122736420Y-71024166D01*
X122750313Y-71040199D01*
X122852560Y-71180931D01*
X122869896Y-71204792D01*
X123020213Y-71355109D01*
X123192179Y-71480048D01*
X123192181Y-71480049D01*
X123192184Y-71480051D01*
X123381588Y-71576557D01*
X123583757Y-71642246D01*
X123793713Y-71675500D01*
X123793714Y-71675500D01*
X124006286Y-71675500D01*
X124006287Y-71675500D01*
X124216243Y-71642246D01*
X124418412Y-71576557D01*
X124607816Y-71480051D01*
X124629789Y-71464086D01*
X124779786Y-71355109D01*
X124779788Y-71355106D01*
X124779792Y-71355104D01*
X124930104Y-71204792D01*
X125049683Y-71040204D01*
X125105011Y-70997540D01*
X125174624Y-70991561D01*
X125236420Y-71024166D01*
X125250313Y-71040199D01*
X125352560Y-71180931D01*
X125369896Y-71204792D01*
X125520213Y-71355109D01*
X125692179Y-71480048D01*
X125692181Y-71480049D01*
X125692184Y-71480051D01*
X125881588Y-71576557D01*
X126083757Y-71642246D01*
X126293713Y-71675500D01*
X126293714Y-71675500D01*
X126506286Y-71675500D01*
X126506287Y-71675500D01*
X126716243Y-71642246D01*
X126918412Y-71576557D01*
X127107816Y-71480051D01*
X127129789Y-71464086D01*
X127279786Y-71355109D01*
X127279788Y-71355106D01*
X127279792Y-71355104D01*
X127430104Y-71204792D01*
X127430106Y-71204788D01*
X127430109Y-71204786D01*
X127555048Y-71032820D01*
X127555047Y-71032820D01*
X127555051Y-71032816D01*
X127651557Y-70843412D01*
X127717246Y-70641243D01*
X127750500Y-70431287D01*
X127750500Y-69968713D01*
X127717246Y-69758757D01*
X127651557Y-69556588D01*
X127555051Y-69367184D01*
X127555049Y-69367181D01*
X127555048Y-69367179D01*
X127430109Y-69195213D01*
X127279786Y-69044890D01*
X127107820Y-68919951D01*
X126918414Y-68823444D01*
X126918413Y-68823443D01*
X126918412Y-68823443D01*
X126716243Y-68757754D01*
X126716241Y-68757753D01*
X126716240Y-68757753D01*
X126554957Y-68732208D01*
X126506287Y-68724500D01*
X126293713Y-68724500D01*
X126245042Y-68732208D01*
X126083760Y-68757753D01*
X125881585Y-68823444D01*
X125692179Y-68919951D01*
X125520213Y-69044890D01*
X125369894Y-69195209D01*
X125369890Y-69195214D01*
X125250318Y-69359793D01*
X125194989Y-69402459D01*
X125125375Y-69408438D01*
X125063580Y-69375833D01*
X125049682Y-69359793D01*
X124930109Y-69195214D01*
X124930105Y-69195209D01*
X124779786Y-69044890D01*
X124607820Y-68919951D01*
X124418414Y-68823444D01*
X124418413Y-68823443D01*
X124418412Y-68823443D01*
X124216243Y-68757754D01*
X124216241Y-68757753D01*
X124216240Y-68757753D01*
X124054957Y-68732208D01*
X124006287Y-68724500D01*
X123793713Y-68724500D01*
X123745042Y-68732208D01*
X123583760Y-68757753D01*
X123381585Y-68823444D01*
X123192179Y-68919951D01*
X123020213Y-69044890D01*
X122869894Y-69195209D01*
X122869890Y-69195214D01*
X122750318Y-69359793D01*
X122694989Y-69402459D01*
X122625375Y-69408438D01*
X122563580Y-69375833D01*
X122549682Y-69359793D01*
X122430109Y-69195214D01*
X122430105Y-69195209D01*
X122279786Y-69044890D01*
X122107820Y-68919951D01*
X121918414Y-68823444D01*
X121918413Y-68823443D01*
X121918412Y-68823443D01*
X121716243Y-68757754D01*
X121716241Y-68757753D01*
X121716240Y-68757753D01*
X121554957Y-68732208D01*
X121506287Y-68724500D01*
X121293713Y-68724500D01*
X121245042Y-68732208D01*
X121083760Y-68757753D01*
X120881585Y-68823444D01*
X120692179Y-68919951D01*
X120520215Y-69044889D01*
X120381398Y-69183706D01*
X120320075Y-69217190D01*
X120250383Y-69212206D01*
X120194450Y-69170334D01*
X120188178Y-69161120D01*
X120092712Y-69006344D01*
X119968657Y-68882289D01*
X119968656Y-68882288D01*
X119819334Y-68790186D01*
X119652797Y-68735001D01*
X119652795Y-68735000D01*
X119550010Y-68724500D01*
X118249998Y-68724500D01*
X118249981Y-68724501D01*
X118147203Y-68735000D01*
X118147200Y-68735001D01*
X117980668Y-68790185D01*
X117980663Y-68790187D01*
X117831342Y-68882289D01*
X117707289Y-69006342D01*
X117615187Y-69155663D01*
X117615185Y-69155668D01*
X117610325Y-69170334D01*
X117560001Y-69322203D01*
X117560001Y-69322204D01*
X117560000Y-69322204D01*
X117549500Y-69424983D01*
X68450500Y-69424983D01*
X68450500Y-53300029D01*
X76213100Y-53300029D01*
X76213100Y-54600047D01*
X76213101Y-54600064D01*
X76223600Y-54702842D01*
X76223601Y-54702845D01*
X76278785Y-54869377D01*
X76278787Y-54869382D01*
X76295615Y-54896665D01*
X76361775Y-55003928D01*
X76370889Y-55018703D01*
X76494944Y-55142758D01*
X76649720Y-55238224D01*
X76696445Y-55290172D01*
X76707668Y-55359134D01*
X76679824Y-55423217D01*
X76672306Y-55431444D01*
X76533489Y-55570261D01*
X76408551Y-55742225D01*
X76312044Y-55931631D01*
X76246353Y-56133806D01*
X76213100Y-56343759D01*
X76213100Y-56556332D01*
X76246353Y-56766285D01*
X76312044Y-56968460D01*
X76408551Y-57157866D01*
X76533490Y-57329832D01*
X76683809Y-57480151D01*
X76683814Y-57480155D01*
X76848393Y-57599728D01*
X76891059Y-57655057D01*
X76897038Y-57724671D01*
X76864433Y-57786466D01*
X76848393Y-57800364D01*
X76683814Y-57919936D01*
X76683809Y-57919940D01*
X76533490Y-58070259D01*
X76408551Y-58242225D01*
X76312044Y-58431631D01*
X76312043Y-58431633D01*
X76312043Y-58431634D01*
X76296597Y-58479172D01*
X76246353Y-58633806D01*
X76218543Y-58809394D01*
X76213100Y-58843759D01*
X76213100Y-59056333D01*
X76246354Y-59266289D01*
X76268191Y-59333497D01*
X76312044Y-59468460D01*
X76408551Y-59657866D01*
X76533490Y-59829832D01*
X76683809Y-59980151D01*
X76683814Y-59980155D01*
X76848393Y-60099728D01*
X76891059Y-60155057D01*
X76897038Y-60224671D01*
X76864433Y-60286466D01*
X76848393Y-60300364D01*
X76683814Y-60419936D01*
X76683809Y-60419940D01*
X76533490Y-60570259D01*
X76408551Y-60742225D01*
X76312044Y-60931631D01*
X76246353Y-61133806D01*
X76213100Y-61343759D01*
X76213100Y-61556332D01*
X76231061Y-61669737D01*
X76246354Y-61766289D01*
X76291976Y-61906699D01*
X76312044Y-61968460D01*
X76408551Y-62157866D01*
X76533490Y-62329832D01*
X76683813Y-62480155D01*
X76855779Y-62605094D01*
X76855781Y-62605095D01*
X76855784Y-62605097D01*
X77045188Y-62701603D01*
X77247357Y-62767292D01*
X77457313Y-62800546D01*
X77457314Y-62800546D01*
X77919886Y-62800546D01*
X77919887Y-62800546D01*
X78129843Y-62767292D01*
X78332012Y-62701603D01*
X78521416Y-62605097D01*
X78543389Y-62589132D01*
X78693386Y-62480155D01*
X78693388Y-62480152D01*
X78693392Y-62480150D01*
X78843704Y-62329838D01*
X78936829Y-62201660D01*
X78992158Y-62158995D01*
X79037147Y-62150546D01*
X86918950Y-62150546D01*
X87019026Y-62130639D01*
X87054282Y-62123626D01*
X87118023Y-62097223D01*
X87181761Y-62070823D01*
X87181762Y-62070822D01*
X87181765Y-62070821D01*
X87296497Y-61994160D01*
X89394586Y-59896069D01*
X89434810Y-59869192D01*
X89489435Y-59846566D01*
X89579173Y-59809397D01*
X89579176Y-59809395D01*
X89579179Y-59809394D01*
X89710289Y-59721789D01*
X89821789Y-59610289D01*
X89909394Y-59479179D01*
X89969737Y-59333497D01*
X90000500Y-59178842D01*
X90000500Y-59021158D01*
X90000500Y-59021155D01*
X90000499Y-59021153D01*
X89992134Y-58979101D01*
X89969737Y-58866503D01*
X89969191Y-58865184D01*
X89909397Y-58720827D01*
X89909390Y-58720814D01*
X89821789Y-58589711D01*
X89821786Y-58589707D01*
X89710292Y-58478213D01*
X89710288Y-58478210D01*
X89579185Y-58390609D01*
X89579172Y-58390602D01*
X89433501Y-58330264D01*
X89433489Y-58330261D01*
X89278845Y-58299500D01*
X89278842Y-58299500D01*
X89121158Y-58299500D01*
X89121155Y-58299500D01*
X88966510Y-58330261D01*
X88966498Y-58330264D01*
X88820827Y-58390602D01*
X88820814Y-58390609D01*
X88712132Y-58463228D01*
X88712126Y-58463233D01*
X88689711Y-58478211D01*
X88578211Y-58589711D01*
X88563233Y-58612126D01*
X88563228Y-58612132D01*
X88490609Y-58720814D01*
X88490604Y-58720823D01*
X88430809Y-58865184D01*
X88425737Y-58871477D01*
X88403929Y-58905412D01*
X86596116Y-60713227D01*
X86534793Y-60746712D01*
X86508435Y-60749546D01*
X79037147Y-60749546D01*
X78970108Y-60729861D01*
X78936830Y-60698431D01*
X78895282Y-60641246D01*
X78843707Y-60570257D01*
X78693386Y-60419936D01*
X78562465Y-60324818D01*
X78519799Y-60269489D01*
X78513820Y-60199875D01*
X78546425Y-60138080D01*
X78607264Y-60103723D01*
X78635350Y-60100500D01*
X86368996Y-60100500D01*
X86476180Y-60079179D01*
X86504328Y-60073580D01*
X86583797Y-60040663D01*
X86631807Y-60020777D01*
X86631808Y-60020776D01*
X86631811Y-60020775D01*
X86746543Y-59944114D01*
X88094586Y-58596069D01*
X88103979Y-58589793D01*
X88107951Y-58584488D01*
X88116935Y-58581136D01*
X88134810Y-58569192D01*
X88189435Y-58546566D01*
X88279173Y-58509397D01*
X88279175Y-58509395D01*
X88279179Y-58509394D01*
X88410289Y-58421789D01*
X88521789Y-58310289D01*
X88609394Y-58179179D01*
X88669737Y-58033497D01*
X88700500Y-57878842D01*
X88700500Y-57721158D01*
X88700500Y-57721155D01*
X88700499Y-57721153D01*
X88697189Y-57704515D01*
X88669737Y-57566503D01*
X88661589Y-57546831D01*
X88609397Y-57420827D01*
X88609390Y-57420814D01*
X88521789Y-57289711D01*
X88521786Y-57289707D01*
X88410292Y-57178213D01*
X88410288Y-57178210D01*
X88279185Y-57090609D01*
X88279176Y-57090604D01*
X88269723Y-57086689D01*
X88215320Y-57042848D01*
X88195559Y-56996319D01*
X88191718Y-56977009D01*
X88169737Y-56866503D01*
X88169735Y-56866498D01*
X88109397Y-56720827D01*
X88109390Y-56720814D01*
X88021789Y-56589711D01*
X88021786Y-56589707D01*
X87910292Y-56478213D01*
X87910288Y-56478210D01*
X87779185Y-56390609D01*
X87779172Y-56390602D01*
X87634814Y-56330808D01*
X87594585Y-56303928D01*
X86446546Y-55155888D01*
X86446545Y-55155887D01*
X86331807Y-55079222D01*
X86204332Y-55026421D01*
X86204322Y-55026418D01*
X86068996Y-54999500D01*
X86068994Y-54999500D01*
X86068993Y-54999500D01*
X79227016Y-54999500D01*
X79199692Y-54991477D01*
X79171658Y-54986457D01*
X79166599Y-54981759D01*
X79159977Y-54979815D01*
X79141329Y-54958295D01*
X79120458Y-54938914D01*
X79118741Y-54932227D01*
X79114222Y-54927011D01*
X79110169Y-54898824D01*
X79103089Y-54871237D01*
X79104815Y-54861593D01*
X79104278Y-54857853D01*
X79109308Y-54836503D01*
X79142764Y-54735540D01*
X79182536Y-54678097D01*
X79247052Y-54651274D01*
X79260469Y-54650546D01*
X86908527Y-54650546D01*
X86975566Y-54670231D01*
X86996208Y-54686865D01*
X88303928Y-55994585D01*
X88330808Y-56034814D01*
X88390602Y-56179172D01*
X88390609Y-56179185D01*
X88478210Y-56310288D01*
X88478213Y-56310292D01*
X88589707Y-56421786D01*
X88589711Y-56421789D01*
X88720814Y-56509390D01*
X88720827Y-56509397D01*
X88858683Y-56566498D01*
X88866503Y-56569737D01*
X89021153Y-56600499D01*
X89021156Y-56600500D01*
X89021158Y-56600500D01*
X89178844Y-56600500D01*
X89178845Y-56600499D01*
X89333497Y-56569737D01*
X89479179Y-56509394D01*
X89610289Y-56421789D01*
X89721789Y-56310289D01*
X89809394Y-56179179D01*
X89869737Y-56033497D01*
X89900500Y-55878842D01*
X89900500Y-55721158D01*
X89900500Y-55721155D01*
X89900499Y-55721153D01*
X89875588Y-55595919D01*
X89869737Y-55566503D01*
X89869735Y-55566498D01*
X89809397Y-55420827D01*
X89809390Y-55420814D01*
X89721789Y-55289711D01*
X89721786Y-55289707D01*
X89610292Y-55178213D01*
X89610288Y-55178210D01*
X89479185Y-55090609D01*
X89479172Y-55090602D01*
X89334814Y-55030808D01*
X89294585Y-55003928D01*
X88664529Y-54373872D01*
X88582935Y-54292278D01*
X110328375Y-54292278D01*
X110328375Y-54449971D01*
X110359136Y-54604614D01*
X110359139Y-54604626D01*
X110419477Y-54750297D01*
X110419484Y-54750310D01*
X110507085Y-54881413D01*
X110507088Y-54881417D01*
X110618582Y-54992911D01*
X110618586Y-54992914D01*
X110749689Y-55080515D01*
X110749702Y-55080522D01*
X110895373Y-55140860D01*
X110895378Y-55140862D01*
X111050028Y-55171624D01*
X111050031Y-55171625D01*
X111050033Y-55171625D01*
X111207719Y-55171625D01*
X111207720Y-55171624D01*
X111362372Y-55140862D01*
X111508054Y-55080519D01*
X111639164Y-54992914D01*
X111750664Y-54881414D01*
X111838269Y-54750304D01*
X111898612Y-54604622D01*
X111929375Y-54449967D01*
X111929375Y-54292283D01*
X111929375Y-54292280D01*
X111929374Y-54292278D01*
X111922869Y-54259576D01*
X111898612Y-54137628D01*
X111898610Y-54137623D01*
X111838272Y-53991952D01*
X111838265Y-53991939D01*
X111750664Y-53860836D01*
X111750661Y-53860832D01*
X111639167Y-53749338D01*
X111639163Y-53749335D01*
X111508060Y-53661734D01*
X111508047Y-53661727D01*
X111362376Y-53601389D01*
X111362364Y-53601386D01*
X111207720Y-53570625D01*
X111207717Y-53570625D01*
X111050033Y-53570625D01*
X111050030Y-53570625D01*
X110895385Y-53601386D01*
X110895373Y-53601389D01*
X110749702Y-53661727D01*
X110749689Y-53661734D01*
X110618586Y-53749335D01*
X110618582Y-53749338D01*
X110507088Y-53860832D01*
X110507085Y-53860836D01*
X110419484Y-53991939D01*
X110419477Y-53991952D01*
X110359139Y-54137623D01*
X110359136Y-54137635D01*
X110328375Y-54292278D01*
X88582935Y-54292278D01*
X87696592Y-53405934D01*
X87696591Y-53405933D01*
X87581853Y-53329268D01*
X87454378Y-53276467D01*
X87454368Y-53276464D01*
X87319042Y-53249546D01*
X87319040Y-53249546D01*
X87319039Y-53249546D01*
X79260470Y-53249546D01*
X79193431Y-53229861D01*
X79147676Y-53177057D01*
X79142764Y-53164551D01*
X79135390Y-53142298D01*
X79098414Y-53030712D01*
X79006312Y-52881390D01*
X78882256Y-52757334D01*
X78783897Y-52696666D01*
X78732936Y-52665233D01*
X78732931Y-52665231D01*
X78731462Y-52664744D01*
X78566397Y-52610047D01*
X78566395Y-52610046D01*
X78463610Y-52599546D01*
X76913598Y-52599546D01*
X76913581Y-52599547D01*
X76810803Y-52610046D01*
X76810800Y-52610047D01*
X76644268Y-52665231D01*
X76644263Y-52665233D01*
X76494942Y-52757335D01*
X76370889Y-52881388D01*
X76278787Y-53030709D01*
X76278785Y-53030714D01*
X76256947Y-53096618D01*
X76223601Y-53197249D01*
X76223601Y-53197250D01*
X76223600Y-53197250D01*
X76213100Y-53300029D01*
X68450500Y-53300029D01*
X68450500Y-29450000D01*
X90752970Y-29450000D01*
X91695854Y-29450000D01*
X91657370Y-29516657D01*
X91625000Y-29637465D01*
X91625000Y-29762535D01*
X91657370Y-29883343D01*
X91695854Y-29950000D01*
X90752970Y-29950000D01*
X90783242Y-30141127D01*
X90783242Y-30141130D01*
X90848904Y-30343217D01*
X90945379Y-30532557D01*
X91070272Y-30704459D01*
X91070276Y-30704464D01*
X91220535Y-30854723D01*
X91220540Y-30854727D01*
X91392442Y-30979620D01*
X91581782Y-31076095D01*
X91783871Y-31141757D01*
X91850000Y-31152231D01*
X91850000Y-30104145D01*
X91916657Y-30142630D01*
X92037465Y-30175000D01*
X92162535Y-30175000D01*
X92283343Y-30142630D01*
X92350000Y-30104145D01*
X92350000Y-31152230D01*
X92416126Y-31141757D01*
X92416129Y-31141757D01*
X92618217Y-31076095D01*
X92807557Y-30979620D01*
X92979459Y-30854727D01*
X92979464Y-30854723D01*
X93129721Y-30704466D01*
X93249371Y-30539781D01*
X93304701Y-30497115D01*
X93374314Y-30491136D01*
X93436110Y-30523741D01*
X93450008Y-30539781D01*
X93569890Y-30704785D01*
X93569894Y-30704790D01*
X93720213Y-30855109D01*
X93892179Y-30980048D01*
X93892181Y-30980049D01*
X93892184Y-30980051D01*
X94081588Y-31076557D01*
X94283757Y-31142246D01*
X94493713Y-31175500D01*
X94493714Y-31175500D01*
X94706286Y-31175500D01*
X94706287Y-31175500D01*
X94916243Y-31142246D01*
X95118412Y-31076557D01*
X95307816Y-30980051D01*
X95365141Y-30938402D01*
X95479784Y-30855110D01*
X95479784Y-30855109D01*
X95479792Y-30855104D01*
X95618604Y-30716291D01*
X95679923Y-30682809D01*
X95749615Y-30687793D01*
X95805549Y-30729664D01*
X95811821Y-30738878D01*
X95815185Y-30744333D01*
X95815186Y-30744334D01*
X95907288Y-30893656D01*
X96031344Y-31017712D01*
X96180666Y-31109814D01*
X96347203Y-31164999D01*
X96449991Y-31175500D01*
X97750008Y-31175499D01*
X97852797Y-31164999D01*
X98019334Y-31109814D01*
X98168656Y-31017712D01*
X98292712Y-30893656D01*
X98384814Y-30744334D01*
X98439999Y-30577797D01*
X98450500Y-30475009D01*
X98450499Y-28924992D01*
X98448851Y-28908863D01*
X98439999Y-28822203D01*
X98439998Y-28822200D01*
X98407786Y-28724992D01*
X98384814Y-28655666D01*
X98292712Y-28506344D01*
X98168656Y-28382288D01*
X98073253Y-28323443D01*
X98019336Y-28290187D01*
X98019331Y-28290185D01*
X98017862Y-28289698D01*
X97852797Y-28235001D01*
X97852795Y-28235000D01*
X97750010Y-28224500D01*
X96449998Y-28224500D01*
X96449981Y-28224501D01*
X96347203Y-28235000D01*
X96347200Y-28235001D01*
X96180668Y-28290185D01*
X96180663Y-28290187D01*
X96031342Y-28382289D01*
X95907289Y-28506342D01*
X95811821Y-28661121D01*
X95759873Y-28707845D01*
X95690910Y-28719068D01*
X95626828Y-28691224D01*
X95618601Y-28683705D01*
X95479786Y-28544890D01*
X95307820Y-28419951D01*
X95118414Y-28323444D01*
X95118413Y-28323443D01*
X95118412Y-28323443D01*
X94916243Y-28257754D01*
X94916241Y-28257753D01*
X94916240Y-28257753D01*
X94754957Y-28232208D01*
X94706287Y-28224500D01*
X94493713Y-28224500D01*
X94445042Y-28232208D01*
X94283760Y-28257753D01*
X94081585Y-28323444D01*
X93892179Y-28419951D01*
X93720213Y-28544890D01*
X93569894Y-28695209D01*
X93569890Y-28695214D01*
X93450008Y-28860218D01*
X93394678Y-28902884D01*
X93325065Y-28908863D01*
X93263270Y-28876257D01*
X93249372Y-28860218D01*
X93129727Y-28695540D01*
X93129723Y-28695535D01*
X92979464Y-28545276D01*
X92979459Y-28545272D01*
X92807557Y-28420379D01*
X92618215Y-28323903D01*
X92416124Y-28258241D01*
X92350000Y-28247768D01*
X92350000Y-29295854D01*
X92283343Y-29257370D01*
X92162535Y-29225000D01*
X92037465Y-29225000D01*
X91916657Y-29257370D01*
X91850000Y-29295854D01*
X91850000Y-28247768D01*
X91849999Y-28247768D01*
X91783875Y-28258241D01*
X91581784Y-28323903D01*
X91392442Y-28420379D01*
X91220540Y-28545272D01*
X91220535Y-28545276D01*
X91070276Y-28695535D01*
X91070272Y-28695540D01*
X90945379Y-28867442D01*
X90848904Y-29056782D01*
X90783242Y-29258869D01*
X90783242Y-29258872D01*
X90752970Y-29450000D01*
X68450500Y-29450000D01*
X68450500Y-23380513D01*
X114499500Y-23380513D01*
X114499500Y-23569486D01*
X114529059Y-23756118D01*
X114587454Y-23935836D01*
X114663685Y-24085446D01*
X114673240Y-24104199D01*
X114784310Y-24257073D01*
X114917927Y-24390690D01*
X115070801Y-24501760D01*
X115150347Y-24542290D01*
X115239163Y-24587545D01*
X115239165Y-24587545D01*
X115239168Y-24587547D01*
X115335497Y-24618846D01*
X115418881Y-24645940D01*
X115605514Y-24675500D01*
X115605519Y-24675500D01*
X115794486Y-24675500D01*
X115981118Y-24645940D01*
X116160832Y-24587547D01*
X116329199Y-24501760D01*
X116482073Y-24390690D01*
X116615690Y-24257073D01*
X116726760Y-24104199D01*
X116812547Y-23935832D01*
X116870940Y-23756118D01*
X116900500Y-23569486D01*
X116900500Y-23380513D01*
X125499500Y-23380513D01*
X125499500Y-23569486D01*
X125529059Y-23756118D01*
X125587454Y-23935836D01*
X125663685Y-24085446D01*
X125673240Y-24104199D01*
X125784310Y-24257073D01*
X125917927Y-24390690D01*
X126070801Y-24501760D01*
X126150347Y-24542290D01*
X126239163Y-24587545D01*
X126239165Y-24587545D01*
X126239168Y-24587547D01*
X126335497Y-24618846D01*
X126418881Y-24645940D01*
X126605514Y-24675500D01*
X126605519Y-24675500D01*
X126794486Y-24675500D01*
X126981118Y-24645940D01*
X127160832Y-24587547D01*
X127329199Y-24501760D01*
X127482073Y-24390690D01*
X127615690Y-24257073D01*
X127670540Y-24181579D01*
X148355000Y-24181579D01*
X148355000Y-24235000D01*
X149081933Y-24235000D01*
X149080000Y-24242213D01*
X149080000Y-24727787D01*
X149081933Y-24735000D01*
X148355000Y-24735000D01*
X148355000Y-24788420D01*
X148395348Y-24991266D01*
X148395350Y-24991274D01*
X148474500Y-25182358D01*
X148474505Y-25182368D01*
X148589410Y-25354335D01*
X148589413Y-25354339D01*
X148735660Y-25500586D01*
X148735664Y-25500589D01*
X148907631Y-25615494D01*
X148907641Y-25615499D01*
X149098723Y-25694648D01*
X149098725Y-25694649D01*
X149155000Y-25705842D01*
X149155000Y-24894618D01*
X149205446Y-24945064D01*
X149279555Y-24987851D01*
X149362213Y-25010000D01*
X149447787Y-25010000D01*
X149530445Y-24987851D01*
X149604554Y-24945064D01*
X149655000Y-24894618D01*
X149655000Y-25705842D01*
X149711274Y-25694649D01*
X149711276Y-25694648D01*
X149902358Y-25615499D01*
X149902368Y-25615494D01*
X150074335Y-25500589D01*
X150074339Y-25500586D01*
X150220586Y-25354339D01*
X150220589Y-25354335D01*
X150335494Y-25182368D01*
X150335499Y-25182358D01*
X150414649Y-24991274D01*
X150414651Y-24991266D01*
X150454999Y-24788420D01*
X150455000Y-24788417D01*
X150455000Y-24735000D01*
X149728067Y-24735000D01*
X149730000Y-24727787D01*
X149730000Y-24242213D01*
X149728067Y-24235000D01*
X150455000Y-24235000D01*
X150455000Y-24181583D01*
X150454999Y-24181579D01*
X153195000Y-24181579D01*
X153195000Y-24235000D01*
X153921933Y-24235000D01*
X153920000Y-24242213D01*
X153920000Y-24727787D01*
X153921933Y-24735000D01*
X153195000Y-24735000D01*
X153195000Y-24788420D01*
X153235348Y-24991266D01*
X153235350Y-24991274D01*
X153314500Y-25182358D01*
X153314505Y-25182368D01*
X153429410Y-25354335D01*
X153429413Y-25354339D01*
X153575660Y-25500586D01*
X153575664Y-25500589D01*
X153747631Y-25615494D01*
X153747641Y-25615499D01*
X153938723Y-25694648D01*
X153938725Y-25694649D01*
X153995000Y-25705842D01*
X153995000Y-24894618D01*
X154045446Y-24945064D01*
X154119555Y-24987851D01*
X154202213Y-25010000D01*
X154287787Y-25010000D01*
X154370445Y-24987851D01*
X154444554Y-24945064D01*
X154495000Y-24894618D01*
X154495000Y-25705842D01*
X154551274Y-25694649D01*
X154551276Y-25694648D01*
X154742358Y-25615499D01*
X154742368Y-25615494D01*
X154914335Y-25500589D01*
X154914339Y-25500586D01*
X155060586Y-25354339D01*
X155060589Y-25354335D01*
X155175494Y-25182368D01*
X155175499Y-25182358D01*
X155254649Y-24991274D01*
X155254651Y-24991266D01*
X155294999Y-24788420D01*
X155295000Y-24788417D01*
X155295000Y-24735000D01*
X154568067Y-24735000D01*
X154570000Y-24727787D01*
X154570000Y-24242213D01*
X154568067Y-24235000D01*
X155295000Y-24235000D01*
X155295000Y-24181583D01*
X155294999Y-24181579D01*
X155254651Y-23978733D01*
X155254649Y-23978725D01*
X155175499Y-23787641D01*
X155175494Y-23787631D01*
X155060589Y-23615664D01*
X155060586Y-23615660D01*
X154914339Y-23469413D01*
X154914335Y-23469410D01*
X154742368Y-23354505D01*
X154742358Y-23354500D01*
X154551272Y-23275349D01*
X154551267Y-23275347D01*
X154495000Y-23264155D01*
X154495000Y-24075382D01*
X154444554Y-24024936D01*
X154370445Y-23982149D01*
X154287787Y-23960000D01*
X154202213Y-23960000D01*
X154119555Y-23982149D01*
X154045446Y-24024936D01*
X153995000Y-24075382D01*
X153995000Y-23264156D01*
X153994999Y-23264155D01*
X153938732Y-23275347D01*
X153938727Y-23275349D01*
X153747641Y-23354500D01*
X153747631Y-23354505D01*
X153575664Y-23469410D01*
X153575660Y-23469413D01*
X153429413Y-23615660D01*
X153429410Y-23615664D01*
X153314505Y-23787631D01*
X153314500Y-23787641D01*
X153235350Y-23978725D01*
X153235348Y-23978733D01*
X153195000Y-24181579D01*
X150454999Y-24181579D01*
X150414651Y-23978733D01*
X150414649Y-23978725D01*
X150335499Y-23787641D01*
X150335494Y-23787631D01*
X150220589Y-23615664D01*
X150220586Y-23615660D01*
X150074339Y-23469413D01*
X150074335Y-23469410D01*
X149902368Y-23354505D01*
X149902358Y-23354500D01*
X149711272Y-23275349D01*
X149711267Y-23275347D01*
X149655000Y-23264155D01*
X149655000Y-24075382D01*
X149604554Y-24024936D01*
X149530445Y-23982149D01*
X149447787Y-23960000D01*
X149362213Y-23960000D01*
X149279555Y-23982149D01*
X149205446Y-24024936D01*
X149155000Y-24075382D01*
X149155000Y-23264156D01*
X149154999Y-23264155D01*
X149098732Y-23275347D01*
X149098727Y-23275349D01*
X148907641Y-23354500D01*
X148907631Y-23354505D01*
X148735664Y-23469410D01*
X148735660Y-23469413D01*
X148589413Y-23615660D01*
X148589410Y-23615664D01*
X148474505Y-23787631D01*
X148474500Y-23787641D01*
X148395350Y-23978725D01*
X148395348Y-23978733D01*
X148355000Y-24181579D01*
X127670540Y-24181579D01*
X127726760Y-24104199D01*
X127812547Y-23935832D01*
X127870940Y-23756118D01*
X127900500Y-23569486D01*
X127900500Y-23380513D01*
X127870940Y-23193881D01*
X127812545Y-23014163D01*
X127726759Y-22845800D01*
X127615690Y-22692927D01*
X127482073Y-22559310D01*
X127329199Y-22448240D01*
X127284479Y-22425454D01*
X127160836Y-22362454D01*
X126981118Y-22304059D01*
X126794486Y-22274500D01*
X126794481Y-22274500D01*
X126605519Y-22274500D01*
X126605514Y-22274500D01*
X126418881Y-22304059D01*
X126239163Y-22362454D01*
X126070800Y-22448240D01*
X125983579Y-22511610D01*
X125917927Y-22559310D01*
X125917925Y-22559312D01*
X125917924Y-22559312D01*
X125784312Y-22692924D01*
X125784312Y-22692925D01*
X125784310Y-22692927D01*
X125743632Y-22748915D01*
X125673240Y-22845800D01*
X125587454Y-23014163D01*
X125529059Y-23193881D01*
X125499500Y-23380513D01*
X116900500Y-23380513D01*
X116870940Y-23193881D01*
X116812545Y-23014163D01*
X116726759Y-22845800D01*
X116615690Y-22692927D01*
X116482073Y-22559310D01*
X116329199Y-22448240D01*
X116284479Y-22425454D01*
X116160836Y-22362454D01*
X115981118Y-22304059D01*
X115794486Y-22274500D01*
X115794481Y-22274500D01*
X115605519Y-22274500D01*
X115605514Y-22274500D01*
X115418881Y-22304059D01*
X115239163Y-22362454D01*
X115070800Y-22448240D01*
X114983579Y-22511610D01*
X114917927Y-22559310D01*
X114917925Y-22559312D01*
X114917924Y-22559312D01*
X114784312Y-22692924D01*
X114784312Y-22692925D01*
X114784310Y-22692927D01*
X114743632Y-22748915D01*
X114673240Y-22845800D01*
X114587454Y-23014163D01*
X114529059Y-23193881D01*
X114499500Y-23380513D01*
X68450500Y-23380513D01*
X68450500Y-20424500D01*
X68470185Y-20357461D01*
X68522989Y-20311706D01*
X68574500Y-20300500D01*
X148143437Y-20300500D01*
X148164682Y-20306738D01*
G37*
%TD.AperFunction*%
%TA.AperFunction,Conductor*%
G36*
X172088632Y-57358317D02*
G01*
X172117517Y-57369091D01*
X172177127Y-57375500D01*
X173375500Y-57375499D01*
X173442539Y-57395184D01*
X173488294Y-57447987D01*
X173499500Y-57499499D01*
X173499500Y-61708480D01*
X173479815Y-61775519D01*
X173463181Y-61796161D01*
X170111769Y-65147572D01*
X170050446Y-65181057D01*
X169980754Y-65176073D01*
X169924821Y-65134201D01*
X169913603Y-65116184D01*
X169866234Y-65023215D01*
X169849004Y-64999500D01*
X169764414Y-64883072D01*
X169641928Y-64760586D01*
X169558975Y-64700317D01*
X169516311Y-64644988D01*
X169510332Y-64575374D01*
X169542938Y-64513579D01*
X169558976Y-64499682D01*
X169641928Y-64439414D01*
X169764414Y-64316928D01*
X169866232Y-64176788D01*
X169944873Y-64022445D01*
X169998402Y-63857701D01*
X170025500Y-63686611D01*
X170025500Y-63513389D01*
X169998402Y-63342299D01*
X169944873Y-63177555D01*
X169866232Y-63023212D01*
X169764414Y-62883072D01*
X169641928Y-62760586D01*
X169558975Y-62700317D01*
X169516311Y-62644988D01*
X169510332Y-62575374D01*
X169542938Y-62513579D01*
X169558976Y-62499682D01*
X169641928Y-62439414D01*
X169764414Y-62316928D01*
X169866232Y-62176788D01*
X169944873Y-62022445D01*
X169998402Y-61857701D01*
X170025500Y-61686611D01*
X170025500Y-61513389D01*
X169998402Y-61342299D01*
X169944873Y-61177555D01*
X169866232Y-61023212D01*
X169764414Y-60883072D01*
X169641928Y-60760586D01*
X169501788Y-60658768D01*
X169347445Y-60580127D01*
X169182701Y-60526598D01*
X169182699Y-60526597D01*
X169182698Y-60526597D01*
X169051066Y-60505749D01*
X169011611Y-60499500D01*
X168526914Y-60499500D01*
X168459875Y-60479815D01*
X168414120Y-60427011D01*
X168404176Y-60357853D01*
X168433201Y-60294297D01*
X168439233Y-60287819D01*
X169802216Y-58924837D01*
X171340234Y-57386819D01*
X171401557Y-57353334D01*
X171427915Y-57350500D01*
X172045300Y-57350500D01*
X172088632Y-57358317D01*
G37*
%TD.AperFunction*%
%TA.AperFunction,Conductor*%
G36*
X167454854Y-64220185D02*
G01*
X167488131Y-64251612D01*
X167535586Y-64316928D01*
X167658072Y-64439414D01*
X167658078Y-64439418D01*
X167741023Y-64499683D01*
X167783689Y-64555013D01*
X167789667Y-64624626D01*
X167757061Y-64686421D01*
X167741023Y-64700317D01*
X167658078Y-64760581D01*
X167658069Y-64760588D01*
X167535588Y-64883069D01*
X167535588Y-64883070D01*
X167535586Y-64883072D01*
X167488133Y-64948386D01*
X167432803Y-64991051D01*
X167387815Y-64999500D01*
X160300097Y-64999500D01*
X160233058Y-64979815D01*
X160212416Y-64963181D01*
X159661416Y-64412181D01*
X159627931Y-64350858D01*
X159632915Y-64281166D01*
X159674787Y-64225233D01*
X159740251Y-64200816D01*
X159749097Y-64200500D01*
X167387815Y-64200500D01*
X167454854Y-64220185D01*
G37*
%TD.AperFunction*%
%TA.AperFunction,Conductor*%
G36*
X167393064Y-62202041D02*
G01*
X167398426Y-62200955D01*
X167426230Y-62211780D01*
X167454854Y-62220185D01*
X167459788Y-62224845D01*
X167463535Y-62226304D01*
X167488131Y-62251612D01*
X167535586Y-62316928D01*
X167658072Y-62439414D01*
X167666899Y-62445827D01*
X167741023Y-62499683D01*
X167783689Y-62555013D01*
X167789667Y-62624626D01*
X167757061Y-62686421D01*
X167741023Y-62700317D01*
X167658078Y-62760581D01*
X167658069Y-62760588D01*
X167535588Y-62883069D01*
X167535588Y-62883070D01*
X167535586Y-62883072D01*
X167488133Y-62948386D01*
X167432803Y-62991051D01*
X167387815Y-62999500D01*
X158865783Y-62999500D01*
X158798744Y-62979815D01*
X158778102Y-62963181D01*
X158227103Y-62412182D01*
X158193618Y-62350859D01*
X158198602Y-62281167D01*
X158240474Y-62225234D01*
X158305938Y-62200817D01*
X158314784Y-62200501D01*
X158412999Y-62200501D01*
X158413015Y-62200500D01*
X167387815Y-62200500D01*
X167393064Y-62202041D01*
G37*
%TD.AperFunction*%
%TA.AperFunction,Conductor*%
G36*
X159905704Y-52703914D02*
G01*
X159912180Y-52709944D01*
X161382755Y-54180520D01*
X161382757Y-54180521D01*
X161382761Y-54180524D01*
X161465191Y-54228114D01*
X161519687Y-54259577D01*
X161672414Y-54300501D01*
X161672416Y-54300501D01*
X161838125Y-54300501D01*
X161838141Y-54300500D01*
X169320939Y-54300500D01*
X169320943Y-54300501D01*
X169479057Y-54300501D01*
X169496758Y-54295757D01*
X169511462Y-54295381D01*
X169531578Y-54300731D01*
X169552388Y-54301226D01*
X169564660Y-54309531D01*
X169578983Y-54313341D01*
X169593013Y-54328718D01*
X169610253Y-54340385D01*
X169616087Y-54354007D01*
X169626076Y-54364955D01*
X169629565Y-54385477D01*
X169637761Y-54404612D01*
X169635304Y-54419225D01*
X169637789Y-54433836D01*
X169629629Y-54452986D01*
X169626179Y-54473514D01*
X169612994Y-54492029D01*
X169610402Y-54498115D01*
X169607030Y-54500406D01*
X169602320Y-54507021D01*
X168513425Y-55595916D01*
X168436760Y-55710654D01*
X168383959Y-55838129D01*
X168383956Y-55838141D01*
X168358591Y-55965662D01*
X168358590Y-55965669D01*
X168357038Y-55973469D01*
X168357038Y-56216019D01*
X168337353Y-56283058D01*
X168320719Y-56303700D01*
X165911238Y-58713181D01*
X165849915Y-58746666D01*
X165823557Y-58749500D01*
X159991519Y-58749500D01*
X159924480Y-58729815D01*
X159903838Y-58713181D01*
X156356142Y-55165485D01*
X156322657Y-55104162D01*
X156327641Y-55034470D01*
X156369513Y-54978537D01*
X156419632Y-54956187D01*
X156461819Y-54947795D01*
X156532267Y-54933782D01*
X156677949Y-54873439D01*
X156704730Y-54855543D01*
X156771407Y-54834665D01*
X156821074Y-54844084D01*
X156861955Y-54861017D01*
X156861960Y-54861019D01*
X157016610Y-54891781D01*
X157016613Y-54891782D01*
X157016615Y-54891782D01*
X157174301Y-54891782D01*
X157174302Y-54891781D01*
X157328954Y-54861019D01*
X157474636Y-54800676D01*
X157550023Y-54750304D01*
X157606330Y-54712681D01*
X157673007Y-54691803D01*
X157675221Y-54691783D01*
X157836301Y-54691783D01*
X157836304Y-54691783D01*
X157989032Y-54650859D01*
X158039151Y-54621921D01*
X158125963Y-54571802D01*
X158237767Y-54459998D01*
X158237767Y-54459996D01*
X158247975Y-54449789D01*
X158247976Y-54449786D01*
X159580520Y-53117245D01*
X159659577Y-52980313D01*
X159700501Y-52827586D01*
X159700501Y-52797627D01*
X159720186Y-52730588D01*
X159772990Y-52684833D01*
X159842148Y-52674889D01*
X159905704Y-52703914D01*
G37*
%TD.AperFunction*%
%TA.AperFunction,Conductor*%
G36*
X124155704Y-52484557D02*
G01*
X124174291Y-52505626D01*
X124174347Y-52505581D01*
X124175626Y-52507140D01*
X124177606Y-52509384D01*
X124178210Y-52510288D01*
X124178213Y-52510292D01*
X124289707Y-52621786D01*
X124289711Y-52621789D01*
X124420814Y-52709390D01*
X124420827Y-52709397D01*
X124565711Y-52769409D01*
X124566503Y-52769737D01*
X124697138Y-52795722D01*
X124721153Y-52800499D01*
X124721156Y-52800500D01*
X124802044Y-52800500D01*
X124869083Y-52820185D01*
X124914838Y-52872989D01*
X124923661Y-52900309D01*
X124930261Y-52933489D01*
X124930264Y-52933501D01*
X124990602Y-53079172D01*
X124990609Y-53079185D01*
X125078210Y-53210288D01*
X125078213Y-53210292D01*
X125121661Y-53253740D01*
X125155146Y-53315063D01*
X125150162Y-53384755D01*
X125121661Y-53429102D01*
X120587584Y-57963181D01*
X120526261Y-57996666D01*
X120499903Y-57999500D01*
X120193591Y-57999500D01*
X120126552Y-57979815D01*
X120080797Y-57927011D01*
X120070853Y-57857853D01*
X120071974Y-57851308D01*
X120101173Y-57704517D01*
X120101173Y-57546828D01*
X120101172Y-57546826D01*
X120091758Y-57499499D01*
X120070410Y-57392176D01*
X120054321Y-57353334D01*
X120010070Y-57246500D01*
X120010063Y-57246487D01*
X119934621Y-57133581D01*
X119913743Y-57066904D01*
X119932227Y-56999524D01*
X119950038Y-56977013D01*
X123542432Y-53384620D01*
X123542439Y-53384614D01*
X123549499Y-53377554D01*
X123549501Y-53377553D01*
X123677553Y-53249501D01*
X123783996Y-53102994D01*
X123866211Y-52941639D01*
X123869413Y-52931784D01*
X123922172Y-52769409D01*
X123924084Y-52757335D01*
X123950501Y-52590551D01*
X123950501Y-52578270D01*
X123970186Y-52511231D01*
X124022990Y-52465476D01*
X124092148Y-52455532D01*
X124155704Y-52484557D01*
G37*
%TD.AperFunction*%
%TA.AperFunction,Conductor*%
G36*
X135088377Y-52005827D02*
G01*
X135107287Y-52006165D01*
X135135504Y-52019665D01*
X135137273Y-52020185D01*
X135139125Y-52021398D01*
X135270814Y-52109390D01*
X135270827Y-52109397D01*
X135408683Y-52166498D01*
X135416503Y-52169737D01*
X135526987Y-52191713D01*
X135549691Y-52196230D01*
X135611602Y-52228615D01*
X135646176Y-52289330D01*
X135649500Y-52317847D01*
X135649500Y-57342394D01*
X135629815Y-57409433D01*
X135577011Y-57455188D01*
X135507853Y-57465132D01*
X135478048Y-57456955D01*
X135404332Y-57426421D01*
X135404322Y-57426418D01*
X135268996Y-57399500D01*
X135268994Y-57399500D01*
X135268993Y-57399500D01*
X123149097Y-57399500D01*
X123082058Y-57379815D01*
X123036303Y-57327011D01*
X123026359Y-57257853D01*
X123055384Y-57194297D01*
X123061416Y-57187819D01*
X125552674Y-54696562D01*
X128212417Y-52036819D01*
X128273740Y-52003334D01*
X128300098Y-52000500D01*
X135070234Y-52000500D01*
X135088377Y-52005827D01*
G37*
%TD.AperFunction*%
%TA.AperFunction,Conductor*%
G36*
X148488678Y-47316548D02*
G01*
X148492846Y-47318954D01*
X148492848Y-47318956D01*
X148629780Y-47398013D01*
X148732367Y-47425501D01*
X148782506Y-47438936D01*
X148782507Y-47438936D01*
X150275500Y-47438936D01*
X150342539Y-47458621D01*
X150388294Y-47511425D01*
X150399500Y-47562936D01*
X150399500Y-47578846D01*
X150430261Y-47733489D01*
X150430264Y-47733501D01*
X150490602Y-47879172D01*
X150490609Y-47879185D01*
X150578210Y-48010288D01*
X150578213Y-48010292D01*
X150689707Y-48121786D01*
X150689711Y-48121789D01*
X150820814Y-48209390D01*
X150820827Y-48209397D01*
X150938488Y-48258133D01*
X150966503Y-48269737D01*
X151081005Y-48292513D01*
X151121153Y-48300499D01*
X151121156Y-48300500D01*
X151121158Y-48300500D01*
X151278844Y-48300500D01*
X151278845Y-48300499D01*
X151433497Y-48269737D01*
X151579179Y-48209394D01*
X151579185Y-48209390D01*
X151710875Y-48121398D01*
X151777553Y-48100520D01*
X151779766Y-48100500D01*
X154950903Y-48100500D01*
X155017942Y-48120185D01*
X155063697Y-48172989D01*
X155073641Y-48242147D01*
X155044616Y-48305703D01*
X155038584Y-48312181D01*
X154831286Y-48519478D01*
X154719481Y-48631282D01*
X154719479Y-48631285D01*
X154711317Y-48645423D01*
X154676761Y-48705276D01*
X154640423Y-48768215D01*
X154599499Y-48920943D01*
X154599499Y-48920945D01*
X154599499Y-49089046D01*
X154599500Y-49089059D01*
X154599500Y-49392297D01*
X154579815Y-49459336D01*
X154527011Y-49505091D01*
X154457853Y-49515035D01*
X154451309Y-49513914D01*
X154378845Y-49499500D01*
X154378842Y-49499500D01*
X154221158Y-49499500D01*
X154221155Y-49499500D01*
X154066510Y-49530261D01*
X154066498Y-49530264D01*
X153920827Y-49590602D01*
X153920814Y-49590609D01*
X153789711Y-49678210D01*
X153789707Y-49678213D01*
X153678213Y-49789707D01*
X153678210Y-49789711D01*
X153590609Y-49920814D01*
X153590602Y-49920827D01*
X153530264Y-50066498D01*
X153530261Y-50066510D01*
X153499500Y-50221153D01*
X153499500Y-50378846D01*
X153530261Y-50533489D01*
X153530264Y-50533501D01*
X153590061Y-50677864D01*
X153599500Y-50725316D01*
X153599500Y-53273085D01*
X153579815Y-53340124D01*
X153527011Y-53385879D01*
X153457853Y-53395823D01*
X153394297Y-53366798D01*
X153387819Y-53360766D01*
X147576166Y-47549113D01*
X147542681Y-47487790D01*
X147547665Y-47418098D01*
X147589537Y-47362165D01*
X147655001Y-47337748D01*
X147711298Y-47346870D01*
X147766503Y-47369737D01*
X147908645Y-47398011D01*
X147921153Y-47400499D01*
X147921156Y-47400500D01*
X147921158Y-47400500D01*
X148078844Y-47400500D01*
X148078845Y-47400499D01*
X148233497Y-47369737D01*
X148379179Y-47309394D01*
X148379182Y-47309391D01*
X148379225Y-47309374D01*
X148448694Y-47301905D01*
X148488678Y-47316548D01*
G37*
%TD.AperFunction*%
%TA.AperFunction,Conductor*%
G36*
X134781990Y-48168924D02*
G01*
X134783842Y-48170137D01*
X134915531Y-48258129D01*
X134915544Y-48258136D01*
X135030383Y-48305703D01*
X135061220Y-48318476D01*
X135194997Y-48345086D01*
X135215870Y-48349238D01*
X135215873Y-48349239D01*
X135215875Y-48349239D01*
X135373561Y-48349239D01*
X135501308Y-48323828D01*
X135570900Y-48330055D01*
X135626077Y-48372918D01*
X135649322Y-48438807D01*
X135649500Y-48445445D01*
X135649500Y-50018059D01*
X135629815Y-50085098D01*
X135577011Y-50130853D01*
X135507853Y-50140797D01*
X135444297Y-50111772D01*
X135437819Y-50105740D01*
X135410292Y-50078213D01*
X135410288Y-50078210D01*
X135279185Y-49990609D01*
X135279172Y-49990602D01*
X135133501Y-49930264D01*
X135133489Y-49930261D01*
X134978845Y-49899500D01*
X134978842Y-49899500D01*
X134821158Y-49899500D01*
X134821155Y-49899500D01*
X134666510Y-49930261D01*
X134666498Y-49930264D01*
X134520827Y-49990602D01*
X134520814Y-49990609D01*
X134389125Y-50078602D01*
X134322447Y-50099480D01*
X134320234Y-50099500D01*
X127849097Y-50099500D01*
X127782058Y-50079815D01*
X127736303Y-50027011D01*
X127726359Y-49957853D01*
X127755384Y-49894297D01*
X127761416Y-49887819D01*
X128529977Y-49119259D01*
X129463678Y-48185558D01*
X129525001Y-48152073D01*
X129551359Y-48149239D01*
X134714951Y-48149239D01*
X134781990Y-48168924D01*
G37*
%TD.AperFunction*%
%TA.AperFunction,Conductor*%
G36*
X151836941Y-34501185D02*
G01*
X151882696Y-34553989D01*
X151892640Y-34623147D01*
X151863615Y-34686703D01*
X151857583Y-34693181D01*
X145419481Y-41131282D01*
X145419479Y-41131284D01*
X145400436Y-41164268D01*
X145392387Y-41178211D01*
X145340423Y-41268215D01*
X145299499Y-41420943D01*
X145299499Y-41420945D01*
X145299499Y-41589046D01*
X145299500Y-41589059D01*
X145299500Y-43420234D01*
X145279815Y-43487273D01*
X145278602Y-43489125D01*
X145190609Y-43620814D01*
X145190602Y-43620827D01*
X145130264Y-43766498D01*
X145130261Y-43766510D01*
X145099500Y-43921153D01*
X145099500Y-44078846D01*
X145130261Y-44233489D01*
X145130264Y-44233501D01*
X145190602Y-44379172D01*
X145190609Y-44379185D01*
X145278210Y-44510288D01*
X145278213Y-44510292D01*
X145389707Y-44621786D01*
X145389711Y-44621789D01*
X145520814Y-44709390D01*
X145520827Y-44709397D01*
X145660458Y-44767233D01*
X145666503Y-44769737D01*
X145782101Y-44792731D01*
X145821153Y-44800499D01*
X145821156Y-44800500D01*
X145821158Y-44800500D01*
X145978844Y-44800500D01*
X145978845Y-44800499D01*
X146133497Y-44769737D01*
X146279179Y-44709394D01*
X146410289Y-44621789D01*
X146521789Y-44510289D01*
X146609394Y-44379179D01*
X146669737Y-44233497D01*
X146700500Y-44078842D01*
X146700500Y-43921158D01*
X146700500Y-43921155D01*
X146700499Y-43921153D01*
X146695982Y-43898443D01*
X146669737Y-43766503D01*
X146669638Y-43766264D01*
X146609397Y-43620827D01*
X146609390Y-43620814D01*
X146521398Y-43489125D01*
X146500520Y-43422447D01*
X146500500Y-43420234D01*
X146500500Y-41800096D01*
X146520185Y-41733057D01*
X146536814Y-41712420D01*
X151221119Y-37028114D01*
X151282440Y-36994631D01*
X151352132Y-36999615D01*
X151387467Y-37019947D01*
X151389708Y-37021786D01*
X151389711Y-37021789D01*
X151389714Y-37021791D01*
X151520814Y-37109390D01*
X151520827Y-37109397D01*
X151666498Y-37169735D01*
X151666503Y-37169737D01*
X151821153Y-37200499D01*
X151821156Y-37200500D01*
X151872650Y-37200500D01*
X151939689Y-37220185D01*
X151985444Y-37272989D01*
X151995388Y-37342147D01*
X151975752Y-37393391D01*
X151890609Y-37520814D01*
X151890602Y-37520827D01*
X151830264Y-37666498D01*
X151830261Y-37666510D01*
X151799500Y-37821153D01*
X151799500Y-37978846D01*
X151830261Y-38133489D01*
X151830264Y-38133501D01*
X151890602Y-38279172D01*
X151890609Y-38279185D01*
X151978602Y-38410874D01*
X151984252Y-38428920D01*
X151994477Y-38444830D01*
X151998928Y-38475789D01*
X151999480Y-38477551D01*
X151999500Y-38479765D01*
X151999500Y-38513330D01*
X151999499Y-38513348D01*
X151999499Y-38679054D01*
X151999498Y-38679054D01*
X152014086Y-38733497D01*
X152040423Y-38831785D01*
X152044557Y-38838945D01*
X152054337Y-38855886D01*
X152054338Y-38855887D01*
X152119475Y-38968709D01*
X152119481Y-38968717D01*
X152238349Y-39087585D01*
X152238355Y-39087590D01*
X153815139Y-40664374D01*
X153815149Y-40664385D01*
X153819479Y-40668715D01*
X153819480Y-40668716D01*
X153931284Y-40780520D01*
X153982845Y-40810288D01*
X154018095Y-40830639D01*
X154018097Y-40830641D01*
X154056151Y-40852611D01*
X154068215Y-40859577D01*
X154220943Y-40900500D01*
X157420234Y-40900500D01*
X157487273Y-40920185D01*
X157489125Y-40921398D01*
X157620814Y-41009390D01*
X157620827Y-41009397D01*
X157766498Y-41069735D01*
X157766503Y-41069737D01*
X157901642Y-41096618D01*
X157921153Y-41100499D01*
X157921156Y-41100500D01*
X157921158Y-41100500D01*
X158078844Y-41100500D01*
X158078845Y-41100499D01*
X158233497Y-41069737D01*
X158379179Y-41009394D01*
X158510289Y-40921789D01*
X158621789Y-40810289D01*
X158709394Y-40679179D01*
X158749421Y-40582544D01*
X158793258Y-40528144D01*
X158859552Y-40506078D01*
X158927252Y-40523356D01*
X158951661Y-40542318D01*
X159263181Y-40853838D01*
X159296666Y-40915161D01*
X159299500Y-40941519D01*
X159299500Y-41458481D01*
X159279815Y-41525520D01*
X159263181Y-41546162D01*
X158746162Y-42063181D01*
X158684839Y-42096666D01*
X158658481Y-42099500D01*
X157425316Y-42099500D01*
X157377864Y-42090061D01*
X157233501Y-42030264D01*
X157233489Y-42030261D01*
X157078845Y-41999500D01*
X157078842Y-41999500D01*
X156921158Y-41999500D01*
X156921155Y-41999500D01*
X156766510Y-42030261D01*
X156766498Y-42030264D01*
X156620827Y-42090602D01*
X156620814Y-42090609D01*
X156489711Y-42178210D01*
X156489707Y-42178213D01*
X156378213Y-42289707D01*
X156378210Y-42289711D01*
X156290609Y-42420814D01*
X156290602Y-42420827D01*
X156230264Y-42566498D01*
X156230261Y-42566510D01*
X156199500Y-42721153D01*
X156199500Y-42878846D01*
X156230261Y-43033489D01*
X156230264Y-43033501D01*
X156290602Y-43179172D01*
X156290609Y-43179185D01*
X156378210Y-43310288D01*
X156378213Y-43310292D01*
X156489707Y-43421786D01*
X156489711Y-43421789D01*
X156620814Y-43509390D01*
X156620826Y-43509397D01*
X156639243Y-43517025D01*
X156693647Y-43560865D01*
X156715712Y-43627159D01*
X156706352Y-43679038D01*
X156644237Y-43828998D01*
X156644234Y-43829008D01*
X156613334Y-43984350D01*
X156580949Y-44046261D01*
X156579398Y-44047839D01*
X156119395Y-44507842D01*
X156058072Y-44541327D01*
X155988380Y-44536343D01*
X155932447Y-44494471D01*
X155908030Y-44429007D01*
X155907714Y-44420161D01*
X155907714Y-44309209D01*
X155907713Y-44309207D01*
X155904743Y-44294278D01*
X155876951Y-44154557D01*
X155845589Y-44078842D01*
X155816611Y-44008881D01*
X155816604Y-44008868D01*
X155729003Y-43877765D01*
X155729000Y-43877761D01*
X155617506Y-43766267D01*
X155617502Y-43766264D01*
X155486399Y-43678663D01*
X155486386Y-43678656D01*
X155340715Y-43618318D01*
X155340703Y-43618315D01*
X155186059Y-43587554D01*
X155186056Y-43587554D01*
X155028372Y-43587554D01*
X155028369Y-43587554D01*
X154873724Y-43618315D01*
X154873712Y-43618318D01*
X154728041Y-43678656D01*
X154728029Y-43678663D01*
X154641660Y-43736374D01*
X154574983Y-43757252D01*
X154572769Y-43757272D01*
X153395310Y-43757272D01*
X153328271Y-43737587D01*
X153326419Y-43736374D01*
X153194729Y-43648381D01*
X153194716Y-43648374D01*
X153049045Y-43588036D01*
X153049033Y-43588033D01*
X152894389Y-43557272D01*
X152894386Y-43557272D01*
X152736702Y-43557272D01*
X152736699Y-43557272D01*
X152582054Y-43588033D01*
X152582042Y-43588036D01*
X152436371Y-43648374D01*
X152436358Y-43648381D01*
X152305255Y-43735982D01*
X152305251Y-43735985D01*
X152193757Y-43847479D01*
X152193754Y-43847483D01*
X152106153Y-43978586D01*
X152106146Y-43978599D01*
X152045808Y-44124270D01*
X152045805Y-44124282D01*
X152015044Y-44278925D01*
X152015044Y-44436614D01*
X152017967Y-44451311D01*
X152011738Y-44520902D01*
X151968874Y-44576079D01*
X151902984Y-44599322D01*
X151896349Y-44599500D01*
X151579766Y-44599500D01*
X151512727Y-44579815D01*
X151510875Y-44578602D01*
X151379185Y-44490609D01*
X151379172Y-44490602D01*
X151233501Y-44430264D01*
X151233489Y-44430261D01*
X151078845Y-44399500D01*
X151078842Y-44399500D01*
X150921158Y-44399500D01*
X150921155Y-44399500D01*
X150766510Y-44430261D01*
X150766498Y-44430264D01*
X150620827Y-44490602D01*
X150620814Y-44490609D01*
X150489711Y-44578210D01*
X150489707Y-44578213D01*
X150378213Y-44689707D01*
X150378210Y-44689711D01*
X150290609Y-44820814D01*
X150290602Y-44820827D01*
X150230264Y-44966498D01*
X150230261Y-44966510D01*
X150199500Y-45121153D01*
X150199500Y-45278846D01*
X150225647Y-45410292D01*
X150230263Y-45433497D01*
X150243509Y-45465476D01*
X150243927Y-45466484D01*
X150247435Y-45499122D01*
X150252103Y-45531583D01*
X150251149Y-45533670D01*
X150251395Y-45535954D01*
X150236706Y-45565296D01*
X150223078Y-45595139D01*
X150221146Y-45596380D01*
X150220119Y-45598433D01*
X150191896Y-45615178D01*
X150164300Y-45632913D01*
X150161271Y-45633348D01*
X150160030Y-45634085D01*
X150129365Y-45637936D01*
X150079766Y-45637936D01*
X150012727Y-45618251D01*
X150010875Y-45617038D01*
X149879185Y-45529045D01*
X149879172Y-45529038D01*
X149733501Y-45468700D01*
X149733489Y-45468697D01*
X149578845Y-45437936D01*
X149578842Y-45437936D01*
X149421158Y-45437936D01*
X149421155Y-45437936D01*
X149266510Y-45468697D01*
X149266498Y-45468700D01*
X149120827Y-45529038D01*
X149120814Y-45529045D01*
X148989711Y-45616646D01*
X148989707Y-45616649D01*
X148878213Y-45728143D01*
X148878210Y-45728147D01*
X148790609Y-45859250D01*
X148790602Y-45859263D01*
X148764223Y-45922951D01*
X148751680Y-45938516D01*
X148743375Y-45956702D01*
X148730205Y-45965165D01*
X148720383Y-45977355D01*
X148701413Y-45983668D01*
X148684597Y-45994476D01*
X148657037Y-45998438D01*
X148654089Y-45999420D01*
X148649662Y-45999499D01*
X148579764Y-45999499D01*
X148512725Y-45979814D01*
X148510873Y-45978601D01*
X148379185Y-45890609D01*
X148379172Y-45890602D01*
X148233501Y-45830264D01*
X148233489Y-45830261D01*
X148078845Y-45799500D01*
X148078842Y-45799500D01*
X147921158Y-45799500D01*
X147921155Y-45799500D01*
X147766510Y-45830261D01*
X147766498Y-45830264D01*
X147620827Y-45890602D01*
X147620814Y-45890609D01*
X147489711Y-45978210D01*
X147489707Y-45978213D01*
X147378213Y-46089707D01*
X147378210Y-46089711D01*
X147290609Y-46220814D01*
X147290602Y-46220827D01*
X147230264Y-46366498D01*
X147230261Y-46366510D01*
X147199500Y-46521153D01*
X147199500Y-46678846D01*
X147230261Y-46833489D01*
X147230264Y-46833501D01*
X147253128Y-46888700D01*
X147260597Y-46958170D01*
X147229321Y-47020649D01*
X147169232Y-47056300D01*
X147099407Y-47053806D01*
X147050886Y-47023833D01*
X143986819Y-43959766D01*
X143953334Y-43898443D01*
X143950500Y-43872085D01*
X143950500Y-36327915D01*
X143970185Y-36260876D01*
X143986819Y-36240234D01*
X144119527Y-36107526D01*
X144271931Y-35955121D01*
X144333252Y-35921638D01*
X144402943Y-35926622D01*
X144458877Y-35968493D01*
X144483294Y-36033958D01*
X144474172Y-36090255D01*
X144452376Y-36142876D01*
X144452375Y-36142879D01*
X144452375Y-36142880D01*
X144452374Y-36142881D01*
X144418500Y-36313176D01*
X144418500Y-36313179D01*
X144418500Y-36486821D01*
X144418500Y-36486823D01*
X144418499Y-36486823D01*
X144452374Y-36657118D01*
X144452377Y-36657128D01*
X144518822Y-36817543D01*
X144615295Y-36961926D01*
X144738073Y-37084704D01*
X144882456Y-37181177D01*
X145042871Y-37247622D01*
X145042876Y-37247624D01*
X145042880Y-37247624D01*
X145042881Y-37247625D01*
X145213176Y-37281500D01*
X145213179Y-37281500D01*
X145386823Y-37281500D01*
X145501393Y-37258709D01*
X145557124Y-37247624D01*
X145648614Y-37209728D01*
X145717543Y-37181177D01*
X145717544Y-37181176D01*
X145717547Y-37181175D01*
X145861924Y-37084706D01*
X145951999Y-36994631D01*
X145975477Y-36971153D01*
X146799500Y-36971153D01*
X146799500Y-37128846D01*
X146830261Y-37283489D01*
X146830264Y-37283501D01*
X146890602Y-37429172D01*
X146890609Y-37429185D01*
X146978210Y-37560288D01*
X146978213Y-37560292D01*
X147089707Y-37671786D01*
X147089711Y-37671789D01*
X147220814Y-37759390D01*
X147220827Y-37759397D01*
X147366498Y-37819735D01*
X147366503Y-37819737D01*
X147521153Y-37850499D01*
X147521156Y-37850500D01*
X147521158Y-37850500D01*
X147678844Y-37850500D01*
X147678845Y-37850499D01*
X147833497Y-37819737D01*
X147979179Y-37759394D01*
X148110289Y-37671789D01*
X148221789Y-37560289D01*
X148309394Y-37429179D01*
X148369737Y-37283497D01*
X148400500Y-37128842D01*
X148400500Y-36971158D01*
X148400500Y-36971155D01*
X148400499Y-36971153D01*
X148392569Y-36931285D01*
X148369737Y-36816503D01*
X148369735Y-36816498D01*
X148309397Y-36670827D01*
X148309390Y-36670814D01*
X148221789Y-36539711D01*
X148221786Y-36539707D01*
X148110292Y-36428213D01*
X148110288Y-36428210D01*
X147979185Y-36340609D01*
X147979172Y-36340602D01*
X147833501Y-36280264D01*
X147833489Y-36280261D01*
X147678845Y-36249500D01*
X147678842Y-36249500D01*
X147521158Y-36249500D01*
X147521155Y-36249500D01*
X147366510Y-36280261D01*
X147366498Y-36280264D01*
X147220827Y-36340602D01*
X147220814Y-36340609D01*
X147089711Y-36428210D01*
X147089707Y-36428213D01*
X146978213Y-36539707D01*
X146978210Y-36539711D01*
X146890609Y-36670814D01*
X146890602Y-36670827D01*
X146830264Y-36816498D01*
X146830261Y-36816510D01*
X146799500Y-36971153D01*
X145975477Y-36971153D01*
X146069246Y-36877385D01*
X148428811Y-34517819D01*
X148490134Y-34484334D01*
X148516492Y-34481500D01*
X151769902Y-34481500D01*
X151836941Y-34501185D01*
G37*
%TD.AperFunction*%
%TA.AperFunction,Conductor*%
G36*
X140051148Y-41931554D02*
G01*
X140073663Y-41949369D01*
X140963181Y-42838887D01*
X140996666Y-42900210D01*
X140999500Y-42926568D01*
X140999500Y-43420234D01*
X140979815Y-43487273D01*
X140978602Y-43489125D01*
X140890609Y-43620814D01*
X140890602Y-43620827D01*
X140830264Y-43766498D01*
X140830261Y-43766510D01*
X140799500Y-43921153D01*
X140799500Y-44078846D01*
X140830261Y-44233489D01*
X140830264Y-44233501D01*
X140890602Y-44379172D01*
X140890609Y-44379185D01*
X140978210Y-44510288D01*
X140978213Y-44510292D01*
X141089707Y-44621786D01*
X141089711Y-44621789D01*
X141220814Y-44709390D01*
X141220827Y-44709397D01*
X141360458Y-44767233D01*
X141366503Y-44769737D01*
X141482101Y-44792731D01*
X141521153Y-44800499D01*
X141521156Y-44800500D01*
X141636840Y-44800500D01*
X141703879Y-44820185D01*
X141747325Y-44868205D01*
X141803377Y-44978213D01*
X141816006Y-45002997D01*
X141922440Y-45149493D01*
X141922444Y-45149497D01*
X141922447Y-45149501D01*
X141993760Y-45220814D01*
X142032753Y-45259807D01*
X142037091Y-45267752D01*
X142044337Y-45273176D01*
X142053572Y-45297935D01*
X142066237Y-45321130D01*
X142065591Y-45330158D01*
X142068755Y-45338640D01*
X142063138Y-45364461D01*
X142061253Y-45390822D01*
X142055434Y-45399875D01*
X142053904Y-45406913D01*
X142032754Y-45435168D01*
X142004740Y-45463181D01*
X141943420Y-45496666D01*
X141917060Y-45499500D01*
X137879766Y-45499500D01*
X137812727Y-45479815D01*
X137810875Y-45478602D01*
X137679185Y-45390609D01*
X137679172Y-45390602D01*
X137533501Y-45330264D01*
X137533489Y-45330261D01*
X137378845Y-45299500D01*
X137378842Y-45299500D01*
X137221158Y-45299500D01*
X137198690Y-45303969D01*
X137129099Y-45297740D01*
X137073922Y-45254877D01*
X137050678Y-45188987D01*
X137050500Y-45182351D01*
X137050500Y-44716518D01*
X137070185Y-44649479D01*
X137086814Y-44628842D01*
X139619586Y-42096069D01*
X139659810Y-42069192D01*
X139714435Y-42046566D01*
X139804173Y-42009397D01*
X139804175Y-42009395D01*
X139804179Y-42009394D01*
X139917092Y-41933947D01*
X139983768Y-41913070D01*
X140051148Y-41931554D01*
G37*
%TD.AperFunction*%
%TA.AperFunction,Conductor*%
G36*
X157842539Y-34501185D02*
G01*
X157888294Y-34553989D01*
X157899500Y-34605500D01*
X157899500Y-39131006D01*
X157899500Y-39268994D01*
X157899500Y-39268996D01*
X157899499Y-39268996D01*
X157920238Y-39373252D01*
X157914011Y-39442844D01*
X157871148Y-39498021D01*
X157822814Y-39519061D01*
X157766507Y-39530261D01*
X157766498Y-39530264D01*
X157620827Y-39590602D01*
X157620814Y-39590609D01*
X157489125Y-39678602D01*
X157422447Y-39699480D01*
X157420234Y-39699500D01*
X154600097Y-39699500D01*
X154533058Y-39679815D01*
X154512416Y-39663181D01*
X153308861Y-38459626D01*
X153275376Y-38398303D01*
X153280360Y-38328611D01*
X153293436Y-38303060D01*
X153309394Y-38279179D01*
X153369737Y-38133497D01*
X153400500Y-37978842D01*
X153400500Y-37821158D01*
X153400500Y-37821155D01*
X153400499Y-37821153D01*
X153388213Y-37759390D01*
X153369737Y-37666503D01*
X153335524Y-37583904D01*
X153309397Y-37520827D01*
X153309390Y-37520814D01*
X153221789Y-37389711D01*
X153221786Y-37389707D01*
X153110292Y-37278213D01*
X153110288Y-37278210D01*
X153034548Y-37227602D01*
X152989743Y-37173990D01*
X152981036Y-37104665D01*
X153011190Y-37041637D01*
X153070634Y-37004918D01*
X153103439Y-37000500D01*
X153599903Y-37000500D01*
X153666942Y-37020185D01*
X153687584Y-37036819D01*
X153965425Y-37314660D01*
X153998910Y-37375983D01*
X153999361Y-37378149D01*
X154030261Y-37533491D01*
X154030264Y-37533501D01*
X154090602Y-37679172D01*
X154090609Y-37679185D01*
X154178210Y-37810288D01*
X154178213Y-37810292D01*
X154289707Y-37921786D01*
X154289711Y-37921789D01*
X154420814Y-38009390D01*
X154420827Y-38009397D01*
X154508245Y-38045606D01*
X154566503Y-38069737D01*
X154721153Y-38100499D01*
X154721156Y-38100500D01*
X154721158Y-38100500D01*
X154878844Y-38100500D01*
X154878845Y-38100499D01*
X155033497Y-38069737D01*
X155179179Y-38009394D01*
X155310289Y-37921789D01*
X155421789Y-37810289D01*
X155509394Y-37679179D01*
X155569737Y-37533497D01*
X155600500Y-37378842D01*
X155600500Y-37221158D01*
X155600500Y-37221155D01*
X155600499Y-37221153D01*
X155599115Y-37214196D01*
X155569737Y-37066503D01*
X155542398Y-37000500D01*
X155509397Y-36920827D01*
X155509390Y-36920814D01*
X155421789Y-36789711D01*
X155421786Y-36789707D01*
X155310292Y-36678213D01*
X155310288Y-36678210D01*
X155179185Y-36590609D01*
X155179172Y-36590602D01*
X155033501Y-36530264D01*
X155033491Y-36530261D01*
X154878149Y-36499361D01*
X154816238Y-36466976D01*
X154814660Y-36465425D01*
X154387590Y-36038355D01*
X154387588Y-36038352D01*
X154268717Y-35919481D01*
X154268716Y-35919480D01*
X154181904Y-35869360D01*
X154181904Y-35869359D01*
X154181900Y-35869358D01*
X154131785Y-35840423D01*
X153979057Y-35799499D01*
X153820943Y-35799499D01*
X153813347Y-35799499D01*
X153813331Y-35799500D01*
X152749098Y-35799500D01*
X152682059Y-35779815D01*
X152636304Y-35727011D01*
X152626360Y-35657853D01*
X152655385Y-35594297D01*
X152661417Y-35587819D01*
X153012417Y-35236819D01*
X153073740Y-35203334D01*
X153100098Y-35200500D01*
X153520234Y-35200500D01*
X153587273Y-35220185D01*
X153589125Y-35221398D01*
X153720814Y-35309390D01*
X153720827Y-35309397D01*
X153866498Y-35369735D01*
X153866503Y-35369737D01*
X154021153Y-35400499D01*
X154021156Y-35400500D01*
X154021158Y-35400500D01*
X154178844Y-35400500D01*
X154178845Y-35400499D01*
X154333497Y-35369737D01*
X154479179Y-35309394D01*
X154610289Y-35221789D01*
X154721789Y-35110289D01*
X154809394Y-34979179D01*
X154869737Y-34833497D01*
X154900500Y-34678842D01*
X154900500Y-34605500D01*
X154920185Y-34538461D01*
X154972989Y-34492706D01*
X155024500Y-34481500D01*
X157775500Y-34481500D01*
X157842539Y-34501185D01*
G37*
%TD.AperFunction*%
%TA.AperFunction,Conductor*%
G36*
X171914238Y-38860686D02*
G01*
X171949162Y-38891165D01*
X172003378Y-38965786D01*
X172003379Y-38965787D01*
X172134213Y-39096621D01*
X172138421Y-39099678D01*
X172138432Y-39099686D01*
X172181094Y-39155019D01*
X172187069Y-39224633D01*
X172154459Y-39286426D01*
X172153221Y-39287681D01*
X172146317Y-39294584D01*
X172134213Y-39303379D01*
X172003379Y-39434213D01*
X171994584Y-39446317D01*
X171987681Y-39453221D01*
X171965237Y-39465476D01*
X171944981Y-39481094D01*
X171935079Y-39481943D01*
X171926358Y-39486706D01*
X171900849Y-39484881D01*
X171875367Y-39487069D01*
X171866578Y-39482430D01*
X171856666Y-39481722D01*
X171836193Y-39466395D01*
X171813574Y-39454459D01*
X171801250Y-39440237D01*
X171800733Y-39439850D01*
X171800595Y-39439481D01*
X171799686Y-39438432D01*
X171796621Y-39434213D01*
X171665787Y-39303379D01*
X171665786Y-39303378D01*
X171591165Y-39249162D01*
X171576190Y-39229742D01*
X170946448Y-38600000D01*
X170952661Y-38600000D01*
X171054394Y-38572741D01*
X171145606Y-38520080D01*
X171220080Y-38445606D01*
X171272741Y-38354394D01*
X171300000Y-38252661D01*
X171300000Y-38246447D01*
X171914238Y-38860686D01*
G37*
%TD.AperFunction*%
%TA.AperFunction,Conductor*%
G36*
X172500000Y-36252661D02*
G01*
X172527259Y-36354394D01*
X172579920Y-36445606D01*
X172654394Y-36520080D01*
X172745606Y-36572741D01*
X172847339Y-36600000D01*
X172853553Y-36600000D01*
X172239355Y-37214196D01*
X172208833Y-37249163D01*
X172134213Y-37303378D01*
X172003378Y-37434213D01*
X171949163Y-37508833D01*
X171929745Y-37523805D01*
X171300000Y-38153551D01*
X171300000Y-38147339D01*
X171272741Y-38045606D01*
X171220080Y-37954394D01*
X171145606Y-37879920D01*
X171054394Y-37827259D01*
X170952661Y-37800000D01*
X170946447Y-37800000D01*
X171536430Y-37210015D01*
X171536408Y-37209728D01*
X171536408Y-37190275D01*
X171536430Y-37189983D01*
X170946448Y-36600000D01*
X170952661Y-36600000D01*
X171054394Y-36572741D01*
X171145606Y-36520080D01*
X171220080Y-36445606D01*
X171272741Y-36354394D01*
X171300000Y-36252661D01*
X171300000Y-36246447D01*
X171889983Y-36836430D01*
X171890276Y-36836408D01*
X171909729Y-36836408D01*
X171910015Y-36836430D01*
X172500000Y-36246445D01*
X172500000Y-36252661D01*
G37*
%TD.AperFunction*%
%TD*%
M02*
