%TF.GenerationSoftware,KiCad,Pcbnew,9.0.8-9.0.8~ubuntu24.04.1*%
%TF.CreationDate,2026-03-31T16:09:15-04:00*%
%TF.ProjectId,Bucket_universel_v2,4275636b-6574-45f7-956e-697665727365,rev?*%
%TF.SameCoordinates,Original*%
%TF.FileFunction,Plated,1,2,PTH,Mixed*%
%TF.FilePolarity,Positive*%
%FSLAX46Y46*%
G04 Gerber Fmt 4.6, Leading zero omitted, Abs format (unit mm)*
G04 Created by KiCad (PCBNEW 9.0.8-9.0.8~ubuntu24.04.1) date 2026-03-31 16:09:15*
%MOMM*%
%LPD*%
G01*
G04 APERTURE LIST*
%TA.AperFunction,ViaDrill*%
%ADD10C,0.300000*%
%TD*%
G04 aperture for slot hole*
%TA.AperFunction,ComponentDrill*%
%ADD11C,0.650000*%
%TD*%
G04 aperture for slot hole*
%TA.AperFunction,ComponentDrill*%
%ADD12C,0.700000*%
%TD*%
%TA.AperFunction,ComponentDrill*%
%ADD13C,0.750000*%
%TD*%
%TA.AperFunction,ComponentDrill*%
%ADD14C,0.762000*%
%TD*%
%TA.AperFunction,ComponentDrill*%
%ADD15C,0.800000*%
%TD*%
%TA.AperFunction,ComponentDrill*%
%ADD16C,0.950000*%
%TD*%
%TA.AperFunction,ComponentDrill*%
%ADD17C,1.000000*%
%TD*%
%TA.AperFunction,ComponentDrill*%
%ADD18C,1.900000*%
%TD*%
%TA.AperFunction,ComponentDrill*%
%ADD19C,3.200000*%
%TD*%
G04 APERTURE END LIST*
D10*
X72100000Y-73900000D03*
X75200000Y-74300000D03*
X77200000Y-31600000D03*
X77200000Y-51600000D03*
X77400000Y-34500000D03*
X79100000Y-31600000D03*
X79100000Y-57700000D03*
X79400000Y-34700000D03*
X79400000Y-56900000D03*
X79400000Y-58400000D03*
X79600000Y-51600000D03*
X79600000Y-60400000D03*
X80400000Y-62600000D03*
X80500000Y-60400000D03*
X81500000Y-56900000D03*
X81500000Y-57800000D03*
X81500000Y-62600000D03*
X82200000Y-54800000D03*
X82200000Y-57300000D03*
X83000000Y-57300000D03*
X83900000Y-34700000D03*
X84000000Y-31700000D03*
X84700000Y-57300000D03*
X85700000Y-57400000D03*
X86500000Y-66100000D03*
X87400000Y-57100000D03*
X87900000Y-57800000D03*
X88000000Y-39400000D03*
X89100000Y-55800000D03*
X89200000Y-59100000D03*
X90400000Y-72100000D03*
X90700000Y-45900000D03*
X91600000Y-63400000D03*
X91900000Y-66300000D03*
X93100000Y-49800000D03*
X93100000Y-55500000D03*
X93200000Y-57400000D03*
X93200000Y-59600000D03*
X93300000Y-38500000D03*
X94000000Y-44800000D03*
X94000000Y-53000000D03*
X94000000Y-61600000D03*
X94128200Y-57474949D03*
X94800000Y-39700000D03*
X95100000Y-55500000D03*
X95200000Y-57400000D03*
X95200000Y-59600000D03*
X96800000Y-49800000D03*
X98700000Y-63000000D03*
X99400000Y-36600000D03*
X99700000Y-51000000D03*
X99800000Y-54900000D03*
X100100000Y-56800000D03*
X100457772Y-57515544D03*
X100700000Y-73900000D03*
X100724671Y-58269711D03*
X101900000Y-30900000D03*
X103100000Y-44900000D03*
X103500000Y-64900000D03*
X103600000Y-48000000D03*
X107500000Y-32000000D03*
X107900000Y-72900000D03*
X110300000Y-34200000D03*
X110500000Y-66500000D03*
X111128875Y-54371125D03*
X111800000Y-45700000D03*
X112500000Y-28500000D03*
X112692525Y-49592525D03*
X113500000Y-69200000D03*
X114600000Y-43500000D03*
X115500000Y-52100000D03*
X116500000Y-52600000D03*
X118000000Y-60900000D03*
X118100000Y-62825000D03*
X118900000Y-59200000D03*
X119300673Y-57625673D03*
X120200000Y-51600000D03*
X120400000Y-52400000D03*
X120476381Y-53196348D03*
X121200000Y-50100000D03*
X122000000Y-56000000D03*
X122400000Y-46500000D03*
X122400000Y-61700000D03*
X122400000Y-63400000D03*
X122900000Y-65800000D03*
X123400000Y-61700000D03*
X123400000Y-63400000D03*
X123500000Y-54600000D03*
X123600000Y-59600000D03*
X123800000Y-65800000D03*
X123949999Y-50676345D03*
X124043767Y-51470833D03*
X124800000Y-52000000D03*
X125500000Y-57200000D03*
X125700000Y-52700000D03*
X126700000Y-55200000D03*
X127600000Y-29100000D03*
X128200000Y-56900000D03*
X129800000Y-49000000D03*
X130200000Y-59500000D03*
X130800000Y-68100000D03*
X131000000Y-41200000D03*
X131100000Y-43800000D03*
X131200000Y-60400000D03*
X131500000Y-49000000D03*
X133100000Y-35900000D03*
X133500000Y-55100000D03*
X134100000Y-49000000D03*
X134900000Y-50700000D03*
X135200000Y-55400000D03*
X135294717Y-47548739D03*
X135380930Y-46753396D03*
X135400000Y-38100000D03*
X135650000Y-46000000D03*
X135650000Y-51400000D03*
X136800000Y-59700000D03*
X137000000Y-42700000D03*
X137100000Y-37800000D03*
X137300000Y-46100000D03*
X137413137Y-46891962D03*
X137500000Y-38900000D03*
X138900000Y-43700000D03*
X139000000Y-32700000D03*
X139000000Y-56600000D03*
X139200000Y-49800000D03*
X139200000Y-54900000D03*
X139300000Y-47500000D03*
X139300000Y-58500000D03*
X139300000Y-67900000D03*
X139425000Y-41300000D03*
X140300000Y-44800000D03*
X140300000Y-49700000D03*
X140400000Y-30400000D03*
X141000000Y-38000000D03*
X141100000Y-39600000D03*
X141200000Y-46891962D03*
X141600000Y-44000000D03*
X141700000Y-50800000D03*
X142600000Y-46000000D03*
X142600000Y-58100000D03*
X142900000Y-63300000D03*
X143600000Y-47200000D03*
X144400000Y-54800000D03*
X144500000Y-49800000D03*
X144615136Y-48164682D03*
X144800000Y-31650000D03*
X145000000Y-56500000D03*
X145250000Y-34100000D03*
X145300000Y-36400000D03*
X145300000Y-48900000D03*
X145900000Y-44000000D03*
X146000000Y-49800000D03*
X146200000Y-54900000D03*
X146600000Y-50650000D03*
X146900000Y-62100000D03*
X146900000Y-63900000D03*
X147100000Y-59300000D03*
X147400000Y-66700000D03*
X147600000Y-37050000D03*
X147600000Y-41600000D03*
X148000000Y-46600000D03*
X148100000Y-58600000D03*
X148100000Y-62100000D03*
X148175735Y-55075735D03*
X148200000Y-63900000D03*
X148500000Y-66200000D03*
X148800000Y-44200000D03*
X148900000Y-55500000D03*
X149400000Y-57800000D03*
X149500000Y-46238436D03*
X149947486Y-53221140D03*
X150300000Y-41500000D03*
X150400000Y-58900000D03*
X151000000Y-45200000D03*
X151200000Y-47500000D03*
X151300000Y-49400000D03*
X151500000Y-50300000D03*
X151636827Y-54863173D03*
X151900000Y-36400000D03*
X152500000Y-31500000D03*
X152600000Y-37900000D03*
X152613173Y-55886827D03*
X152815544Y-44357772D03*
X153300000Y-26600000D03*
X153400000Y-41000000D03*
X153463173Y-56736827D03*
X153800000Y-38300000D03*
X154100000Y-34600000D03*
X154300000Y-50300000D03*
X154600000Y-39100000D03*
X154663173Y-57936827D03*
X154800000Y-37300000D03*
X155066380Y-45998495D03*
X155080000Y-45187593D03*
X155107214Y-44388054D03*
X155144975Y-53955025D03*
X155300000Y-35500000D03*
X155300000Y-46800000D03*
X155818899Y-53523945D03*
X155900000Y-48200000D03*
X156100000Y-36900000D03*
X156100000Y-49000000D03*
X156298770Y-54164045D03*
X156700000Y-31900000D03*
X156710556Y-46225498D03*
X157000000Y-42800000D03*
X157095457Y-54091282D03*
X157413973Y-44062500D03*
X157500000Y-46462500D03*
X157600002Y-53400000D03*
X157925735Y-50225735D03*
X158000000Y-40300000D03*
X158200000Y-52800000D03*
X158600000Y-33600000D03*
X159800000Y-50900000D03*
X160100000Y-45600000D03*
X160300000Y-35600000D03*
X160400000Y-47000000D03*
X160500000Y-44500000D03*
X160800000Y-51900000D03*
X161700000Y-37200000D03*
X161900000Y-46000000D03*
X161900000Y-46800000D03*
X162000000Y-32900000D03*
X162075000Y-55975000D03*
X162700000Y-48800000D03*
X162800000Y-41800000D03*
X162800000Y-46000000D03*
X162800000Y-46800000D03*
X163100000Y-50900000D03*
X163700000Y-34500000D03*
X164100000Y-52100000D03*
X164600000Y-51100000D03*
X164700000Y-64600000D03*
X164724265Y-48724265D03*
X164900000Y-62300000D03*
X165174265Y-41974265D03*
X165400000Y-57800000D03*
X165600000Y-36600000D03*
X165600000Y-52000000D03*
X165600000Y-55900000D03*
X166300000Y-37500000D03*
X166500000Y-42400000D03*
X166800000Y-34800000D03*
X167200000Y-52100000D03*
X167300000Y-50200000D03*
X167800000Y-55100000D03*
X168400000Y-52100000D03*
X168800000Y-34300000D03*
X169000000Y-47100000D03*
X172100000Y-61600000D03*
X172500000Y-59000000D03*
D11*
%TO.C,J7*%
X149405000Y-24685000D02*
X149405000Y-24285000D01*
X154245000Y-24685000D02*
X154245000Y-24285000D01*
D12*
X149095000Y-21735000D02*
X149095000Y-21235000D01*
X154555000Y-21735000D02*
X154555000Y-21235000D01*
D13*
%TO.C,J2*%
X132500000Y-73250000D03*
X134500000Y-73250000D03*
X136500000Y-73250000D03*
%TO.C,J3*%
X168650000Y-61600000D03*
X168650000Y-63600000D03*
X168650000Y-65600000D03*
X168650000Y-67600000D03*
X168650000Y-69600000D03*
D14*
%TO.C,SW2*%
X148300000Y-28900000D03*
D15*
%TO.C,J1*%
X170900000Y-36200000D03*
X170900000Y-38200000D03*
X170900000Y-40200000D03*
X170900000Y-42200000D03*
X170900000Y-44200000D03*
X170900000Y-46200000D03*
X170900000Y-48200000D03*
X170900000Y-50200000D03*
X170900000Y-52200000D03*
X170900000Y-54200000D03*
X170900000Y-56200000D03*
X172900000Y-36200000D03*
X172900000Y-38200000D03*
X172900000Y-40200000D03*
X172900000Y-42200000D03*
X172900000Y-44200000D03*
X172900000Y-46200000D03*
X172900000Y-48200000D03*
X172900000Y-50200000D03*
X172900000Y-52200000D03*
X172900000Y-54200000D03*
X172900000Y-56200000D03*
D16*
%TO.C,J4*%
X77688600Y-53950046D03*
X77688600Y-56450046D03*
X77688600Y-58950046D03*
X77688600Y-61450046D03*
%TO.C,J11*%
X92100000Y-29700000D03*
X94600000Y-29700000D03*
X97100000Y-29700000D03*
%TO.C,J8*%
X104400000Y-29500000D03*
X106900000Y-29500000D03*
X109400000Y-29500000D03*
%TO.C,J12*%
X118900000Y-70200000D03*
X121400000Y-70200000D03*
X123900000Y-70200000D03*
X126400000Y-70200000D03*
%TO.C,J10*%
X131900000Y-29800000D03*
X134400000Y-29800000D03*
X136900000Y-29800000D03*
%TO.C,J5*%
X143250000Y-70255000D03*
X145750000Y-70255000D03*
X148250000Y-70255000D03*
X150750000Y-70255000D03*
D17*
%TO.C,J9*%
X115700000Y-23475000D03*
X126700000Y-23475000D03*
D18*
X118700000Y-33475000D03*
X123700000Y-33475000D03*
D19*
%TO.C,H2*%
X84900000Y-24700000D03*
%TO.C,H3*%
X84900000Y-74700000D03*
%TO.C,H4*%
X159900000Y-24700000D03*
%TO.C,H1*%
X159900000Y-74700000D03*
M02*
